<?xml version="1.0" encoding="UTF-8" standalone="no"?>
<!DOCTYPE svg PUBLIC "-//W3C//DTD SVG 1.1//EN" "http://www.w3.org/Graphics/SVG/1.1/DTD/svg11.dtd">
<svg width="100%" height="100%" viewBox="0 0 2500 2500" version="1.1" xmlns="http://www.w3.org/2000/svg" xmlns:xlink="http://www.w3.org/1999/xlink" xml:space="preserve" xmlns:serif="http://www.serif.com/" style="fill-rule:evenodd;clip-rule:evenodd;stroke-linejoin:round;stroke-miterlimit:2;">
    <g>
        <g transform="matrix(1.18306,0,0,1.18306,-517.462215,-228.824532)">
            <path d="M921.858,1922.6L871.199,1922.6L871.199,1553.32L921.858,1555.25L921.858,1922.6Z" style="fill:white;fill-rule:nonzero;"/>
        </g>
        <g transform="matrix(1.18306,0,0,1.18306,-517.462215,-228.824532)">
            <path d="M873.455,1920.34L919.602,1920.34L919.602,1557.42L873.455,1555.66L873.455,1920.34ZM921.858,1924.85L871.199,1924.85C869.953,1924.85 868.943,1923.84 868.943,1922.6L868.943,1553.32C868.943,1552.71 869.193,1552.12 869.635,1551.69C870.077,1551.27 870.684,1551.03 871.285,1551.07L921.944,1553C923.155,1553.04 924.113,1554.04 924.113,1555.25L924.113,1922.6C924.113,1923.84 923.104,1924.85 921.858,1924.85Z" style="fill-rule:nonzero;"/>
        </g>
        <g transform="matrix(1.18306,0,0,1.18306,-517.462215,-228.824532)">
            <path d="M843.66,462.625C842.825,462.625 842.022,462.16 841.631,461.36C841.083,460.239 841.548,458.889 842.667,458.342C985.306,388.64 1118.06,382.21 1204.32,389.074C1297.81,396.524 1358.44,420.817 1359.04,421.062C1360.19,421.531 1360.74,422.848 1360.28,424C1359.81,425.157 1358.49,425.701 1357.34,425.243C1356.74,425 1296.63,400.932 1203.78,393.557C1118.13,386.768 986.297,393.176 844.648,462.396C844.33,462.552 843.991,462.625 843.66,462.625Z" style="fill-rule:nonzero;"/>
        </g>
        <g transform="matrix(1.18306,0,0,1.18306,-517.462215,-228.824532)">
            <path d="M1478.77,419.986C1478.33,419.986 1477.89,419.859 1477.5,419.59C1326.24,315.529 1142.93,342.781 1141.1,343.078C1139.87,343.25 1138.71,342.429 1138.52,341.199C1138.33,339.968 1139.17,338.813 1140.4,338.62C1140.86,338.549 1187.48,331.418 1252.29,337.366C1312.13,342.86 1400.21,360.939 1480.05,415.872C1481.08,416.579 1481.34,417.982 1480.63,419.008C1480.2,419.645 1479.49,419.986 1478.77,419.986Z" style="fill-rule:nonzero;"/>
        </g>
        <g transform="matrix(1.18306,0,0,1.18306,-517.462215,-228.824532)">
            <path d="M2084.51,1285.49C2084.21,1285.49 2083.899,1285.42 2083.6,1285.29C2082.46,1284.79 2081.95,1283.46 2082.45,1282.32L2089.52,1266.31C2090.02,1265.17 2091.35,1264.66 2092.5,1265.16C2093.629,1265.66 2094.149,1266.99 2093.649,1268.13L2086.58,1284.14C2086.2,1284.98 2085.379,1285.49 2084.51,1285.49Z" style="fill-rule:nonzero;"/>
        </g>
        <g transform="matrix(1.18306,0,0,1.18306,-517.462215,-228.824532)">
            <path d="M2068.04,1322.77C2067.73,1322.77 2067.429,1322.71 2067.129,1322.58C2065.99,1322.08 2065.47,1320.75 2065.98,1319.6L2073.05,1303.6C2073.55,1302.46 2074.879,1301.95 2076.02,1302.45C2077.159,1302.95 2077.679,1304.28 2077.179,1305.42L2070.1,1321.43C2069.73,1322.27 2068.909,1322.77 2068.04,1322.77Z" style="fill-rule:nonzero;"/>
        </g>
        <g transform="matrix(1.18306,0,0,1.18306,-517.462215,-228.824532)">
            <path d="M2069.169,1291.43C2068.87,1291.43 2068.56,1291.36 2068.26,1291.23L2052.25,1284.16C2051.11,1283.66 2050.6,1282.33 2051.1,1281.19C2051.6,1280.05 2052.929,1279.54 2054.08,1280.04L2070.08,1287.11C2071.22,1287.61 2071.74,1288.94 2071.24,1290.08C2070.86,1290.92 2070.04,1291.43 2069.169,1291.43Z" style="fill-rule:nonzero;"/>
        </g>
        <g transform="matrix(1.18306,0,0,1.18306,-517.462215,-228.824532)">
            <path d="M2106.46,1307.9C2106.15,1307.9 2105.85,1307.83 2105.55,1307.71L2089.54,1300.63C2088.399,1300.13 2087.889,1298.8 2088.389,1297.66C2088.889,1296.52 2090.22,1296.01 2091.36,1296.51L2107.37,1303.58C2108.51,1304.08 2109.03,1305.41 2108.52,1306.55C2108.15,1307.39 2107.33,1307.9 2106.46,1307.9Z" style="fill-rule:nonzero;"/>
        </g>
        <g transform="matrix(1.18306,0,0,1.18306,-517.462215,-228.824532)">
            <path d="M1830.42,745.59C1836.29,738.395 1902.68,654.2 1871.33,551.078C1849.33,478.681 1785.23,416.954 1706.61,408.649C1693.35,407.248 1609.7,398.412 1560.25,462.417C1526.95,505.523 1519.45,568.337 1545.87,616.149C1577.27,672.971 1643.62,685.173 1653.47,686.829C1722.46,698.423 1763.7,656.412 1800.14,680.432C1822.45,695.129 1828.5,725.026 1830.42,745.59Z" style="fill-rule:nonzero;"/>
        </g>
        <g transform="matrix(1.18306,0,0,1.18306,-517.462215,-228.824532)">
            <path d="M1693.44,527.516C1713.67,498.038 1739.93,485.836 1754.17,493.182C1770.48,501.592 1767.8,533.971 1767.33,538.834C1763.06,582.639 1721.56,608.249 1712.99,613.307C1707.11,611.689 1637.88,591.675 1629.16,542.269C1626.54,527.424 1628.03,502.293 1641.82,496.038C1654.8,490.149 1677.43,501.558 1693.44,527.516Z" style="fill:white;fill-rule:nonzero;"/>
        </g>
        <g transform="matrix(1.18306,0,0,1.18306,-517.462215,-228.824532)">
            <path d="M1486.8,1607.1L1151.69,1718.57C1151.69,1718.57 1153.42,1742.62 1156.69,1783.81L1105.4,1774.03C1105.4,1774.03 1069.2,1993.5 1073.71,2140.12C1075.07,2184.58 1546.05,2156.26 1565.45,2097.26L1486.8,1607.1Z" style="fill-rule:nonzero;"/>
        </g>
        <g transform="matrix(1.18306,0,0,1.18306,-517.462215,-228.824532)">
            <path d="M1813.6,973.19C1810.95,972.675 1809.05,970.357 1809.11,967.659C1809.41,953.638 1812.33,911.596 1835.91,892.295C1864.46,868.938 1888.69,815.303 1905.99,820.493C1923.29,825.684 1885.22,872.398 1889.55,877.588C1893.88,882.779 1924.15,853.366 1933.67,836.064C1943.19,818.763 1954.7,784.901 1968.52,786.053C1987.48,787.632 1991.63,816.167 1966.54,872.398C1942.67,925.907 1862.39,940.248 1856.17,975.802C1855.64,978.825 1852.7,980.793 1849.69,980.208L1813.6,973.19Z" style="fill:white;fill-rule:nonzero;"/>
        </g>
        <g transform="matrix(1.18306,0,0,1.18306,-517.462215,-228.824532)">
            <path d="M1814.03,970.977L1850.12,977.993C1851,978.167 1851.88,977.98 1852.62,977.473C1853.33,976.984 1853.8,976.253 1853.95,975.414C1857.08,957.531 1876.96,945.292 1899.97,931.121C1924.46,916.038 1952.23,898.944 1964.48,871.479C1980.75,835.021 1985.88,807.01 1978.55,794.625C1976.3,790.806 1972.86,788.678 1968.33,788.299C1959.35,787.587 1950.15,807.045 1942.78,822.705C1940.28,828.005 1937.92,833.01 1935.65,837.149C1927.24,852.439 1900.83,879.535 1891.61,880.422C1889.49,880.636 1888.32,879.64 1887.82,879.034C1885.31,876.027 1888.33,870.285 1895.41,857.579C1901.7,846.273 1910.31,830.79 1907.87,824.77C1907.44,823.714 1906.63,823.042 1905.34,822.655C1896.89,820.104 1884.48,836.85 1871.37,854.579C1861.17,868.371 1849.61,884.004 1837.34,894.042C1814.3,912.89 1811.63,955.191 1811.36,967.708C1811.33,969.294 1812.45,970.671 1814.03,970.977ZM1850.77,982.568C1850.27,982.568 1849.76,982.52 1849.25,982.421L1813.17,975.405C1809.43,974.678 1806.77,971.4 1806.85,967.611C1807.21,950.944 1810.62,910.073 1834.49,890.549C1846.32,880.87 1857.7,865.476 1867.74,851.896C1883.04,831.215 1895.12,814.876 1906.63,818.333C1909.23,819.112 1911.1,820.751 1912.05,823.073C1915.31,831.096 1906.83,846.331 1899.35,859.772C1896.14,865.535 1891.84,873.27 1891.47,875.939C1897.3,875.234 1922.64,851.446 1931.69,834.978C1933.9,830.959 1936.23,826.016 1938.7,820.782C1946.88,803.408 1956.13,783.768 1967.84,783.768C1968.13,783.768 1968.42,783.779 1968.71,783.805C1974.69,784.303 1979.43,787.25 1982.44,792.33C1990.63,806.19 1985.72,834.951 1968.6,873.316C1955.78,902.054 1927.39,919.538 1902.34,934.96C1880.25,948.563 1861.17,960.309 1858.39,976.191C1858.03,978.233 1856.89,980.009 1855.17,981.189C1853.86,982.097 1852.33,982.568 1850.77,982.568Z" style="fill-rule:nonzero;"/>
        </g>
        <g transform="matrix(1.18306,0,0,1.18306,-517.462215,-228.824532)">
            <path d="M1854.87,968.077L1814.7,960.043C1805.83,958.271 1797.15,963.781 1794.99,972.559C1782.33,1024.02 1740.4,1185.04 1708.32,1198.12C1670.08,1213.69 1638.93,1174.04 1573.8,1141.47C1539.04,1124.1 1485.95,1117.6 1443.98,1115.33C1407.28,1113.34 1370.51,1116.51 1334.66,1124.6L1220.26,1150.44C1206.34,1152.83 1159.58,1161.7 1108.58,1189.78C1111.78,1195.05 1114.76,1200.42 1117.56,1205.76C1157.62,1282.26 1104.86,1408.07 1096.57,1494.13C1136.12,1551.79 1200.39,1575.2 1175.24,1614.14C1124.52,1692.64 1109.07,1740.89 1107.51,1811.26C1173.08,1763.09 1272.41,1702.54 1404.14,1663.43C1472,1643.28 1501.36,1630.93 1549.56,1625.65C1555.77,1624.96 1560.25,1619.37 1559.5,1613.17C1554.58,1572.56 1553.36,1444.24 1546.28,1386.71C1543.32,1362.68 1547.26,1329.39 1531.31,1285.91C1605.02,1353.77 1701.96,1383.75 1774.87,1353.88C1881.88,1310.04 1946.52,1133.45 1854.87,968.077Z" style="fill:white;fill-rule:nonzero;"/>
        </g>
        <g transform="matrix(1.18306,0,0,1.18306,-517.462215,-228.824532)">
            <path d="M1098.9,1493.53C1113.2,1514.19 1130.64,1530.36 1146.05,1544.64C1172.88,1569.5 1194.07,1589.15 1177.13,1615.37C1128.79,1690.19 1112.08,1737.39 1109.88,1806.73C1199.69,1741.39 1298.45,1692.46 1403.5,1661.26C1420.17,1656.32 1434.63,1651.8 1447.4,1647.82C1486.75,1635.53 1512.74,1627.41 1549.31,1623.4C1551.73,1623.14 1553.89,1621.95 1555.39,1620.04C1556.89,1618.16 1557.55,1615.82 1557.26,1613.44C1555.02,1594.92 1553.52,1557.84 1551.94,1518.59C1550.04,1471.59 1547.9,1418.32 1544.04,1386.99C1543.23,1380.36 1542.92,1372.96 1542.61,1365.13C1541.75,1344.14 1540.68,1318.01 1529.2,1286.69C1528.84,1285.71 1529.19,1284.61 1530.06,1284.04C1530.92,1283.46 1532.07,1283.55 1532.84,1284.25C1607.62,1353.11 1704.55,1380.25 1774.02,1351.79C1820.8,1332.62 1859.54,1287.76 1880.29,1228.72C1908.9,1147.3 1899.1,1053.09 1853.4,970.085L1814.25,962.254C1806.56,960.723 1799.05,965.479 1797.18,973.099C1781.46,1037.01 1741.41,1187.07 1709.17,1200.2C1682.34,1211.14 1659.11,1196.14 1626.97,1175.39C1611.49,1165.4 1593.96,1154.08 1572.79,1143.49C1537.72,1125.96 1483.32,1119.72 1443.86,1117.58C1407.53,1115.62 1370.96,1118.72 1335.16,1126.8L1220.75,1152.64C1199.27,1156.33 1156.97,1166.12 1111.73,1190.63C1114.31,1194.97 1116.88,1199.6 1119.56,1204.71C1147.85,1258.74 1130.27,1337.94 1114.76,1407.81C1107.92,1438.63 1101.45,1467.76 1098.9,1493.53ZM1107.51,1813.52C1107.15,1813.52 1106.79,1813.43 1106.47,1813.26C1105.7,1812.87 1105.23,1812.07 1105.25,1811.21C1106.87,1738.38 1123.42,1690.19 1173.34,1612.92C1188.23,1589.88 1169.25,1572.29 1142.98,1547.95C1127.23,1533.35 1109.38,1516.8 1094.71,1495.41C1094.41,1494.97 1094.27,1494.44 1094.32,1493.92C1096.85,1467.67 1103.41,1438.12 1110.35,1406.84C1125.7,1337.71 1143.09,1259.37 1115.56,1206.8C1112.51,1200.98 1109.6,1195.79 1106.66,1190.95C1106.34,1190.43 1106.25,1189.8 1106.4,1189.2C1106.56,1188.61 1106.96,1188.1 1107.5,1187.81C1154.09,1162.15 1197.9,1151.99 1219.88,1148.22L1334.16,1122.4C1370.38,1114.22 1407.36,1111.08 1444.1,1113.07C1483.99,1115.24 1539.04,1121.58 1574.8,1139.45C1596.2,1150.15 1613.84,1161.54 1629.41,1171.6C1661.57,1192.36 1682.82,1206.07 1707.47,1196.03C1732.24,1185.94 1767.79,1073.7 1792.8,972.019C1795.25,962.051 1805.05,955.815 1815.14,957.831L1855.32,965.867C1855.96,965.997 1856.52,966.406 1856.85,966.985C1903.59,1051.34 1913.69,1147.28 1884.55,1230.21C1863.37,1290.47 1823.7,1336.31 1775.73,1355.97C1739.97,1370.61 1697.45,1371.57 1652.77,1358.71C1611.79,1346.93 1571.68,1324.41 1536.27,1293.39C1545.35,1321.71 1546.32,1345.5 1547.11,1364.94C1547.43,1372.68 1547.73,1379.99 1548.52,1386.43C1552.4,1417.95 1554.55,1471.32 1556.45,1518.41C1558.03,1557.57 1559.52,1594.56 1561.74,1612.9C1562.17,1616.48 1561.18,1620.02 1558.93,1622.85C1556.67,1625.7 1553.43,1627.49 1549.8,1627.89C1513.67,1631.85 1487.84,1639.92 1448.74,1652.12C1435.96,1656.11 1421.48,1660.63 1404.78,1665.59C1298.78,1697.06 1199.22,1746.68 1108.84,1813.08C1108.45,1813.37 1107.98,1813.52 1107.51,1813.52Z" style="fill-rule:nonzero;"/>
        </g>
        <g transform="matrix(1.18306,0,0,1.18306,-517.462215,-228.824532)">
            <path d="M1396.11,1633.93C1395.78,1633.93 1395.44,1633.86 1395.12,1633.7C1394,1633.15 1393.54,1631.8 1394.09,1630.68L1492.27,1430.55C1492.82,1429.43 1494.17,1428.97 1495.29,1429.52C1496.41,1430.07 1496.87,1431.42 1496.32,1432.54L1398.14,1632.67C1397.75,1633.47 1396.95,1633.93 1396.11,1633.93Z" style="fill-rule:nonzero;"/>
        </g>
        <g transform="matrix(1.18306,0,0,1.18306,-517.462215,-228.824532)">
            <path d="M1482.02,1567.85C1481.73,1567.85 1481.44,1567.8 1481.16,1567.68C1480.01,1567.21 1479.46,1565.89 1479.94,1564.73L1506.84,1499.6C1507.32,1498.44 1508.64,1497.9 1509.79,1498.37C1510.94,1498.85 1511.49,1500.17 1511.01,1501.32L1484.1,1566.46C1483.74,1567.33 1482.91,1567.85 1482.02,1567.85Z" style="fill-rule:nonzero;"/>
        </g>
        <g transform="matrix(1.18306,0,0,1.18306,-517.462215,-228.824532)">
            <path d="M966.693,1461.18L868.6,1901.96C863.13,1926.54 873.943,1951.82 895.39,1965C1011.88,2036.59 1148.57,2030 1218.3,2020.08C1244.99,2016.29 1265.34,1994.29 1267,1967.38L1296.23,1494.13L966.693,1461.18Z" style="fill:white;fill-rule:nonzero;"/>
        </g>
        <g transform="matrix(1.18306,0,0,1.18306,-517.462215,-228.824532)">
            <path d="M968.459,1463.62L870.801,1902.46C865.557,1926.02 875.913,1950.38 896.57,1963.08C1012.09,2034.07 1147.53,2027.87 1217.98,2017.85C1243.49,2014.23 1263.16,1992.94 1264.75,1967.24L1293.85,1496.16L968.459,1463.62ZM1132.83,2028.4C1061.96,2028.4 973.502,2015.65 894.208,1966.92C871.912,1953.22 860.735,1926.92 866.397,1901.48L964.491,1460.69C964.738,1459.57 965.771,1458.83 966.917,1458.94L1296.46,1491.89C1297.67,1492.01 1298.56,1493.06 1298.49,1494.27L1269.25,1967.52C1267.53,1995.35 1246.24,2018.39 1218.62,2022.32C1195.83,2025.56 1166.28,2028.4 1132.83,2028.4Z" style="fill-rule:nonzero;"/>
        </g>
        <g transform="matrix(1.18306,0,0,1.18306,-517.462215,-228.824532)">
            <path d="M992.738,1872.28C992.738,1872.28 894.114,1706.15 1143.84,1632.31C1143.84,1632.31 1285.24,1850.26 1037.569,1890.74C1076.85,1853.74 1095.28,1787.02 1102.55,1704.39C1084.73,1782.1 1056.78,1848.08 992.738,1872.28Z" style="fill-rule:nonzero;"/>
        </g>
        <g transform="matrix(1.18306,0,0,1.18306,-517.462215,-228.824532)">
            <path d="M1108.58,1189.78C1108.58,1189.78 718.651,1372.2 829.062,1593C915.375,1765.6 1133.4,1558.1 1133.4,1558.1L1084.37,1472.95C1084.37,1472.95 991.029,1544.73 982.201,1507.7C973.532,1471.35 1017.09,1426.45 1139.27,1449.76L1166.18,1480.67C1166.18,1480.67 1257.3,1339.67 1108.58,1189.78Z" style="fill:white;fill-rule:nonzero;"/>
        </g>
        <g transform="matrix(1.18306,0,0,1.18306,-517.462215,-228.824532)">
            <path d="M1108.11,1192.51C1088.33,1202.08 872.12,1309.54 822.063,1453.45C805.66,1500.61 808.694,1547.22 831.08,1591.99C849.909,1629.65 876.662,1651.75 910.595,1657.69C917.018,1658.81 923.586,1659.33 930.216,1659.33C1017.17,1659.35 1117.99,1569.23 1130.55,1557.67L1083.69,1476.29C1071.74,1485.24 1013.11,1527.82 989.562,1519.45C984.576,1517.68 981.361,1513.91 980.006,1508.23C976.59,1493.9 980.847,1479.58 991.993,1467.91C1016.92,1441.82 1070.76,1434.39 1139.69,1447.54C1140.19,1447.64 1140.64,1447.9 1140.97,1448.28L1165.83,1476.84C1171,1467.77 1187.5,1435.71 1190.92,1391.04C1194.63,1342.55 1183.23,1268.84 1108.11,1192.51ZM930.602,1663.88C923.589,1663.88 916.647,1663.32 909.817,1662.13C874.398,1655.93 846.55,1633.01 827.044,1594C804.092,1548.11 800.984,1500.32 817.804,1451.96C845.447,1372.5 922.829,1304.87 982.877,1262.13C1047.81,1215.91 1107.04,1188.02 1107.63,1187.74C1108.49,1187.34 1109.52,1187.52 1110.19,1188.19C1187.61,1266.23 1199.26,1341.89 1195.4,1391.61C1191.21,1445.54 1168.3,1481.54 1168.07,1481.9C1167.69,1482.49 1167.05,1482.87 1166.34,1482.92C1165.62,1482.99 1164.94,1482.69 1164.48,1482.15L1138.08,1451.83C1042.93,1433.85 1006.51,1459.25 995.256,1471.03C985.202,1481.55 981.345,1494.39 984.395,1507.18C985.386,1511.33 987.569,1513.96 991.068,1515.2C1010.53,1522.08 1064.03,1485.75 1083,1471.16C1083.51,1470.76 1084.17,1470.61 1084.81,1470.74C1085.45,1470.86 1086,1471.26 1086.33,1471.82L1135.36,1556.98C1135.88,1557.88 1135.71,1559.02 1134.96,1559.74C1130.17,1564.29 1024.37,1663.88 930.602,1663.88Z" style="fill-rule:nonzero;"/>
        </g>
        <g transform="matrix(1.18306,0,0,1.18306,-517.462215,-228.824532)">
            <path d="M1108.58,1189.78L1139.69,1174.61C1139.69,1174.61 1246.48,1286.07 1218.05,1494.13L1162.31,1494.13C1162.31,1494.13 1218.81,1331.28 1108.58,1189.78Z" style="fill:white;fill-rule:nonzero;"/>
        </g>
        <g transform="matrix(1.18306,0,0,1.18306,-517.462215,-228.824532)">
            <path d="M1165.4,1491.88L1216.08,1491.88C1230.15,1385.99 1208.37,1306 1187.55,1257.44C1167.46,1210.62 1144.41,1183.27 1139.16,1177.38L1112.06,1190.59C1167.93,1263.58 1179.35,1341.92 1179.04,1395.03C1178.75,1444.22 1168.59,1481.38 1165.4,1491.88ZM1218.05,1496.39L1162.31,1496.39C1161.58,1496.39 1160.9,1496.04 1160.48,1495.44C1160.05,1494.85 1159.94,1494.08 1160.18,1493.39C1160.32,1492.99 1174.22,1452.24 1174.53,1394.84C1174.82,1341.96 1163.3,1263.7 1106.8,1191.17C1106.39,1190.63 1106.23,1189.94 1106.39,1189.27C1106.54,1188.61 1106.98,1188.05 1107.59,1187.76L1138.7,1172.58C1139.58,1172.15 1140.64,1172.34 1141.32,1173.05C1141.59,1173.33 1168.56,1201.83 1191.6,1255.46C1212.83,1304.87 1235.04,1386.45 1220.28,1494.44C1220.13,1495.56 1219.18,1496.39 1218.05,1496.39Z" style="fill-rule:nonzero;"/>
        </g>
        <g transform="matrix(1.18306,0,0,1.18306,-517.462215,-228.824532)">
            <path d="M1096.57,1494.13L1150.85,1435.98L1253.59,1425.69C1253.59,1425.69 1274.26,1476.69 1218.05,1494.13C1161.83,1511.58 1125,1531.61 1125,1531.61L1096.57,1494.13Z" style="fill:white;fill-rule:nonzero;"/>
        </g>
        <g transform="matrix(1.18306,0,0,1.18306,-517.462215,-228.824532)">
            <path d="M1099.52,1494.28L1125.64,1528.72C1133.58,1524.6 1168.33,1507.2 1217.38,1491.98C1233.98,1486.83 1245.26,1478.18 1250.89,1466.29C1258.38,1450.48 1253.76,1433.31 1252.05,1428.11L1151.92,1438.14L1099.52,1494.28ZM1125,1533.87C1124.32,1533.87 1123.64,1533.55 1123.2,1532.97L1094.77,1495.5C1094.11,1494.62 1094.17,1493.4 1094.92,1492.59L1149.2,1434.44C1149.57,1434.04 1150.08,1433.79 1150.62,1433.73L1253.36,1423.45C1254.36,1423.36 1255.3,1423.92 1255.68,1424.84C1256.05,1425.76 1264.71,1447.65 1254.97,1468.22C1248.78,1481.3 1236.58,1490.74 1218.72,1496.29C1163.35,1513.47 1126.45,1533.39 1126.08,1533.59C1125.74,1533.78 1125.37,1533.87 1125,1533.87Z" style="fill-rule:nonzero;"/>
        </g>
        <g transform="matrix(1.18306,0,0,1.18306,-517.462215,-228.824532)">
            <path d="M1326.4,1058.97C1326.4,1058.97 1313.8,1072.84 1287.48,1067.97L1326.4,1058.97Z" style="fill:white;fill-rule:nonzero;"/>
        </g>
        <g transform="matrix(1.18306,0,0,1.18306,-517.462215,-228.824532)">
            <path d="M1298.44,1071.27C1294.96,1071.27 1291.18,1070.95 1287.07,1070.19C1285.84,1069.97 1285.03,1068.79 1285.26,1067.57C1285.48,1066.34 1286.66,1065.52 1287.89,1065.76C1312.69,1070.34 1324.62,1057.58 1324.73,1057.45C1325.58,1056.53 1327,1056.47 1327.92,1057.3C1328.84,1058.14 1328.91,1059.57 1328.07,1060.49C1327.61,1061 1318.01,1071.27 1298.44,1071.27Z" style="fill-rule:nonzero;"/>
        </g>
        <g transform="matrix(1.18306,0,0,1.18306,-517.462215,-228.824532)">
            <path d="M1367.12,868.682C1367.12,992.003 1285.13,1132.73 1161.81,1132.73C1038.49,1132.73 912.97,1026.48 912.97,903.16C912.97,779.839 1016.72,661.073 1140.04,661.073C1263.37,661.073 1367.12,745.361 1367.12,868.682Z" style="fill-rule:nonzero;"/>
        </g>
        <g transform="matrix(1.18306,0,0,1.18306,-517.462215,-228.824532)">
            <path d="M964.209,971.79C964.209,985.939 952.738,997.41 938.589,997.41C924.44,997.41 912.97,985.939 912.97,971.79C912.97,957.641 924.44,946.171 938.589,946.171C952.738,946.171 964.209,957.641 964.209,971.79Z" style="fill-rule:nonzero;"/>
        </g>
        <g transform="matrix(1.18306,0,0,1.18306,-517.462215,-228.824532)">
            <path d="M938.589,1020.56C938.589,1042.06 956.013,1059.48 977.507,1059.48C999.001,1059.48 1016.43,1042.06 1016.43,1020.56C1016.43,999.068 999.001,981.644 977.507,981.644C956.013,981.644 938.589,999.068 938.589,1020.56Z" style="fill-rule:nonzero;"/>
        </g>
        <g transform="matrix(1.18306,0,0,1.18306,-517.462215,-228.824532)">
            <path d="M993.299,1028.15C975.085,1046.36 975.085,1075.9 993.299,1094.11C1011.51,1112.32 1041.04,1112.32 1059.26,1094.11C1077.47,1075.9 1077.47,1046.36 1059.26,1028.15C1041.04,1009.94 1011.51,1009.94 993.299,1028.15Z" style="fill-rule:nonzero;"/>
        </g>
        <g transform="matrix(1.18306,0,0,1.18306,-517.462215,-228.824532)">
            <path d="M1044.579,1087.12C1044.579,1116.35 1068.28,1140.05 1097.51,1140.05C1126.74,1140.05 1150.43,1116.35 1150.43,1087.12C1150.43,1057.89 1126.74,1034.2 1097.51,1034.2C1068.28,1034.2 1044.579,1057.89 1044.579,1087.12Z" style="fill-rule:nonzero;"/>
        </g>
        <g transform="matrix(1.18306,0,0,1.18306,-517.462215,-228.824532)">
            <path d="M1114.64,1093.13C1117.95,1125.21 1146.65,1148.53 1178.73,1145.21C1210.81,1141.9 1234.13,1113.2 1230.81,1081.12C1227.5,1049.04 1198.8,1025.72 1166.72,1029.04C1134.64,1032.35 1111.32,1061.05 1114.64,1093.13Z" style="fill-rule:nonzero;"/>
        </g>
        <g transform="matrix(1.18306,0,0,1.18306,-517.462215,-228.824532)">
            <path d="M985.551,883.436C985.551,909.739 964.228,931.062 937.925,931.062C911.622,931.062 890.299,909.739 890.299,883.436C890.299,857.133 911.622,835.81 937.925,835.81C964.228,835.81 985.551,857.133 985.551,883.436Z" style="fill-rule:nonzero;"/>
        </g>
        <g transform="matrix(1.18306,0,0,1.18306,-517.462215,-228.824532)">
            <path d="M1001.27,863.679C981.074,883.88 948.321,883.88 928.12,863.679C907.919,843.479 907.919,810.726 928.12,790.525C948.321,770.324 981.074,770.324 1001.27,790.525C1021.48,810.726 1021.48,843.479 1001.27,863.679Z" style="fill-rule:nonzero;"/>
        </g>
        <g transform="matrix(1.18306,0,0,1.18306,-517.462215,-228.824532)">
            <path d="M967.486,935.408C967.486,951.734 954.251,964.969 937.925,964.969C921.599,964.969 908.364,951.734 908.364,935.408C908.364,919.082 921.599,905.847 937.925,905.847C954.251,905.847 967.486,919.082 967.486,935.408Z" style="fill-rule:nonzero;"/>
        </g>
        <g transform="matrix(1.18306,0,0,1.18306,-517.462215,-228.824532)">
            <path d="M1380.35,875.882C1380.35,898.013 1362.41,915.953 1340.28,915.953C1318.15,915.953 1300.21,898.013 1300.21,875.882C1300.21,853.75 1318.15,835.81 1340.28,835.81C1362.41,835.81 1380.35,853.75 1380.35,875.882Z" style="fill-rule:nonzero;"/>
        </g>
        <g transform="matrix(1.18306,0,0,1.18306,-517.462215,-228.824532)">
            <path d="M1385.09,824.386C1385.09,847.826 1366.09,866.828 1342.65,866.828C1319.21,866.828 1300.21,847.826 1300.21,824.386C1300.21,800.945 1319.21,781.943 1342.65,781.943C1366.09,781.943 1385.09,800.945 1385.09,824.386Z" style="fill-rule:nonzero;"/>
        </g>
        <g transform="matrix(1.18306,0,0,1.18306,-517.462215,-228.824532)">
            <path d="M1358.02,773.685C1358.02,798.486 1337.91,818.592 1313.11,818.592C1288.31,818.592 1268.2,798.486 1268.2,773.685C1268.2,748.884 1288.31,728.779 1313.11,728.779C1337.91,728.779 1358.02,748.884 1358.02,773.685Z" style="fill-rule:nonzero;"/>
        </g>
        <g transform="matrix(1.18306,0,0,1.18306,-517.462215,-228.824532)">
            <path d="M1239.16,718.744C1239.16,741.987 1258.01,760.829 1281.25,760.829C1304.49,760.829 1323.33,741.987 1323.33,718.744C1323.33,695.5 1304.49,676.658 1281.25,676.658C1258.01,676.658 1239.16,695.5 1239.16,718.744Z" style="fill-rule:nonzero;"/>
        </g>
        <g transform="matrix(1.18306,0,0,1.18306,-517.462215,-228.824532)">
            <path d="M1256.72,689.908C1256.72,705.833 1243.81,718.744 1227.88,718.744C1211.96,718.744 1199.05,705.833 1199.05,689.908C1199.05,673.982 1211.96,661.073 1227.88,661.073C1243.81,661.073 1256.72,673.982 1256.72,689.908Z" style="fill-rule:nonzero;"/>
        </g>
        <g transform="matrix(1.18306,0,0,1.18306,-517.462215,-228.824532)">
            <path d="M1212.87,680.408C1212.87,700.519 1196.57,716.822 1176.46,716.822C1156.35,716.822 1140.04,700.519 1140.04,680.408C1140.04,660.296 1156.35,643.993 1176.46,643.993C1196.57,643.993 1212.87,660.296 1212.87,680.408Z" style="fill-rule:nonzero;"/>
        </g>
        <g transform="matrix(1.18306,0,0,1.18306,-517.462215,-228.824532)">
            <path d="M1167.51,702.458C1167.51,729.667 1145.46,751.726 1118.25,751.726C1091.04,751.726 1068.98,729.667 1068.98,702.458C1068.98,675.248 1091.04,653.189 1118.25,653.189C1145.46,653.189 1167.51,675.248 1167.51,702.458Z" style="fill-rule:nonzero;"/>
        </g>
        <g transform="matrix(1.18306,0,0,1.18306,-517.462215,-228.824532)">
            <path d="M1060.44,661.073C1084.75,661.073 1104.45,680.778 1104.45,705.085C1104.45,729.393 1084.75,749.098 1060.44,749.098C1036.13,749.098 1016.43,729.393 1016.43,705.085C1016.43,680.778 1036.13,661.073 1060.44,661.073Z" style="fill-rule:nonzero;"/>
        </g>
        <g transform="matrix(1.18306,0,0,1.18306,-517.462215,-228.824532)">
            <path d="M1016.43,680.908C1042.86,680.908 1064.3,702.341 1064.3,728.779C1064.3,755.217 1042.86,776.649 1016.43,776.649C989.987,776.649 968.555,755.217 968.555,728.779C968.555,702.341 989.987,680.908 1016.43,680.908Z" style="fill-rule:nonzero;"/>
        </g>
        <g transform="matrix(1.18306,0,0,1.18306,-517.462215,-228.824532)">
            <path d="M985.551,767.163C985.551,785.122 970.992,799.68 953.034,799.68C935.075,799.68 920.517,785.122 920.517,767.163C920.517,749.204 935.075,734.646 953.034,734.646C970.992,734.646 985.551,749.204 985.551,767.163Z" style="fill-rule:nonzero;"/>
        </g>
        <g transform="matrix(1.18306,0,0,1.18306,-517.462215,-228.824532)">
            <path d="M1298.18,872.609C1307.62,877.8 1312.71,878.807 1320.56,883.96C1336.52,894.44 1355.6,930.727 1379.79,934.363C1384.61,946.488 1374.83,949.854 1372.34,957.602C1376.34,963.251 1386.48,991.199 1394.76,1007.9C1397.66,1013.75 1395.77,1020.9 1390.28,1024.44C1381.04,1030.4 1370.27,1035.19 1357.82,1038.52C1357.82,1038.52 1308.2,1144.68 1383.63,1182.79L1223.7,1169.01L1266.68,1028.55C1264.62,1028.21 1237.54,1023.33 1230.9,1002.96C1228.46,995.482 1227.81,982.959 1234.23,979.045C1240.49,975.225 1253.07,979.85 1262.94,992.938C1263.85,989.2 1264.38,984.536 1264.81,979.189C1265.4,971.861 1265.3,963.624 1262.55,959.989C1322.26,930.945 1254.02,880.531 1298.18,872.609Z" style="fill:white;fill-rule:nonzero;"/>
        </g>
        <g transform="matrix(1.18306,0,0,1.18306,-517.462215,-228.824532)">
            <path d="M1226.67,1167L1373.77,1179.68C1310.1,1137.46 1355.29,1038.6 1355.77,1037.56C1356.05,1036.96 1356.59,1036.51 1357.24,1036.34C1369.06,1033.18 1379.76,1028.54 1389.06,1022.54C1393.57,1019.63 1395.16,1013.77 1392.74,1008.9C1388.78,1000.91 1384.38,990.333 1380.5,981C1376.36,971.059 1372.46,961.67 1370.5,958.903C1370.09,958.326 1369.98,957.588 1370.19,956.912C1371.15,953.947 1372.94,951.656 1374.67,949.438C1377.7,945.565 1380.13,942.459 1378.12,936.361C1362.52,933.286 1349.33,917.948 1337.67,904.372C1331.09,896.721 1324.88,889.496 1319.32,885.846C1315.04,883.033 1311.63,881.513 1307.69,879.752C1304.86,878.486 1301.67,877.063 1297.8,874.975C1291.92,876.136 1288.12,878.149 1286.2,881.118C1282.97,886.119 1284.94,893.987 1287.22,903.101C1291.6,920.552 1297.56,944.313 1265.66,960.95C1267.28,964.813 1267.74,970.884 1267.06,979.37C1266.68,983.97 1266.17,989.241 1265.13,993.475C1264.92,994.321 1264.25,994.973 1263.4,995.149C1262.54,995.321 1261.66,994.993 1261.14,994.299C1252.17,982.403 1240.59,977.81 1235.4,980.971C1230.34,984.062 1230.78,995.323 1233.04,1002.26C1239.32,1021.51 1265.92,1026.14 1267.05,1026.33C1267.7,1026.43 1268.26,1026.81 1268.6,1027.37C1268.94,1027.92 1269.03,1028.59 1268.84,1029.21L1226.67,1167ZM1383.63,1185.04C1383.56,1185.04 1383.5,1185.04 1383.43,1185.03L1223.51,1171.26C1222.83,1171.2 1222.21,1170.84 1221.83,1170.28C1221.45,1169.71 1221.34,1169 1221.54,1168.35L1263.8,1030.28C1256.1,1028.56 1234.79,1022.19 1228.75,1003.66C1226.24,995.951 1225.18,981.925 1233.05,977.121C1239.39,973.255 1251.31,976.378 1261.62,987.798C1262.05,984.917 1262.33,981.833 1262.56,979.009C1263.52,966.999 1261.84,962.792 1260.75,961.351C1260.34,960.813 1260.2,960.119 1260.35,959.463C1260.51,958.809 1260.96,958.255 1261.56,957.96C1292.55,942.889 1287.4,922.333 1282.85,904.198C1280.41,894.487 1278.11,885.315 1282.41,878.669C1285.13,874.466 1290.15,871.756 1297.78,870.388C1298.29,870.296 1298.81,870.382 1299.26,870.633C1303.29,872.844 1306.46,874.263 1309.53,875.633C1313.48,877.396 1317.21,879.063 1321.8,882.074C1327.89,886.072 1334.3,893.534 1341.09,901.431C1352.57,914.798 1365.59,929.947 1380.13,932.132C1380.92,932.253 1381.59,932.784 1381.89,933.531C1385.57,942.816 1381.5,948.03 1378.22,952.218C1376.9,953.916 1375.63,955.533 1374.85,957.335C1377.12,961.13 1380.49,969.243 1384.66,979.267C1388.52,988.536 1392.89,999.043 1396.78,1006.89C1400.22,1013.82 1397.95,1022.18 1391.5,1026.33C1382.09,1032.41 1371.3,1037.14 1359.44,1040.42C1354.85,1050.94 1315.77,1145.98 1384.65,1180.77C1385.61,1181.26 1386.09,1182.37 1385.8,1183.4C1385.52,1184.38 1384.63,1185.04 1383.63,1185.04Z" style="fill-rule:nonzero;"/>
        </g>
        <g transform="matrix(1.18306,0,0,1.18306,-517.462215,-228.824532)">
            <path d="M1304.47,1040.73C1304.47,1040.73 1328.55,1049.97 1355.81,1039.13L1304.47,1040.73Z" style="fill:white;fill-rule:nonzero;"/>
        </g>
        <g transform="matrix(1.18306,0,0,1.18306,-517.462215,-228.824532)">
            <path d="M1327.89,1046.69C1313.96,1046.69 1304.3,1043.08 1303.66,1042.83C1302.5,1042.38 1301.92,1041.08 1302.37,1039.92C1302.81,1038.76 1304.11,1038.17 1305.28,1038.62C1305.51,1038.71 1328.92,1047.4 1354.97,1037.04C1356.13,1036.58 1357.44,1037.14 1357.9,1038.3C1358.36,1039.46 1357.8,1040.77 1356.64,1041.23C1346.21,1045.38 1336.28,1046.69 1327.89,1046.69Z" style="fill-rule:nonzero;"/>
        </g>
        <g transform="matrix(1.18306,0,0,1.18306,-517.462215,-228.824532)">
            <path d="M1324.09,2124.33C1323.72,2124.33 1323.34,2124.24 1322.99,2124.04C1321.9,2123.44 1321.51,2122.06 1322.12,2120.97L1396.56,1987.89C1397.17,1986.8 1398.54,1986.41 1399.63,1987.02C1400.72,1987.63 1401.11,1989 1400.5,1990.09L1326.06,2123.18C1325.65,2123.92 1324.88,2124.33 1324.09,2124.33Z" style="fill:white;fill-rule:nonzero;"/>
        </g>
        <g transform="matrix(1.18306,0,0,1.18306,-517.462215,-228.824532)">
            <path d="M1990.6,1785.92C1991.57,1785.14 2006.58,1790.58 2008.83,1791C2015.11,1792.16 2021.49,1792.76 2027.87,1792.69C2039.43,1792.56 2051.139,1790.29 2061.53,1785.08C2071.2,1780.23 2075.3,1774.35 2081.07,1765.88C2088.36,1755.18 2096.929,1747.15 2101.69,1734.66C2106.73,1721.44 2105.99,1706.74 2111.25,1693.61C2116.07,1681.6 2127.74,1674.84 2135.75,1665.13C2144.37,1654.68 2148.65,1641.15 2149.8,1627.65C2151.07,1612.66 2150.72,1594.01 2142.98,1580.8C2136.68,1570.03 2121.51,1559.38 2125.22,1545.21C2126.74,1539.4 2131.5,1535.13 2135.32,1530.5C2145.71,1517.9 2146.62,1504.11 2147.7,1488.71C2148.73,1474.04 2144.62,1457.76 2133.41,1447.6C2104.21,1421.15 2041.13,1444.52 2042.29,1485.05C2042.71,1499.79 2036.17,1514.58 2024.98,1524.17C2020.23,1528.25 2014.69,1531.44 2010.47,1536.06C1998.96,1548.66 2004.92,1566.9 2012.39,1579.64C2019.73,1592.15 2029.85,1605.89 2025.04,1621.19C2020.11,1636.87 2006.14,1634.41 2001.44,1649.65C1993.72,1674.7 2027.89,1692.85 2029.08,1724.24C2029.66,1739.44 2022.59,1760.24 1990.6,1785.92Z" style="fill-rule:nonzero;"/>
        </g>
        <g transform="matrix(1.18306,0,0,1.18306,-517.462215,-228.824532)">
            <path d="M1982.76,1790.45C1981.68,1790.45 1980.73,1789.68 1980.54,1788.57C1980.33,1787.35 1981.16,1786.18 1982.39,1785.97C1995.68,1783.72 2008.05,1778.9 2019.16,1771.65C2035.11,1761.25 2046.66,1748.02 2053.49,1732.32C2060.59,1716 2060.169,1702.15 2059.47,1679.21C2058.99,1663.23 2057.23,1654.3 2055.52,1645.67C2053.83,1637.06 2052.23,1628.94 2051.879,1614.78C2051.59,1603.14 2051.06,1581.46 2058.61,1556.75C2066.169,1531.96 2080.899,1508.59 2101.19,1489.16C2102.08,1488.3 2103.51,1488.33 2104.38,1489.23C2105.24,1490.13 2105.21,1491.56 2104.31,1492.42C2084.58,1511.31 2070.27,1534.01 2062.919,1558.06C2055.59,1582.08 2056.11,1603.28 2056.389,1614.67C2056.73,1628.44 2058.29,1636.39 2059.95,1644.79C2061.69,1653.61 2063.49,1662.73 2063.99,1679.07C2064.7,1702.64 2065.129,1716.87 2057.629,1734.12C2050.44,1750.64 2038.32,1764.54 2021.62,1775.43C2009.99,1783.02 1997.05,1788.06 1983.14,1790.42C1983.01,1790.44 1982.89,1790.45 1982.76,1790.45Z" style="fill:white;fill-rule:nonzero;"/>
        </g>
        <g transform="matrix(1.18306,0,0,1.18306,-517.462215,-228.824532)">
            <path d="M1920.89,1764.9C1934.36,1766.1 1950.53,1754.68 1958.86,1745.11C1961.44,1742.16 1979.86,1721 1974.96,1700.16C1970.82,1682.57 1953.69,1680.67 1954.17,1668.8C1954.7,1655.82 1973.23,1651.19 1980.17,1642.28C1990.81,1628.62 1978.04,1615.81 1972.27,1603.38C1963.19,1583.78 1977.53,1572.37 1993.05,1562.48C2000.51,1557.73 2008.92,1551.89 2012.07,1543.19C2015.31,1534.21 2012.04,1525.33 2018.16,1516.57C2022.08,1510.96 2027.96,1506.75 2030.87,1500.57C2034.07,1493.77 2033.11,1485.84 2032.08,1478.39C2029.49,1459.66 2031.54,1431.53 2017.14,1417.78C2000.28,1401.68 1974.88,1408.3 1956.79,1418.7C1939.17,1428.84 1930.15,1450.44 1910.38,1457.36C1903,1459.95 1894.88,1459.96 1887.59,1462.79C1862.19,1472.63 1866.24,1504.42 1870.28,1525.72C1873.2,1541.07 1875.48,1558.29 1864.72,1571.25C1861.49,1575.15 1857.35,1578.42 1855.18,1583C1848.45,1597.23 1857.34,1611.61 1867.27,1621.64C1872.57,1627 1878.58,1631.67 1884.87,1635.79C1889.41,1638.76 1900.44,1642.73 1900.42,1649.22C1900.41,1651.97 1898.19,1654.18 1895.93,1655.75C1891.44,1658.86 1886.14,1660.82 1882.19,1664.59C1856.6,1688.95 1910.82,1719.41 1924.4,1732.58C1927.51,1735.6 1930.6,1738.99 1931.57,1743.21C1933.74,1752.62 1925.59,1758.34 1920.89,1764.9Z" style="fill-rule:nonzero;"/>
        </g>
        <g transform="matrix(1.18306,0,0,1.18306,-517.462215,-228.824532)">
            <path d="M1907.45,1776.82C1906.47,1776.82 1905.57,1776.18 1905.29,1775.19C1904.93,1774 1905.62,1772.75 1906.82,1772.39C1913.18,1770.53 1922.6,1766.11 1931.31,1755.63C1931.84,1754.99 1944.28,1739.8 1947.69,1718.31C1950.6,1699.93 1945.27,1687.33 1937.89,1669.9C1934.27,1661.36 1930.18,1651.67 1926.43,1639.75C1921.51,1624.13 1906.54,1576.6 1914.57,1534.94C1924.93,1481.12 1972.13,1450.57 1991.94,1439.94C1993.03,1439.35 1994.4,1439.76 1994.99,1440.86C1995.58,1441.96 1995.17,1443.33 1994.07,1443.91C1974.83,1454.24 1929,1483.87 1919,1535.8C1911.19,1576.33 1925.9,1623.05 1930.73,1638.39C1934.42,1650.11 1938.47,1659.69 1942.04,1668.14C1949.43,1685.58 1955.26,1699.36 1952.14,1719.02C1948.61,1741.33 1936.19,1756.82 1934.79,1758.51C1925.35,1769.87 1915.05,1774.68 1908.08,1776.73C1907.87,1776.79 1907.66,1776.82 1907.45,1776.82Z" style="fill:white;fill-rule:nonzero;"/>
        </g>
        <g transform="matrix(1.18306,0,0,1.18306,-517.462215,-228.824532)">
            <rect x="1903.95" y="1584.76" width="159.9" height="324.67" style="fill:white;fill-rule:nonzero;"/>
        </g>
        <g transform="matrix(1.18306,0,0,1.18306,-517.462215,-228.824532)">
            <path d="M1906.21,1907.17L2061.6,1907.17L2061.6,1587.01L1906.21,1587.01L1906.21,1907.17ZM2063.85,1911.68L1903.95,1911.68C1902.7,1911.68 1901.7,1910.67 1901.7,1909.43L1901.7,1584.76C1901.7,1583.51 1902.7,1582.5 1903.95,1582.5L2063.85,1582.5C2065.1,1582.5 2066.11,1583.51 2066.11,1584.76L2066.11,1909.43C2066.11,1910.67 2065.1,1911.68 2063.85,1911.68Z" style="fill-rule:nonzero;"/>
        </g>
        <g transform="matrix(1.18306,0,0,1.18306,-517.462215,-228.824532)">
            <path d="M2104.72,1900.51L2063.85,1910.24L2063.85,1584.76L2114.99,1575.83L2114.99,1887.51C2114.99,1893.7 2110.74,1899.08 2104.72,1900.51Z" style="fill:white;fill-rule:nonzero;"/>
        </g>
        <g transform="matrix(1.18306,0,0,1.18306,-517.462215,-228.824532)">
            <path d="M2104.72,1900.51L2104.74,1900.51L2104.72,1900.51ZM2066.11,1586.65L2066.11,1907.38L2104.2,1898.31C2109.22,1897.12 2112.73,1892.67 2112.73,1887.51L2112.73,1578.51L2066.11,1586.65ZM2063.85,1912.49C2063.35,1912.49 2062.86,1912.33 2062.45,1912.01C2061.909,1911.58 2061.6,1910.93 2061.6,1910.24L2061.6,1584.76C2061.6,1583.66 2062.389,1582.72 2063.46,1582.53L2114.6,1573.6C2115.25,1573.49 2115.93,1573.67 2116.44,1574.1C2116.95,1574.53 2117.24,1575.16 2117.24,1575.83L2117.24,1887.51C2117.24,1894.77 2112.31,1901.02 2105.24,1902.7L2064.37,1912.43C2064.2,1912.47 2064.03,1912.49 2063.85,1912.49Z" style="fill-rule:nonzero;"/>
        </g>
        <g transform="matrix(1.18306,0,0,1.18306,-517.462215,-228.824532)">
            <path d="M1903.44,1585.67L1950.22,1552.9L2060,1553.91L2063.85,1585.37L1903.44,1585.67Z" style="fill:white;fill-rule:nonzero;"/>
        </g>
        <g transform="matrix(1.18306,0,0,1.18306,-517.462215,-228.824532)">
            <path d="M1950.92,1555.16L1910.61,1583.4L2061.3,1583.11L2058,1556.15L1950.92,1555.16ZM1903.44,1587.93C1902.46,1587.93 1901.59,1587.29 1901.29,1586.35C1901,1585.41 1901.34,1584.39 1902.15,1583.82L1948.92,1551.05C1949.31,1550.78 1949.85,1550.64 1950.24,1550.64L2060.02,1551.66C2061.149,1551.67 2062.1,1552.51 2062.23,1553.64L2066.09,1585.09C2066.169,1585.73 2065.97,1586.38 2065.54,1586.86C2065.12,1587.34 2064.5,1587.62 2063.86,1587.62L1903.45,1587.93L1903.44,1587.93Z" style="fill-rule:nonzero;"/>
        </g>
        <g transform="matrix(1.18306,0,0,1.18306,-517.462215,-228.824532)">
            <path d="M2113.77,1575.83L2060,1553.91L2063.85,1585.37L2113.77,1575.83Z" style="fill:white;fill-rule:nonzero;"/>
        </g>
        <g transform="matrix(1.18306,0,0,1.18306,-517.462215,-228.824532)">
            <path d="M2062.7,1557.45L2065.8,1582.7L2105.86,1575.04L2062.7,1557.45ZM2063.85,1587.62C2063.379,1587.62 2062.909,1587.47 2062.52,1587.19C2062.02,1586.82 2061.69,1586.26 2061.61,1585.64L2057.76,1554.19C2057.659,1553.39 2057.99,1552.6 2058.62,1552.12C2059.26,1551.63 2060.11,1551.53 2060.85,1551.82L2114.62,1573.74C2115.54,1574.12 2116.11,1575.06 2116.01,1576.05C2115.91,1577.05 2115.17,1577.86 2114.19,1578.04L2064.28,1587.58C2064.129,1587.61 2063.99,1587.62 2063.85,1587.62Z" style="fill-rule:nonzero;"/>
        </g>
        <g transform="matrix(1.18306,0,0,1.18306,-517.462215,-228.824532)">
            <path d="M2060.61,1554.12L1949.82,1554.12L1949.82,1545.6C1949.82,1542.85 1952.05,1540.62 1954.8,1540.62L2056,1540.62C2058.55,1540.62 2060.61,1542.68 2060.61,1545.23L2060.61,1554.12Z" style="fill:white;fill-rule:nonzero;"/>
        </g>
        <g transform="matrix(1.18306,0,0,1.18306,-517.462215,-228.824532)">
            <path d="M1952.07,1551.86L2058.35,1551.86L2058.35,1545.23C2058.35,1543.93 2057.3,1542.88 2056,1542.88L1954.8,1542.88C1953.29,1542.88 1952.07,1544.1 1952.07,1545.6L1952.07,1551.86ZM2060.61,1556.37L1949.82,1556.37C1948.57,1556.37 1947.56,1555.36 1947.56,1554.12L1947.56,1545.6C1947.56,1541.61 1950.81,1538.36 1954.8,1538.36L2056,1538.36C2059.79,1538.36 2062.87,1541.44 2062.87,1545.23L2062.87,1554.12C2062.87,1555.36 2061.86,1556.37 2060.61,1556.37Z" style="fill-rule:nonzero;"/>
        </g>
        <g transform="matrix(1.18306,0,0,1.18306,-517.462215,-228.824532)">
            <path d="M1790.85,1618.79L1744.24,1561.94C1742.37,1559.66 1741.77,1556.47 1743,1553.78C1744.63,1550.22 1747.75,1548.23 1752.42,1547.9C1754.65,1547.74 1756.78,1548.91 1757.82,1550.89L1793.36,1618.43L1790.85,1618.79Z" style="fill-rule:nonzero;"/>
        </g>
        <g transform="matrix(1.18306,0,0,1.18306,-517.462215,-228.824532)">
            <path d="M1789.35,1618.93L1761.74,1550.8C1760.63,1548.05 1761.01,1544.84 1762.99,1542.64C1765.6,1539.72 1769.17,1538.75 1773.73,1539.82C1775.9,1540.33 1777.58,1542.08 1777.99,1544.28L1791.84,1619.33L1789.35,1618.93Z" style="fill-rule:nonzero;"/>
        </g>
        <g transform="matrix(1.18306,0,0,1.18306,-517.462215,-228.824532)">
            <path d="M1793.59,1617.38L1780.34,1545.07C1779.8,1542.16 1780.82,1539.09 1783.2,1537.33C1786.36,1535 1790.04,1534.77 1794.29,1536.74C1796.32,1537.68 1797.61,1539.74 1797.56,1541.97L1795.95,1618.27L1793.59,1617.38Z" style="fill-rule:nonzero;"/>
        </g>
        <g transform="matrix(1.18306,0,0,1.18306,-517.462215,-228.824532)">
            <path d="M1764.78,1611.17C1773.52,1601.51 1788.62,1593.12 1802.67,1591.16C1815.81,1589.32 1828.18,1597.9 1831.79,1610.67C1857.62,1702.03 1894.28,1819.76 1890.5,1839.03C1886.91,1843.55 1882.5,1845.44 1877.12,1844.3C1865.15,1839.44 1805.97,1717.96 1762.02,1634.11C1758.1,1626.62 1759.11,1617.43 1764.78,1611.17Z" style="fill:white;fill-rule:nonzero;"/>
        </g>
        <g transform="matrix(1.18306,0,0,1.18306,-517.462215,-228.824532)">
            <path d="M1877.81,1842.14C1881.98,1842.94 1885.36,1841.65 1888.38,1838.06C1890.64,1822.15 1868.44,1745.61 1846.96,1671.56C1841.12,1651.42 1835.08,1630.59 1829.62,1611.29C1826.27,1599.43 1814.8,1591.75 1802.98,1593.39C1789.92,1595.21 1775.25,1602.97 1766.45,1612.68C1761.49,1618.17 1760.51,1626.36 1764.02,1633.06C1774.74,1653.52 1786.56,1676.58 1797.99,1698.89C1829.74,1760.86 1869.2,1837.88 1877.81,1842.14ZM1880.13,1846.88C1879.01,1846.88 1877.85,1846.76 1876.65,1846.5C1876.52,1846.48 1876.4,1846.44 1876.27,1846.39C1867.1,1842.67 1839.06,1788.96 1793.97,1700.95C1782.55,1678.65 1770.74,1655.59 1760.03,1635.15C1755.64,1626.79 1756.88,1616.54 1763.11,1609.65C1772.56,1599.21 1788.33,1590.88 1802.36,1588.92C1816.41,1586.96 1830,1596.04 1833.96,1610.06C1839.41,1629.35 1845.45,1650.17 1851.29,1670.3C1874.18,1749.21 1895.8,1823.73 1892.71,1839.46C1892.64,1839.82 1892.49,1840.15 1892.27,1840.43C1888.86,1844.72 1884.79,1846.88 1880.13,1846.88Z" style="fill-rule:nonzero;"/>
        </g>
        <g transform="matrix(1.18306,0,0,1.18306,-517.462215,-228.824532)">
            <path d="M1807.24,1716.2C1806.71,1716.2 1806.19,1716.02 1805.76,1715.65C1804.82,1714.83 1804.72,1713.4 1805.54,1712.47C1809.33,1708.1 1815.46,1705.17 1824.81,1703.24C1826.02,1703 1827.22,1703.77 1827.47,1705C1827.72,1706.22 1826.94,1707.41 1825.72,1707.66C1817.39,1709.38 1812.06,1711.85 1808.94,1715.43C1808.5,1715.94 1807.87,1716.2 1807.24,1716.2Z" style="fill:white;fill-rule:nonzero;"/>
        </g>
        <g transform="matrix(1.18306,0,0,1.18306,-517.462215,-228.824532)">
            <path d="M1728.29,1614.99L1675.22,1564.12C1673.08,1562.07 1672.11,1558.98 1673.01,1556.17C1674.2,1552.43 1677.06,1550.09 1681.66,1549.2C1683.85,1548.77 1686.1,1549.68 1687.37,1551.52L1730.73,1614.33L1728.29,1614.99Z" style="fill-rule:nonzero;"/>
        </g>
        <g transform="matrix(1.18306,0,0,1.18306,-517.462215,-228.824532)">
            <path d="M1726.81,1615.3L1691.26,1550.96C1689.83,1548.37 1689.82,1545.13 1691.52,1542.71C1693.76,1539.5 1697.19,1538.11 1701.84,1538.63C1704.06,1538.87 1705.94,1540.41 1706.61,1542.55L1729.33,1615.4L1726.81,1615.3Z" style="fill-rule:nonzero;"/>
        </g>
        <g transform="matrix(1.18306,0,0,1.18306,-517.462215,-228.824532)">
            <path d="M1730.83,1613.26L1709.03,1543.05C1708.16,1540.23 1708.8,1537.05 1710.95,1535.02C1713.81,1532.33 1717.44,1531.67 1721.89,1533.11C1724.02,1533.8 1725.55,1535.69 1725.77,1537.92L1733.29,1613.86L1730.83,1613.26Z" style="fill-rule:nonzero;"/>
        </g>
        <g transform="matrix(1.18306,0,0,1.18306,-517.462215,-228.824532)">
            <path d="M1701.49,1610.53C1709.01,1599.91 1723,1589.77 1736.71,1586.14C1749.54,1582.75 1762.85,1589.79 1767.96,1602.04C1804.52,1689.65 1854.99,1802.16 1853.54,1821.74C1850.52,1826.65 1846.36,1829.06 1840.89,1828.57C1828.42,1825.17 1755.15,1711.64 1701.49,1633.64C1696.7,1626.68 1696.61,1617.43 1701.49,1610.53Z" style="fill:white;fill-rule:nonzero;"/>
        </g>
        <g transform="matrix(1.18306,0,0,1.18306,-517.462215,-228.824532)">
            <path d="M1841.31,1826.34C1845.58,1826.65 1848.75,1824.95 1851.32,1821.03C1851.67,1804.97 1820.47,1731.62 1790.29,1660.66C1782.09,1641.37 1773.6,1621.42 1765.87,1602.91C1761.13,1591.53 1748.83,1585.25 1737.29,1588.32C1724.54,1591.69 1710.9,1601.14 1703.33,1611.83C1699.06,1617.88 1699.06,1626.13 1703.35,1632.36C1716.44,1651.39 1730.94,1672.89 1744.95,1693.68C1783.88,1751.4 1832.26,1823.15 1841.31,1826.34ZM1842.28,1830.89C1841.76,1830.89 1841.23,1830.87 1840.69,1830.82C1840.55,1830.81 1840.42,1830.78 1840.29,1830.75C1830.75,1828.15 1796.49,1778.18 1741.21,1696.2C1727.2,1675.42 1712.71,1653.93 1699.63,1634.92C1694.28,1627.14 1694.29,1616.81 1699.65,1609.23C1707.78,1597.74 1722.44,1587.58 1736.14,1583.96C1749.85,1580.33 1764.43,1587.72 1770.04,1601.17C1777.76,1619.67 1786.24,1639.61 1794.44,1658.9C1826.6,1734.5 1856.97,1805.91 1855.79,1821.9C1855.76,1822.26 1855.65,1822.61 1855.46,1822.92C1852.21,1828.21 1847.78,1830.89 1842.28,1830.89Z" style="fill-rule:nonzero;"/>
        </g>
        <g transform="matrix(1.18306,0,0,1.18306,-517.462215,-228.824532)">
            <path d="M1710.05,1635.14C1709.62,1635.14 1709.18,1635.02 1708.79,1634.75C1707.76,1634.05 1707.49,1632.65 1708.19,1631.62C1711.44,1626.83 1717.17,1623.19 1726.22,1620.16C1727.4,1619.76 1728.68,1620.4 1729.07,1621.58C1729.47,1622.76 1728.83,1624.04 1727.65,1624.44C1719.58,1627.14 1714.59,1630.23 1711.92,1634.15C1711.48,1634.8 1710.78,1635.14 1710.05,1635.14Z" style="fill-rule:nonzero;"/>
        </g>
        <g transform="matrix(1.18306,0,0,1.18306,-517.462215,-228.824532)">
            <path d="M1762.31,1651.26C1761.88,1651.26 1761.44,1651.14 1761.05,1650.87C1760.02,1650.17 1759.75,1648.77 1760.45,1647.74C1763.7,1642.96 1769.43,1639.32 1778.48,1636.28C1779.66,1635.89 1780.94,1636.52 1781.33,1637.7C1781.73,1638.88 1781.09,1640.16 1779.91,1640.56C1771.85,1643.26 1766.85,1646.35 1764.18,1650.28C1763.74,1650.92 1763.04,1651.26 1762.31,1651.26Z" style="fill-rule:nonzero;"/>
        </g>
        <g transform="matrix(1.18306,0,0,1.18306,-517.462215,-228.824532)">
            <path d="M1805.43,1756.02C1804.99,1756.02 1804.55,1755.89 1804.17,1755.63C1803.14,1754.93 1802.87,1753.52 1803.57,1752.49C1806.82,1747.71 1812.54,1744.07 1821.59,1741.04C1822.77,1740.65 1824.05,1741.27 1824.45,1742.46C1824.85,1743.64 1824.21,1744.92 1823.03,1745.31C1814.96,1748.02 1809.96,1751.1 1807.3,1755.03C1806.86,1755.67 1806.15,1756.02 1805.43,1756.02Z" style="fill:white;fill-rule:nonzero;"/>
        </g>
        <g transform="matrix(1.18306,0,0,1.18306,-517.462215,-228.824532)">
            <path d="M1821.24,1805.72C1820.8,1805.72 1820.36,1805.59 1819.97,1805.33C1818.94,1804.63 1818.67,1803.23 1819.37,1802.19C1822.62,1797.41 1828.35,1793.77 1837.4,1790.74C1838.58,1790.35 1839.86,1790.98 1840.25,1792.16C1840.65,1793.34 1840.01,1794.62 1838.83,1795.01C1830.77,1797.72 1825.77,1800.8 1823.1,1804.73C1822.67,1805.37 1821.96,1805.72 1821.24,1805.72Z" style="fill:white;fill-rule:nonzero;"/>
        </g>
        <g transform="matrix(1.18306,0,0,1.18306,-517.462215,-228.824532)">
            <path d="M1755.92,1709.76C1755.49,1709.76 1755.05,1709.63 1754.66,1709.37C1753.63,1708.67 1753.36,1707.27 1754.06,1706.24C1757.31,1701.45 1763.04,1697.81 1772.09,1694.78C1773.27,1694.39 1774.55,1695.02 1774.94,1696.2C1775.34,1697.38 1774.7,1698.66 1773.52,1699.05C1765.45,1701.76 1760.46,1704.85 1757.79,1708.77C1757.36,1709.41 1756.65,1709.76 1755.92,1709.76Z" style="fill:white;fill-rule:nonzero;"/>
        </g>
        <g transform="matrix(1.18306,0,0,1.18306,-517.462215,-228.824532)">
            <path d="M1836.74,1588.39L1797.39,1526.3C1795.81,1523.8 1795.6,1520.57 1797.15,1518.05C1799.2,1514.71 1802.54,1513.12 1807.22,1513.35C1809.45,1513.46 1811.41,1514.89 1812.21,1516.98L1839.27,1588.34L1836.74,1588.39Z" style="fill-rule:nonzero;"/>
        </g>
        <g transform="matrix(1.18306,0,0,1.18306,-517.462215,-228.824532)">
            <path d="M1835.23,1588.35L1816.12,1517.36C1815.35,1514.5 1816.11,1511.36 1818.34,1509.41C1821.29,1506.83 1824.95,1506.31 1829.35,1507.92C1831.44,1508.69 1832.9,1510.64 1833.03,1512.87L1837.66,1589.04L1835.23,1588.35Z" style="fill-rule:nonzero;"/>
        </g>
        <g transform="matrix(1.18306,0,0,1.18306,-517.462215,-228.824532)">
            <path d="M1839.63,1587.32L1835.27,1513.94C1835.09,1510.98 1836.48,1508.06 1839.05,1506.6C1842.47,1504.67 1846.16,1504.9 1850.13,1507.37C1852.03,1508.55 1853.06,1510.75 1852.74,1512.96L1841.86,1588.5L1839.63,1587.32Z" style="fill-rule:nonzero;"/>
        </g>
        <g transform="matrix(1.18306,0,0,1.18306,-517.462215,-228.824532)">
            <path d="M1811.79,1577.65C1821.63,1569.13 1837.65,1562.64 1851.83,1562.4C1865.1,1562.17 1876.33,1572.2 1878.36,1585.31C1892.88,1679.13 1914.95,1800.45 1908.86,1819.11C1904.75,1823.16 1900.13,1824.5 1894.93,1822.72C1883.64,1816.44 1839.68,1688.66 1806.26,1600.09C1803.28,1592.18 1805.4,1583.18 1811.79,1577.65Z" style="fill:white;fill-rule:nonzero;"/>
        </g>
        <g transform="matrix(1.18306,0,0,1.18306,-517.462215,-228.824532)">
            <path d="M1895.88,1820.66C1899.93,1821.98 1903.43,1821.09 1906.86,1817.9C1911.05,1802.39 1898.32,1723.72 1886.01,1647.61C1882.66,1626.91 1879.2,1605.49 1876.13,1585.66C1874.24,1573.48 1863.86,1564.48 1851.87,1564.65C1838.68,1564.88 1823.17,1570.79 1813.26,1579.36C1807.66,1584.2 1805.7,1592.21 1808.37,1599.29C1816.53,1620.91 1825.45,1645.25 1834.09,1668.79C1858.06,1734.15 1887.85,1815.39 1895.88,1820.66ZM1899.37,1825.76C1897.69,1825.76 1895.97,1825.46 1894.2,1824.85C1894.08,1824.81 1893.95,1824.75 1893.84,1824.69C1885.19,1819.88 1863.9,1763.17 1829.85,1670.34C1821.22,1646.81 1812.3,1622.48 1804.15,1600.88C1800.81,1592.05 1803.29,1582.02 1810.31,1575.95C1820.96,1566.73 1837.63,1560.38 1851.79,1560.14C1866.05,1559.97 1878.36,1570.58 1880.59,1584.97C1883.66,1604.79 1887.12,1626.19 1890.47,1646.89C1903.58,1727.98 1915.98,1804.57 1911,1819.82C1910.89,1820.16 1910.7,1820.47 1910.44,1820.72C1907.04,1824.08 1903.33,1825.76 1899.37,1825.76Z" style="fill-rule:nonzero;"/>
        </g>
        <g transform="matrix(1.18306,0,0,1.18306,-517.462215,-228.824532)">
            <path d="M1814.75,1603.66C1814.14,1603.66 1813.52,1603.41 1813.08,1602.91C1812.24,1601.99 1812.32,1600.56 1813.24,1599.73C1817.54,1595.86 1823.98,1593.7 1833.49,1592.92C1834.77,1592.84 1835.82,1593.74 1835.93,1594.98C1836.03,1596.22 1835.1,1597.31 1833.86,1597.42C1825.38,1598.11 1819.79,1599.91 1816.26,1603.08C1815.83,1603.47 1815.29,1603.66 1814.75,1603.66Z" style="fill-rule:nonzero;"/>
        </g>
        <g transform="matrix(1.18306,0,0,1.18306,-517.462215,-228.824532)">
            <path d="M1861.64,1631.82C1861.02,1631.82 1860.4,1631.57 1859.96,1631.08C1859.13,1630.15 1859.2,1628.72 1860.13,1627.89C1864.42,1624.02 1870.86,1621.86 1880.37,1621.08C1881.64,1621.01 1882.7,1621.9 1882.8,1623.14C1882.91,1624.39 1881.98,1625.48 1880.74,1625.58C1872.26,1626.27 1866.67,1628.07 1863.14,1631.24C1862.71,1631.63 1862.17,1631.82 1861.64,1631.82Z" style="fill-rule:nonzero;"/>
        </g>
        <g transform="matrix(1.18306,0,0,1.18306,-517.462215,-228.824532)">
            <path d="M1878.42,1743.85C1877.8,1743.85 1877.19,1743.6 1876.74,1743.11C1875.91,1742.18 1875.99,1740.75 1876.91,1739.92C1881.21,1736.05 1887.64,1733.89 1897.16,1733.11C1898.44,1733.03 1899.49,1733.93 1899.59,1735.17C1899.69,1736.42 1898.77,1737.51 1897.53,1737.61C1889.05,1738.3 1883.46,1740.1 1879.93,1743.28C1879.5,1743.66 1878.96,1743.85 1878.42,1743.85Z" style="fill:white;fill-rule:nonzero;"/>
        </g>
        <g transform="matrix(1.18306,0,0,1.18306,-517.462215,-228.824532)">
            <path d="M1881.87,1795.89C1881.25,1795.89 1880.63,1795.64 1880.19,1795.15C1879.36,1794.22 1879.43,1792.79 1880.36,1791.96C1884.66,1788.09 1891.09,1785.93 1900.6,1785.15C1901.87,1785.09 1902.94,1785.97 1903.04,1787.21C1903.14,1788.46 1902.21,1789.54 1900.97,1789.65C1892.49,1790.34 1886.9,1792.14 1883.37,1795.31C1882.94,1795.7 1882.4,1795.89 1881.87,1795.89Z" style="fill:white;fill-rule:nonzero;"/>
        </g>
        <g transform="matrix(1.18306,0,0,1.18306,-517.462215,-228.824532)">
            <path d="M1841.43,1687.09C1840.81,1687.09 1840.2,1686.84 1839.75,1686.34C1838.92,1685.42 1838.99,1683.99 1839.92,1683.16C1844.22,1679.29 1850.65,1677.13 1860.16,1676.35C1861.43,1676.26 1862.5,1677.17 1862.6,1678.41C1862.7,1679.65 1861.77,1680.74 1860.53,1680.84C1852.05,1681.54 1846.46,1683.34 1842.94,1686.51C1842.51,1686.9 1841.97,1687.09 1841.43,1687.09Z" style="fill:white;fill-rule:nonzero;"/>
        </g>
        <g transform="matrix(1.18306,0,0,1.18306,-517.462215,-228.824532)">
            <path d="M2002.45,1671.58C2002.32,1699.5 1983.89,1739.53 1934.47,1739.3C1887.33,1739.08 1869.28,1698.87 1869.41,1670.95C1869.54,1643.64 1886.13,1617.43 1925.92,1618.12C1926.72,1618.14 1935.36,1620.7 1936.17,1620.71C1936.81,1620.71 1947.58,1618.23 1948.22,1618.23C1988.26,1618.42 2002.58,1644.14 2002.45,1671.58Z" style="fill:white;fill-rule:nonzero;"/>
        </g>
        <g transform="matrix(1.18306,0,0,1.18306,-517.462215,-228.824532)">
            <path d="M1924.25,1620.36C1908.16,1620.36 1895.23,1624.95 1885.94,1634.03C1876.81,1642.97 1871.74,1656.08 1871.66,1670.96C1871.54,1697.4 1888.16,1736.82 1934.48,1737.04L1934.89,1737.04C1956.01,1737.04 1973.39,1729.29 1985.18,1714.59C1994.51,1702.95 2000.12,1686.87 2000.19,1671.57C2000.26,1657.16 1996.29,1644.92 1988.69,1636.17C1979.75,1625.85 1966.12,1620.57 1948.21,1620.49C1947.89,1620.54 1944.88,1621.19 1942.69,1621.67C1937.24,1622.85 1936.63,1623.01 1936.16,1622.96C1935.56,1622.96 1934.69,1622.75 1930.36,1621.57C1928.61,1621.09 1926.21,1620.44 1925.72,1620.37C1925.23,1620.36 1924.74,1620.36 1924.25,1620.36ZM1934.9,1741.55L1934.45,1741.55C1884.83,1741.32 1867.02,1699.19 1867.15,1670.94C1867.23,1654.84 1872.78,1640.59 1882.79,1630.8C1893.1,1620.72 1908,1615.53 1925.96,1615.87C1926.53,1615.88 1927.37,1616.08 1931.54,1617.22C1933.11,1617.64 1935.42,1618.27 1936.19,1618.43C1937.03,1618.28 1939.72,1617.7 1941.73,1617.26C1947.16,1616.08 1947.78,1616 1948.23,1615.97C1967.51,1616.06 1982.27,1621.87 1992.1,1633.21C2000.42,1642.8 2004.78,1656.08 2004.71,1671.59C2004.63,1687.88 1998.65,1705.01 1988.7,1717.41C1979.85,1728.44 1963.35,1741.55 1934.9,1741.55Z" style="fill-rule:nonzero;"/>
        </g>
        <g transform="matrix(1.18306,0,0,1.18306,-517.462215,-228.824532)">
            <path d="M1936.33,1626.03C1941.27,1598.32 1961.97,1591.56 1981.37,1588.42C1987.14,1613.35 1965.33,1619.48 1936.33,1626.03Z" style="fill:white;fill-rule:nonzero;"/>
        </g>
        <g transform="matrix(1.18306,0,0,1.18306,-517.462215,-228.824532)">
            <path d="M1979.59,1591.01C1961.58,1594.18 1944.67,1600.67 1939.26,1623.05C1957.55,1618.82 1971.82,1614.58 1977.43,1605.65C1979.9,1601.7 1980.62,1596.9 1979.59,1591.01ZM1936.33,1628.28C1935.76,1628.28 1935.2,1628.06 1934.78,1627.66C1934.23,1627.14 1933.98,1626.38 1934.11,1625.63C1939.26,1596.73 1960.71,1589.48 1981.01,1586.19C1982.21,1586.02 1983.3,1586.76 1983.57,1587.91C1985.44,1595.99 1984.68,1602.58 1981.25,1608.05C1974.37,1618.99 1957.79,1623.49 1936.83,1628.23C1936.67,1628.27 1936.5,1628.28 1936.33,1628.28Z" style="fill-rule:nonzero;"/>
        </g>
        <g transform="matrix(1.18306,0,0,1.18306,-517.462215,-228.824532)">
            <path d="M1934.5,1626.53L1929.94,1602.7C1929.58,1600.8 1930.87,1598.98 1932.79,1598.7C1935.72,1598.26 1938.46,1598.25 1940.91,1598.89C1942.99,1599.44 1944.18,1601.65 1943.62,1603.73L1937.28,1627.04C1936.29,1627.71 1935.38,1627.25 1934.5,1626.53Z" style="fill-rule:nonzero;"/>
        </g>
        <g transform="matrix(1.18306,0,0,1.18306,-517.462215,-228.824532)">
            <path d="M1945.69,1620.35C1944.86,1620.35 1944.06,1619.89 1943.67,1619.1C1943.11,1617.99 1943.56,1616.63 1944.67,1616.08C1959.42,1608.68 1965.22,1604.62 1974.2,1595.37C1975.06,1594.48 1976.49,1594.46 1977.39,1595.33C1978.28,1596.2 1978.3,1597.63 1977.43,1598.52C1968.14,1608.09 1961.82,1612.53 1946.7,1620.11C1946.37,1620.27 1946.03,1620.35 1945.69,1620.35Z" style="fill-rule:nonzero;"/>
        </g>
        <g transform="matrix(1.18306,0,0,1.18306,-517.462215,-228.824532)">
            <path d="M2077.909,2162.73L2072.22,1672.96L2108.29,1681.24L2135.26,1671.54L2178.55,2127.36L2077.909,2162.73Z" style="fill-rule:nonzero;"/>
        </g>
        <g transform="matrix(1.18306,0,0,1.18306,-517.462215,-228.824532)">
            <path d="M2074.51,1675.8L2080.12,2159.56L2176.13,2125.81L2133.28,1674.64L2109.06,1683.36C2108.65,1683.51 2108.21,1683.54 2107.79,1683.44L2074.51,1675.8ZM2077.909,2164.99C2077.45,2164.99 2077,2164.85 2076.61,2164.58C2076.02,2164.17 2075.659,2163.49 2075.649,2162.76L2069.96,1672.99C2069.95,1672.3 2070.27,1671.64 2070.8,1671.21C2071.34,1670.77 2072.05,1670.61 2072.72,1670.77L2108.15,1678.9L2134.49,1669.42C2135.15,1669.18 2135.87,1669.26 2136.46,1669.63C2137.05,1670.01 2137.44,1670.63 2137.5,1671.32L2180.79,2127.14C2180.89,2128.17 2180.27,2129.14 2179.29,2129.48L2078.659,2164.86C2078.409,2164.95 2078.159,2164.99 2077.909,2164.99Z" style="fill:white;fill-rule:nonzero;"/>
        </g>
        <g transform="matrix(1.18306,0,0,1.18306,-517.462215,-228.824532)">
            <path d="M1710.83,1667.41C1709.81,1666.68 1708.25,1667.23 1708.13,1668.35L1657.79,2145.52C1657.38,2149.47 1661.27,2152.88 1666.33,2153L2077.909,2162.75L2072.22,1672.96L2015.72,1695.08L1968.66,1671.54L1917.76,1694.61L1874.09,1669.93L1824.88,1693.03L1780.62,1666.71L1739.38,1687.74L1710.83,1667.41Z" style="fill:white;fill-rule:nonzero;"/>
        </g>
        <g transform="matrix(1.18306,0,0,1.18306,-517.462215,-228.824532)">
            <path d="M1710.25,1669.76L1660.04,2145.76C1659.91,2146.97 1660.49,2147.93 1661.01,2148.51C1662.19,2149.86 1664.2,2150.69 1666.39,2150.74L2075.62,2160.43L2070,1676.26L2016.54,1697.18C2015.95,1697.41 2015.29,1697.38 2014.71,1697.1L1968.61,1674.04L1918.69,1696.66C1918.04,1696.96 1917.28,1696.92 1916.65,1696.57L1873.99,1672.47L1825.84,1695.07C1825.16,1695.39 1824.37,1695.35 1823.73,1694.97L1780.54,1669.29L1740.4,1689.75C1739.65,1690.13 1738.76,1690.06 1738.07,1689.58L1710.25,1669.76ZM2077.909,2165L2077.85,2165L1666.28,2155.25C1662.81,2155.17 1659.65,2153.8 1657.62,2151.49C1656.05,2149.71 1655.31,2147.5 1655.55,2145.28L1705.89,1668.12C1706.02,1666.84 1706.84,1665.74 1708.07,1665.19C1709.41,1664.59 1710.96,1664.73 1712.14,1665.57L1739.57,1685.11L1779.6,1664.71C1780.29,1664.35 1781.11,1664.38 1781.78,1664.78L1825.01,1690.48L1873.13,1667.89C1873.79,1667.58 1874.56,1667.61 1875.2,1667.97L1917.87,1692.08L1967.73,1669.48C1968.35,1669.2 1969.06,1669.21 1969.67,1669.52L2015.83,1692.61L2071.399,1670.86C2072.08,1670.59 2072.87,1670.68 2073.48,1671.09C2074.09,1671.51 2074.47,1672.2 2074.47,1672.94L2080.159,2162.72C2080.169,2163.33 2079.929,2163.92 2079.49,2164.35C2079.07,2164.77 2078.5,2165 2077.909,2165Z" style="fill-rule:nonzero;"/>
        </g>
    </g>
</svg>
