<?xml version="1.0" encoding="UTF-8" standalone="no"?>
<!DOCTYPE svg PUBLIC "-//W3C//DTD SVG 1.1//EN" "http://www.w3.org/Graphics/SVG/1.1/DTD/svg11.dtd">
<svg width="100%" height="100%" viewBox="0 0 2500 2500" version="1.1" xmlns="http://www.w3.org/2000/svg" xmlns:xlink="http://www.w3.org/1999/xlink" xml:space="preserve" xmlns:serif="http://www.serif.com/" style="fill-rule:evenodd;clip-rule:evenodd;stroke-linejoin:round;stroke-miterlimit:2;">
    <g>
        <g transform="matrix(1.280747,0,0,1.280747,-394.649287,-272.816163)">
            <path d="M1421.66,1415C1439.5,1391.3 1321.88,1348.88 1323.47,1265.62C1324.91,1189.55 1424.15,1170.01 1421.23,1100.32C1418.1,1025.75 1302.92,1011.16 1302.87,935.15C1302.82,876.573 1371.21,867.746 1376.77,805.089C1383.44,729.806 1286.72,719.795 1255.29,620.38C1225.94,527.532 1293.44,482.918 1244.19,409.403C1237.77,399.83 1197.81,342.648 1141.14,341.81C1048.96,340.448 929.864,488.445 947.394,616.495C962.155,724.316 1062.74,737.326 1068.63,851.87C1073.61,948.956 1002.67,965.201 1025.75,1040.51C1053.07,1129.63 1161.54,1136.64 1183.86,1237.08C1195.55,1289.69 1169.47,1304.35 1190.86,1341.56C1236.04,1420.16 1401.99,1441.13 1421.66,1415Z" style="fill:white;fill-rule:nonzero;"/>
        </g>
        <g transform="matrix(1.280747,0,0,1.280747,-394.649287,-272.816163)">
            <path d="M1139.92,344.015C1103.12,344.015 1059.01,369.064 1021.64,411.26C979.727,458.596 938.784,537.291 949.587,616.195C956.567,667.18 983.479,697.232 1009.5,726.294C1038.13,758.258 1067.73,791.31 1070.84,851.756C1073.3,899.763 1057.4,928.351 1043.37,953.574C1028.86,979.665 1016.33,1002.2 1027.87,1039.86C1040.63,1081.51 1070.94,1104.57 1103.02,1128.98C1137.98,1155.58 1174.13,1183.08 1186.02,1236.6C1191.52,1261.34 1188.83,1277.66 1186.46,1292.05C1183.79,1308.3 1181.67,1321.13 1192.78,1340.46C1224.2,1395.11 1313.65,1419.78 1366.11,1423.02C1393.66,1424.72 1414.26,1421.14 1419.89,1413.67C1425.84,1405.76 1411.05,1393.23 1392.34,1377.35C1361.93,1351.57 1320.29,1316.26 1321.25,1265.58C1322,1226.31 1347.95,1201.97 1373.04,1178.42C1397.41,1155.57 1420.42,1133.97 1419.02,1100.42C1417.52,1064.64 1389.9,1043.39 1360.67,1020.9C1331.18,998.203 1300.68,974.735 1300.65,935.151C1300.63,904.756 1318.86,886.963 1336.49,869.757C1353.88,852.778 1371.88,835.221 1374.56,804.895C1377.9,767.148 1353.94,745.799 1326.19,721.077C1299.19,697.012 1268.57,669.736 1253.18,621.047C1239.31,577.18 1246.9,543.427 1253.59,513.647C1261.38,479 1268.1,449.078 1242.35,410.635C1234.99,399.653 1195.53,344.828 1141.11,344.023C1140.72,344.018 1140.32,344.015 1139.92,344.015ZM1379.39,1427.88C1375.12,1427.88 1370.59,1427.74 1365.84,1427.44C1312.42,1424.14 1221.23,1398.83 1188.94,1342.67C1177.05,1321.97 1179.39,1307.78 1182.09,1291.33C1184.4,1277.33 1187.01,1261.47 1181.7,1237.56C1170.16,1185.62 1134.67,1158.62 1100.34,1132.51C1069.11,1108.74 1036.819,1084.17 1023.64,1041.16C1011.54,1001.69 1024.5,978.397 1039.5,951.422C1053.24,926.72 1068.81,898.722 1066.41,851.983C1063.39,793.098 1035.61,762.083 1006.21,729.247C979.736,699.688 952.365,669.124 945.2,616.795C934.195,536.407 975.761,456.397 1018.33,408.325C1057.52,364.072 1102.37,339.022 1141.18,339.597C1197.81,340.435 1238.45,396.867 1246.03,408.171C1272.84,448.194 1265.59,480.459 1257.91,514.618C1251.02,545.28 1243.89,576.985 1257.4,619.713C1272.43,667.241 1302.56,694.086 1329.14,717.772C1357.78,743.288 1382.51,765.324 1378.97,805.285C1376.14,837.244 1357.56,855.383 1339.58,872.924C1321.83,890.252 1305.06,906.62 1305.08,935.148C1305.1,972.554 1333.41,994.333 1363.37,1017.39C1392.12,1039.52 1421.85,1062.39 1423.44,1100.23C1424.93,1135.81 1401.2,1158.08 1376.08,1181.65C1351.65,1204.57 1326.39,1228.26 1325.68,1265.66C1324.76,1314.24 1365.47,1348.77 1395.2,1373.98C1416.5,1392.04 1431.89,1405.09 1423.43,1416.33C1417.79,1423.82 1402.04,1427.88 1379.39,1427.88Z" style="fill-rule:nonzero;"/>
        </g>
        <g transform="matrix(1.280747,0,0,1.280747,-394.649287,-272.816163)">
            <path d="M1384.19,1401.56C1383.98,1401.56 1383.76,1401.53 1383.54,1401.46C1312.28,1379.39 1267.32,1348.28 1249.9,1309.01C1236.67,1279.19 1244.18,1255.12 1252.14,1229.64C1260.13,1204.05 1268.39,1177.57 1256.57,1142.24C1244.06,1104.85 1221.61,1088.05 1199.9,1071.8C1178.82,1056.02 1158.9,1041.13 1150.04,1009.23C1137.5,964.125 1160.96,932.058 1183.65,901.047C1205.61,871.025 1228.32,839.98 1219.58,796.361C1212.53,761.18 1189.57,740.661 1165.27,718.938C1138.98,695.445 1109.18,668.817 1095.24,619.243C1084.87,582.366 1085.95,542.912 1098.45,501.976C1098.81,500.808 1100.04,500.149 1101.21,500.505C1102.38,500.862 1103.04,502.1 1102.68,503.269C1090.44,543.381 1089.37,581.997 1099.51,618.044C1113.1,666.377 1141.12,691.419 1168.22,715.637C1193.09,737.867 1216.58,758.863 1223.92,795.491C1233.05,841.021 1209.75,872.865 1187.22,903.661C1164.14,935.208 1142.34,965.006 1154.31,1008.05C1162.77,1038.49 1182.09,1052.94 1202.55,1068.25C1224.81,1084.91 1247.83,1102.13 1260.77,1140.83C1273.04,1177.53 1264.56,1204.69 1256.36,1230.96C1248.66,1255.62 1241.4,1278.91 1253.95,1307.22C1270.83,1345.27 1314.87,1375.55 1384.85,1397.23C1386.02,1397.6 1386.67,1398.84 1386.31,1400C1386.01,1400.95 1385.14,1401.56 1384.19,1401.56Z" style="fill-rule:nonzero;"/>
        </g>
        <g transform="matrix(1.280747,0,0,1.280747,-394.649287,-272.816163)">
            <path d="M1463.96,1738.52C1471.99,1720.2 1370.03,1692.82 1284.31,1563.79C1232.41,1485.66 1212.44,1409.37 1194.32,1337.75C1149.47,1160.54 1186.28,1125.81 1138.71,1043.35C1081.61,944.376 1009.61,982.473 928.342,880.551C828.109,754.844 903.094,653.564 800.364,540.357C744.232,478.501 644.482,423.483 556.813,451.689C503.756,468.76 448.313,518.504 446.865,572.654C445.467,624.912 495.4,642.364 534.475,706.003C604.242,819.629 521.029,887.713 565.492,1002.87C625.834,1159.16 815.341,1127.65 896.348,1313.89C928.974,1388.9 900.944,1400.25 929.874,1471.88C1027.51,1713.62 1448.07,1774.74 1463.96,1738.52Z" style="fill:white;fill-rule:nonzero;"/>
        </g>
        <g transform="matrix(1.280747,0,0,1.280747,-394.649287,-272.816163)">
            <path d="M606.083,446.377C589.658,446.377 573.348,448.694 557.491,453.796C505.313,470.584 450.496,519.655 449.078,572.713C448.254,603.471 466.084,622.166 488.659,645.833C503.748,661.653 520.849,679.584 536.36,704.845C574.636,767.184 567.501,815.113 559.949,865.855C553.793,907.197 547.429,949.945 567.557,1002.08C596.363,1076.69 655.114,1108.17 717.313,1141.5C785.562,1178.07 856.131,1215.88 898.377,1313.01C915.374,1352.09 916.084,1374.46 916.774,1396.09C917.407,1416.07 918.064,1436.73 931.928,1471.05C1007.84,1659.01 1291.42,1744.02 1419.33,1745.91C1447.94,1746.33 1460.06,1741.91 1461.93,1737.63C1464.13,1732.63 1451.32,1724.02 1433.59,1712.1C1397.5,1687.84 1337.09,1647.23 1282.47,1565.01C1229.3,1484.97 1209.57,1407.05 1192.17,1338.29C1170.86,1254.05 1167.99,1202.8 1165.69,1161.61C1163.19,1116.9 1161.54,1087.36 1136.79,1044.45C1107.82,994.23 1075.82,980.124 1038.77,963.79C1004.88,948.848 966.464,931.913 926.611,881.931C876.679,819.306 869.887,762.686 863.321,707.93C856.575,651.693 850.205,598.575 798.725,541.845C753.04,491.501 678.536,446.377 606.083,446.377ZM1423.05,1750.36C1421.78,1750.36 1420.51,1750.35 1419.27,1750.33C1360.48,1749.46 1257.79,1729.08 1160.91,1685.51C1078.88,1648.62 971.859,1581.75 927.823,1472.71C913.666,1437.66 912.996,1416.6 912.35,1396.23C911.643,1374.04 910.977,1353.08 894.318,1314.78C852.686,1219.06 782.803,1181.61 715.223,1145.4C652.278,1111.67 592.827,1079.81 563.429,1003.67C542.879,950.449 549.329,907.113 555.569,865.204C563,815.281 570.021,768.126 532.586,707.162C517.322,682.3 500.394,664.549 485.456,648.889C462.172,624.476 443.78,605.194 444.651,572.595C446.123,517.575 502.49,466.842 556.134,449.582C643.801,421.375 745.038,476.096 802.001,538.87C854.431,596.646 860.885,650.444 867.715,707.402C874.208,761.544 880.924,817.53 930.074,879.171C969.246,928.301 1005.5,944.283 1040.56,959.739C1076.75,975.694 1110.93,990.764 1140.62,1042.24C1165.9,1086.06 1167.57,1116.02 1170.11,1161.36C1172.4,1202.36 1175.25,1253.38 1196.46,1337.2C1213.78,1405.62 1233.4,1483.16 1286.15,1562.56C1340.29,1644.05 1400.24,1684.35 1436.06,1708.43C1457.73,1723 1469.67,1731.02 1465.99,1739.41C1462.08,1748.32 1441.27,1750.36 1423.05,1750.36Z" style="fill-rule:nonzero;"/>
        </g>
        <g transform="matrix(1.280747,0,0,1.280747,-394.649287,-272.816163)">
            <path d="M1390.62,1729.82C1390.33,1729.82 1390.04,1729.76 1389.76,1729.65C1306.04,1694.53 1239.07,1653.06 1190.7,1606.41C1151.54,1568.62 1123.56,1526.36 1107.54,1480.81C1090.77,1433.13 1088.88,1388.01 1087.04,1344.38C1084.29,1279.06 1081.7,1217.36 1029.74,1154.96C993.139,1111 954.844,1093.6 917.807,1076.77C876.54,1058.02 837.563,1040.31 810.799,986.632C792.18,949.293 791.843,919.301 791.456,884.572C791.071,850.287 790.634,811.426 773.714,754.33C756.963,697.799 730.018,643.985 693.632,594.38C692.91,593.395 693.122,592.009 694.107,591.287C695.095,590.563 696.476,590.776 697.203,591.762C733.892,641.779 761.061,696.051 777.959,753.071C795.055,810.76 795.494,849.948 795.88,884.523C796.28,920.115 796.596,948.228 814.759,984.657C840.824,1036.92 877.346,1053.52 919.638,1072.74C955.382,1088.98 995.893,1107.39 1033.15,1152.13C1086.06,1215.68 1088.69,1278.1 1091.46,1344.19C1093.28,1387.5 1095.17,1432.29 1111.71,1479.34C1146.99,1579.65 1241.12,1662.5 1391.47,1725.57C1392.6,1726.04 1393.13,1727.33 1392.66,1728.46C1392.3,1729.31 1391.48,1729.82 1390.62,1729.82Z" style="fill-rule:nonzero;"/>
        </g>
        <g transform="matrix(1.280747,0,0,1.280747,-394.649287,-272.816163)">
            <path d="M1971.78,1750.73L1275.88,1750.73L1275.88,335L1966.65,335C1986.53,335 2002.65,351.117 2002.65,370.998L2002.65,1719.86C2002.65,1736.91 1988.83,1750.73 1971.78,1750.73Z" style="fill-rule:nonzero;"/>
        </g>
        <g transform="matrix(1.280747,0,0,1.280747,-394.649287,-272.816163)">
            <path d="M1930.2,1751.94L1261.12,1751.94C1245.19,1751.94 1232.28,1739.03 1232.28,1723.1L1232.28,366.261C1232.28,350.334 1245.19,337.423 1261.12,337.423L1930.2,337.423C1946.13,337.423 1959.04,350.334 1959.04,366.261L1959.04,1723.1C1959.04,1739.03 1946.13,1751.94 1930.2,1751.94Z" style="fill:white;fill-rule:nonzero;"/>
        </g>
        <g transform="matrix(1.280747,0,0,1.280747,-394.649287,-272.816163)">
            <path d="M1448.43,877.893L1366.31,877.893C1360.81,877.893 1356.35,873.434 1356.35,867.933L1356.35,793.369C1356.35,787.868 1360.81,783.409 1366.31,783.409L1448.43,783.409C1453.93,783.409 1458.39,787.868 1458.39,793.369L1458.39,867.933C1458.39,873.434 1453.93,877.893 1448.43,877.893Z" style="fill-rule:nonzero;"/>
        </g>
        <g transform="matrix(1.280747,0,0,1.280747,-394.649287,-272.816163)">
            <path d="M1577.91,877.893L1494.71,877.893C1489.21,877.893 1484.75,873.434 1484.75,867.933L1484.75,793.369C1484.75,787.868 1489.21,783.409 1494.71,783.409L1577.91,783.409C1583.41,783.409 1587.87,787.868 1587.87,793.369L1587.87,867.933C1587.87,873.434 1583.41,877.893 1577.91,877.893Z" style="fill-rule:nonzero;"/>
        </g>
        <g transform="matrix(1.280747,0,0,1.280747,-394.649287,-272.816163)">
            <path d="M1706.58,879.104L1625.54,879.104C1620.04,879.104 1615.58,874.645 1615.58,869.144L1615.58,794.58C1615.58,789.08 1620.04,784.62 1625.54,784.62L1706.58,784.62C1712.08,784.62 1716.54,789.08 1716.54,794.58L1716.54,869.144C1716.54,874.645 1712.08,879.104 1706.58,879.104Z" style="fill-rule:nonzero;"/>
        </g>
        <g transform="matrix(1.280747,0,0,1.280747,-394.649287,-272.816163)">
            <path d="M1833.77,879.103L1752.73,879.103C1747.23,879.103 1742.77,874.644 1742.77,869.143L1742.77,794.579C1742.77,789.078 1747.23,784.619 1752.73,784.619L1833.77,784.619C1839.27,784.619 1843.73,789.078 1843.73,794.579L1843.73,869.143C1843.73,874.644 1839.27,879.103 1833.77,879.103Z" style="fill-rule:nonzero;"/>
        </g>
        <g transform="matrix(1.280747,0,0,1.280747,-394.649287,-272.816163)">
            <path d="M1448.42,1006.29L1366.31,1006.29C1360.81,1006.29 1356.35,1001.83 1356.35,996.334L1356.35,921.771C1356.35,916.27 1360.81,911.81 1366.31,911.81L1448.42,911.81C1453.93,911.81 1458.38,916.27 1458.38,921.771L1458.38,996.334C1458.38,1001.83 1453.93,1006.29 1448.42,1006.29Z" style="fill-rule:nonzero;"/>
        </g>
        <g transform="matrix(1.280747,0,0,1.280747,-394.649287,-272.816163)">
            <path d="M1577.91,1006.29L1494.71,1006.29C1489.21,1006.29 1484.75,1001.83 1484.75,996.334L1484.75,921.771C1484.75,916.27 1489.21,911.81 1494.71,911.81L1577.91,911.81C1583.41,911.81 1587.87,916.27 1587.87,921.771L1587.87,996.334C1587.87,1001.83 1583.41,1006.29 1577.91,1006.29Z" style="fill-rule:nonzero;"/>
        </g>
        <g transform="matrix(1.280747,0,0,1.280747,-394.649287,-272.816163)">
            <path d="M1706.57,1007.51L1625.54,1007.51C1620.04,1007.51 1615.58,1003.05 1615.58,997.545L1615.58,922.981C1615.58,917.481 1620.04,913.021 1625.54,913.021L1706.57,913.021C1712.08,913.021 1716.53,917.481 1716.53,922.981L1716.53,997.545C1716.53,1003.05 1712.08,1007.51 1706.57,1007.51Z" style="fill-rule:nonzero;"/>
        </g>
        <g transform="matrix(1.280747,0,0,1.280747,-394.649287,-272.816163)">
            <path d="M1833.77,1007.5L1752.73,1007.5C1747.23,1007.5 1742.77,1003.04 1742.77,997.544L1742.77,922.98C1742.77,917.479 1747.23,913.02 1752.73,913.02L1833.77,913.02C1839.27,913.02 1843.73,917.479 1843.73,922.98L1843.73,997.544C1843.73,1003.04 1839.27,1007.5 1833.77,1007.5Z" style="fill-rule:nonzero;"/>
        </g>
        <g transform="matrix(1.280747,0,0,1.280747,-394.649287,-272.816163)">
            <path d="M1451.04,1134.71L1368.92,1134.71C1363.42,1134.71 1358.96,1130.25 1358.96,1124.75L1358.96,1050.18C1358.96,1044.68 1363.42,1040.22 1368.92,1040.22L1451.04,1040.22C1456.54,1040.22 1461,1044.68 1461,1050.18L1461,1124.75C1461,1130.25 1456.54,1134.71 1451.04,1134.71Z" style="fill-rule:nonzero;"/>
        </g>
        <g transform="matrix(1.280747,0,0,1.280747,-394.649287,-272.816163)">
            <path d="M1578.33,1134.71L1495.14,1134.71C1489.64,1134.71 1485.18,1130.25 1485.18,1124.75L1485.18,1050.18C1485.18,1044.68 1489.64,1040.22 1495.14,1040.22L1578.33,1040.22C1583.83,1040.22 1588.29,1044.68 1588.29,1050.18L1588.29,1124.75C1588.29,1130.25 1583.83,1134.71 1578.33,1134.71Z" style="fill-rule:nonzero;"/>
        </g>
        <g transform="matrix(1.280747,0,0,1.280747,-394.649287,-272.816163)">
            <path d="M1709.16,1135.92L1628.13,1135.92C1622.62,1135.92 1618.17,1131.46 1618.17,1125.96L1618.17,1051.39C1618.17,1045.89 1622.62,1041.43 1628.13,1041.43L1709.16,1041.43C1714.66,1041.43 1719.12,1045.89 1719.12,1051.39L1719.12,1125.96C1719.12,1131.46 1714.66,1135.92 1709.16,1135.92Z" style="fill-rule:nonzero;"/>
        </g>
        <g transform="matrix(1.280747,0,0,1.280747,-394.649287,-272.816163)">
            <path d="M1836.35,1135.92L1755.32,1135.92C1749.82,1135.92 1745.36,1131.46 1745.36,1125.96L1745.36,1051.39C1745.36,1045.89 1749.82,1041.43 1755.32,1041.43L1836.35,1041.43C1841.86,1041.43 1846.31,1045.89 1846.31,1051.39L1846.31,1125.96C1846.31,1131.46 1841.86,1135.92 1836.35,1135.92Z" style="fill-rule:nonzero;"/>
        </g>
        <g transform="matrix(1.280747,0,0,1.280747,-394.649287,-272.816163)">
            <path d="M1451.04,1263.11L1368.92,1263.11C1363.42,1263.11 1358.96,1258.65 1358.96,1253.15L1358.96,1178.58C1358.96,1173.08 1363.42,1168.62 1368.92,1168.62L1451.04,1168.62C1456.54,1168.62 1461,1173.08 1461,1178.58L1461,1253.15C1461,1258.65 1456.54,1263.11 1451.04,1263.11Z" style="fill-rule:nonzero;"/>
        </g>
        <g transform="matrix(1.280747,0,0,1.280747,-394.649287,-272.816163)">
            <path d="M1580.55,1263.11L1497.35,1263.11C1491.85,1263.11 1487.39,1258.65 1487.39,1253.15L1487.39,1178.58C1487.39,1173.08 1491.85,1168.62 1497.35,1168.62L1580.55,1168.62C1586.05,1168.62 1590.51,1173.08 1590.51,1178.58L1590.51,1253.15C1590.51,1258.65 1586.05,1263.11 1580.55,1263.11Z" style="fill-rule:nonzero;"/>
        </g>
        <g transform="matrix(1.280747,0,0,1.280747,-394.649287,-272.816163)">
            <path d="M1709.16,1264.32L1628.12,1264.32C1622.62,1264.32 1618.16,1259.86 1618.16,1254.36L1618.16,1179.79C1618.16,1174.29 1622.62,1169.83 1628.12,1169.83L1709.16,1169.83C1714.66,1169.83 1719.12,1174.29 1719.12,1179.79L1719.12,1254.36C1719.12,1259.86 1714.66,1264.32 1709.16,1264.32Z" style="fill-rule:nonzero;"/>
        </g>
        <g transform="matrix(1.280747,0,0,1.280747,-394.649287,-272.816163)">
            <path d="M1836.35,1264.32L1755.31,1264.32C1749.81,1264.32 1745.35,1259.86 1745.35,1254.36L1745.35,1179.79C1745.35,1174.29 1749.81,1169.83 1755.31,1169.83L1836.35,1169.83C1841.85,1169.83 1846.31,1174.29 1846.31,1179.79L1846.31,1254.36C1846.31,1259.86 1841.85,1264.32 1836.35,1264.32Z" style="fill-rule:nonzero;"/>
        </g>
        <g transform="matrix(1.280747,0,0,1.280747,-394.649287,-272.816163)">
            <path d="M1438.28,881.687L1363.72,881.687C1358.22,881.687 1353.76,877.228 1353.76,871.727L1353.76,797.163C1353.76,791.663 1358.22,787.203 1363.72,787.203L1438.28,787.203C1443.78,787.203 1448.24,791.663 1448.24,797.163L1448.24,871.727C1448.24,877.228 1443.78,881.687 1438.28,881.687Z" style="fill:white;fill-rule:nonzero;"/>
        </g>
        <g transform="matrix(1.280747,0,0,1.280747,-394.649287,-272.816163)">
            <path d="M1363.72,789.417C1359.45,789.417 1355.97,792.892 1355.97,797.164L1355.97,871.728C1355.97,875.999 1359.45,879.474 1363.72,879.474L1438.28,879.474C1442.55,879.474 1446.03,875.999 1446.03,871.728L1446.03,797.164C1446.03,792.892 1442.55,789.417 1438.28,789.417L1363.72,789.417ZM1438.28,883.901L1363.72,883.901C1357.01,883.901 1351.54,878.44 1351.54,871.728L1351.54,797.164C1351.54,790.451 1357.01,784.99 1363.72,784.99L1438.28,784.99C1444.99,784.99 1450.46,790.451 1450.46,797.164L1450.46,871.728C1450.46,878.44 1444.99,883.901 1438.28,883.901Z" style="fill-rule:nonzero;"/>
        </g>
        <g transform="matrix(1.280747,0,0,1.280747,-394.649287,-272.816163)">
            <path d="M1566.68,881.687L1492.12,881.687C1486.62,881.687 1482.16,877.228 1482.16,871.727L1482.16,797.163C1482.16,791.663 1486.62,787.203 1492.12,787.203L1566.68,787.203C1572.18,787.203 1576.64,791.663 1576.64,797.163L1576.64,871.727C1576.64,877.228 1572.18,881.687 1566.68,881.687Z" style="fill:white;fill-rule:nonzero;"/>
        </g>
        <g transform="matrix(1.280747,0,0,1.280747,-394.649287,-272.816163)">
            <path d="M1492.12,789.417C1487.85,789.417 1484.37,792.892 1484.37,797.164L1484.37,871.728C1484.37,875.999 1487.85,879.474 1492.12,879.474L1566.68,879.474C1570.95,879.474 1574.43,875.999 1574.43,871.728L1574.43,797.164C1574.43,792.892 1570.95,789.417 1566.68,789.417L1492.12,789.417ZM1566.68,883.901L1492.12,883.901C1485.41,883.901 1479.95,878.44 1479.95,871.728L1479.95,797.164C1479.95,790.451 1485.41,784.99 1492.12,784.99L1566.68,784.99C1573.39,784.99 1578.86,790.451 1578.86,797.164L1578.86,871.728C1578.86,878.44 1573.39,883.901 1566.68,883.901Z" style="fill-rule:nonzero;"/>
        </g>
        <g transform="matrix(1.280747,0,0,1.280747,-394.649287,-272.816163)">
            <path d="M1697.51,882.898L1622.95,882.898C1617.45,882.898 1612.99,878.439 1612.99,872.938L1612.99,798.375C1612.99,792.874 1617.45,788.415 1622.95,788.415L1697.51,788.415C1703.01,788.415 1707.47,792.874 1707.47,798.375L1707.47,872.938C1707.47,878.439 1703.01,882.898 1697.51,882.898Z" style="fill:white;fill-rule:nonzero;"/>
        </g>
        <g transform="matrix(1.280747,0,0,1.280747,-394.649287,-272.816163)">
            <path d="M1622.95,790.627C1618.67,790.627 1615.2,794.103 1615.2,798.375L1615.2,872.938C1615.2,877.21 1618.67,880.685 1622.95,880.685L1697.51,880.685C1701.78,880.685 1705.26,877.21 1705.26,872.938L1705.26,798.375C1705.26,794.103 1701.78,790.627 1697.51,790.627L1622.95,790.627ZM1697.51,885.112L1622.95,885.112C1616.23,885.112 1610.77,879.651 1610.77,872.938L1610.77,798.375C1610.77,791.662 1616.23,786.201 1622.95,786.201L1697.51,786.201C1704.22,786.201 1709.68,791.662 1709.68,798.375L1709.68,872.938C1709.68,879.651 1704.22,885.112 1697.51,885.112Z" style="fill-rule:nonzero;"/>
        </g>
        <g transform="matrix(1.280747,0,0,1.280747,-394.649287,-272.816163)">
            <path d="M1824.7,882.897L1750.14,882.897C1744.64,882.897 1740.18,878.438 1740.18,872.937L1740.18,798.373C1740.18,792.872 1744.64,788.413 1750.14,788.413L1824.7,788.413C1830.2,788.413 1834.66,792.872 1834.66,798.373L1834.66,872.937C1834.66,878.438 1830.2,882.897 1824.7,882.897Z" style="fill:white;fill-rule:nonzero;"/>
        </g>
        <g transform="matrix(1.280747,0,0,1.280747,-394.649287,-272.816163)">
            <path d="M1750.14,790.626C1745.87,790.626 1742.39,794.102 1742.39,798.374L1742.39,872.937C1742.39,877.208 1745.87,880.684 1750.14,880.684L1824.7,880.684C1828.97,880.684 1832.45,877.208 1832.45,872.937L1832.45,798.374C1832.45,794.102 1828.97,790.626 1824.7,790.626L1750.14,790.626ZM1824.7,885.11L1750.14,885.11C1743.43,885.11 1737.96,879.649 1737.96,872.937L1737.96,798.374C1737.96,791.661 1743.43,786.2 1750.14,786.2L1824.7,786.2C1831.41,786.2 1836.88,791.661 1836.88,798.374L1836.88,872.937C1836.88,879.649 1831.41,885.11 1824.7,885.11Z" style="fill-rule:nonzero;"/>
        </g>
        <g transform="matrix(1.280747,0,0,1.280747,-394.649287,-272.816163)">
            <path d="M1438.28,1010.09L1363.71,1010.09C1358.21,1010.09 1353.75,1005.63 1353.75,1000.13L1353.75,925.564C1353.75,920.064 1358.21,915.604 1363.71,915.604L1438.28,915.604C1443.78,915.604 1448.24,920.064 1448.24,925.564L1448.24,1000.13C1448.24,1005.63 1443.78,1010.09 1438.28,1010.09Z" style="fill:white;fill-rule:nonzero;"/>
        </g>
        <g transform="matrix(1.280747,0,0,1.280747,-394.649287,-272.816163)">
            <path d="M1363.72,917.818C1359.44,917.818 1355.97,921.293 1355.97,925.565L1355.97,1000.13C1355.97,1004.4 1359.44,1007.88 1363.72,1007.88L1438.28,1007.88C1442.55,1007.88 1446.03,1004.4 1446.03,1000.13L1446.03,925.565C1446.03,921.293 1442.55,917.818 1438.28,917.818L1363.72,917.818ZM1438.28,1012.3L1363.72,1012.3C1357,1012.3 1351.54,1006.84 1351.54,1000.13L1351.54,925.565C1351.54,918.853 1357,913.392 1363.72,913.392L1438.28,913.392C1444.99,913.392 1450.45,918.853 1450.45,925.565L1450.45,1000.13C1450.45,1006.84 1444.99,1012.3 1438.28,1012.3Z" style="fill-rule:nonzero;"/>
        </g>
        <g transform="matrix(1.280747,0,0,1.280747,-394.649287,-272.816163)">
            <path d="M1566.68,1010.09L1492.12,1010.09C1486.62,1010.09 1482.16,1005.63 1482.16,1000.13L1482.16,925.564C1482.16,920.064 1486.62,915.604 1492.12,915.604L1566.68,915.604C1572.18,915.604 1576.64,920.064 1576.64,925.564L1576.64,1000.13C1576.64,1005.63 1572.18,1010.09 1566.68,1010.09Z" style="fill:white;fill-rule:nonzero;"/>
        </g>
        <g transform="matrix(1.280747,0,0,1.280747,-394.649287,-272.816163)">
            <path d="M1492.12,917.818C1487.84,917.818 1484.37,921.293 1484.37,925.565L1484.37,1000.13C1484.37,1004.4 1487.84,1007.88 1492.12,1007.88L1566.68,1007.88C1570.95,1007.88 1574.43,1004.4 1574.43,1000.13L1574.43,925.565C1574.43,921.293 1570.95,917.818 1566.68,917.818L1492.12,917.818ZM1566.68,1012.3L1492.12,1012.3C1485.4,1012.3 1479.94,1006.84 1479.94,1000.13L1479.94,925.565C1479.94,918.853 1485.4,913.392 1492.12,913.392L1566.68,913.392C1573.39,913.392 1578.85,918.853 1578.85,925.565L1578.85,1000.13C1578.85,1006.84 1573.39,1012.3 1566.68,1012.3Z" style="fill-rule:nonzero;"/>
        </g>
        <g transform="matrix(1.280747,0,0,1.280747,-394.649287,-272.816163)">
            <path d="M1697.51,1011.3L1622.94,1011.3C1617.44,1011.3 1612.98,1006.84 1612.98,1001.34L1612.98,926.776C1612.98,921.275 1617.44,916.816 1622.94,916.816L1697.51,916.816C1703.01,916.816 1707.47,921.275 1707.47,926.776L1707.47,1001.34C1707.47,1006.84 1703.01,1011.3 1697.51,1011.3Z" style="fill:white;fill-rule:nonzero;"/>
        </g>
        <g transform="matrix(1.280747,0,0,1.280747,-394.649287,-272.816163)">
            <path d="M1622.94,919.029C1618.67,919.029 1615.2,922.504 1615.2,926.776L1615.2,1001.34C1615.2,1005.61 1618.67,1009.09 1622.94,1009.09L1697.51,1009.09C1701.78,1009.09 1705.25,1005.61 1705.25,1001.34L1705.25,926.776C1705.25,922.504 1701.78,919.029 1697.51,919.029L1622.94,919.029ZM1697.51,1013.51L1622.94,1013.51C1616.23,1013.51 1610.77,1008.05 1610.77,1001.34L1610.77,926.776C1610.77,920.063 1616.23,914.603 1622.94,914.603L1697.51,914.603C1704.22,914.603 1709.68,920.063 1709.68,926.776L1709.68,1001.34C1709.68,1008.05 1704.22,1013.51 1697.51,1013.51Z" style="fill-rule:nonzero;"/>
        </g>
        <g transform="matrix(1.280747,0,0,1.280747,-394.649287,-272.816163)">
            <path d="M1824.7,1011.3L1750.13,1011.3C1744.63,1011.3 1740.17,1006.84 1740.17,1001.34L1740.17,926.774C1740.17,921.273 1744.63,916.814 1750.13,916.814L1824.7,916.814C1830.2,916.814 1834.66,921.273 1834.66,926.774L1834.66,1001.34C1834.66,1006.84 1830.2,1011.3 1824.7,1011.3Z" style="fill:white;fill-rule:nonzero;"/>
        </g>
        <g transform="matrix(1.280747,0,0,1.280747,-394.649287,-272.816163)">
            <path d="M1750.14,919.027C1745.86,919.027 1742.39,922.502 1742.39,926.774L1742.39,1001.34C1742.39,1005.61 1745.86,1009.08 1750.14,1009.08L1824.7,1009.08C1828.97,1009.08 1832.44,1005.61 1832.44,1001.34L1832.44,926.774C1832.44,922.502 1828.97,919.027 1824.7,919.027L1750.14,919.027ZM1824.7,1013.51L1750.14,1013.51C1743.42,1013.51 1737.96,1008.05 1737.96,1001.34L1737.96,926.774C1737.96,920.062 1743.42,914.601 1750.14,914.601L1824.7,914.601C1831.41,914.601 1836.87,920.062 1836.87,926.774L1836.87,1001.34C1836.87,1008.05 1831.41,1013.51 1824.7,1013.51Z" style="fill-rule:nonzero;"/>
        </g>
        <g transform="matrix(1.280747,0,0,1.280747,-394.649287,-272.816163)">
            <path d="M1440.7,1138.5L1366.14,1138.5C1360.64,1138.5 1356.18,1134.04 1356.18,1128.54L1356.18,1053.98C1356.18,1048.48 1360.64,1044.02 1366.14,1044.02L1440.7,1044.02C1446.2,1044.02 1450.66,1048.48 1450.66,1053.98L1450.66,1128.54C1450.66,1134.04 1446.2,1138.5 1440.7,1138.5Z" style="fill:white;fill-rule:nonzero;"/>
        </g>
        <g transform="matrix(1.280747,0,0,1.280747,-394.649287,-272.816163)">
            <path d="M1366.14,1046.23C1361.87,1046.23 1358.39,1049.71 1358.39,1053.98L1358.39,1128.54C1358.39,1132.81 1361.87,1136.29 1366.14,1136.29L1440.7,1136.29C1444.97,1136.29 1448.45,1132.81 1448.45,1128.54L1448.45,1053.98C1448.45,1049.71 1444.97,1046.23 1440.7,1046.23L1366.14,1046.23ZM1440.7,1140.71L1366.14,1140.71C1359.43,1140.71 1353.96,1135.25 1353.96,1128.54L1353.96,1053.98C1353.96,1047.26 1359.43,1041.8 1366.14,1041.8L1440.7,1041.8C1447.41,1041.8 1452.87,1047.26 1452.87,1053.98L1452.87,1128.54C1452.87,1135.25 1447.41,1140.71 1440.7,1140.71Z" style="fill-rule:nonzero;"/>
        </g>
        <g transform="matrix(1.280747,0,0,1.280747,-394.649287,-272.816163)">
            <path d="M1569.1,1138.5L1494.54,1138.5C1489.04,1138.5 1484.58,1134.04 1484.58,1128.54L1484.58,1053.98C1484.58,1048.48 1489.04,1044.02 1494.54,1044.02L1569.1,1044.02C1574.6,1044.02 1579.06,1048.48 1579.06,1053.98L1579.06,1128.54C1579.06,1134.04 1574.6,1138.5 1569.1,1138.5Z" style="fill:white;fill-rule:nonzero;"/>
        </g>
        <g transform="matrix(1.280747,0,0,1.280747,-394.649287,-272.816163)">
            <path d="M1494.54,1046.23C1490.27,1046.23 1486.79,1049.71 1486.79,1053.98L1486.79,1128.54C1486.79,1132.81 1490.27,1136.29 1494.54,1136.29L1569.1,1136.29C1573.37,1136.29 1576.85,1132.81 1576.85,1128.54L1576.85,1053.98C1576.85,1049.71 1573.37,1046.23 1569.1,1046.23L1494.54,1046.23ZM1569.1,1140.71L1494.54,1140.71C1487.83,1140.71 1482.37,1135.25 1482.37,1128.54L1482.37,1053.98C1482.37,1047.26 1487.83,1041.8 1494.54,1041.8L1569.1,1041.8C1575.81,1041.8 1581.28,1047.26 1581.28,1053.98L1581.28,1128.54C1581.28,1135.25 1575.81,1140.71 1569.1,1140.71Z" style="fill-rule:nonzero;"/>
        </g>
        <g transform="matrix(1.280747,0,0,1.280747,-394.649287,-272.816163)">
            <path d="M1699.93,1139.71L1625.37,1139.71C1619.87,1139.71 1615.41,1135.25 1615.41,1129.75L1615.41,1055.19C1615.41,1049.69 1619.87,1045.23 1625.37,1045.23L1699.93,1045.23C1705.43,1045.23 1709.89,1049.69 1709.89,1055.19L1709.89,1129.75C1709.89,1135.25 1705.43,1139.71 1699.93,1139.71Z" style="fill:white;fill-rule:nonzero;"/>
        </g>
        <g transform="matrix(1.280747,0,0,1.280747,-394.649287,-272.816163)">
            <path d="M1625.37,1047.44C1621.1,1047.44 1617.62,1050.92 1617.62,1055.19L1617.62,1129.75C1617.62,1134.02 1621.1,1137.5 1625.37,1137.5L1699.93,1137.5C1704.2,1137.5 1707.68,1134.02 1707.68,1129.75L1707.68,1055.19C1707.68,1050.92 1704.2,1047.44 1699.93,1047.44L1625.37,1047.44ZM1699.93,1141.93L1625.37,1141.93C1618.66,1141.93 1613.19,1136.46 1613.19,1129.75L1613.19,1055.19C1613.19,1048.48 1618.66,1043.01 1625.37,1043.01L1699.93,1043.01C1706.64,1043.01 1712.1,1048.48 1712.1,1055.19L1712.1,1129.75C1712.1,1136.46 1706.64,1141.93 1699.93,1141.93Z" style="fill-rule:nonzero;"/>
        </g>
        <g transform="matrix(1.280747,0,0,1.280747,-394.649287,-272.816163)">
            <path d="M1827.12,1139.71L1752.56,1139.71C1747.06,1139.71 1742.6,1135.25 1742.6,1129.75L1742.6,1055.19C1742.6,1049.69 1747.06,1045.23 1752.56,1045.23L1827.12,1045.23C1832.62,1045.23 1837.08,1049.69 1837.08,1055.19L1837.08,1129.75C1837.08,1135.25 1832.62,1139.71 1827.12,1139.71Z" style="fill:white;fill-rule:nonzero;"/>
        </g>
        <g transform="matrix(1.280747,0,0,1.280747,-394.649287,-272.816163)">
            <path d="M1752.56,1047.44C1748.29,1047.44 1744.81,1050.92 1744.81,1055.19L1744.81,1129.75C1744.81,1134.02 1748.29,1137.5 1752.56,1137.5L1827.12,1137.5C1831.39,1137.5 1834.87,1134.02 1834.87,1129.75L1834.87,1055.19C1834.87,1050.92 1831.39,1047.44 1827.12,1047.44L1752.56,1047.44ZM1827.12,1141.92L1752.56,1141.92C1745.85,1141.92 1740.39,1136.46 1740.39,1129.75L1740.39,1055.19C1740.39,1048.47 1745.85,1043.01 1752.56,1043.01L1827.12,1043.01C1833.83,1043.01 1839.29,1048.47 1839.29,1055.19L1839.29,1129.75C1839.29,1136.46 1833.83,1141.92 1827.12,1141.92Z" style="fill-rule:nonzero;"/>
        </g>
        <g transform="matrix(1.280747,0,0,1.280747,-394.649287,-272.816163)">
            <path d="M1440.7,1266.9L1366.13,1266.9C1360.63,1266.9 1356.17,1262.44 1356.17,1256.94L1356.17,1182.38C1356.17,1176.88 1360.63,1172.42 1366.13,1172.42L1440.7,1172.42C1446.2,1172.42 1450.66,1176.88 1450.66,1182.38L1450.66,1256.94C1450.66,1262.44 1446.2,1266.9 1440.7,1266.9Z" style="fill:white;fill-rule:nonzero;"/>
        </g>
        <g transform="matrix(1.280747,0,0,1.280747,-394.649287,-272.816163)">
            <path d="M1366.13,1174.63C1361.86,1174.63 1358.39,1178.11 1358.39,1182.38L1358.39,1256.94C1358.39,1261.21 1361.86,1264.69 1366.13,1264.69L1440.7,1264.69C1444.97,1264.69 1448.45,1261.21 1448.45,1256.94L1448.45,1182.38C1448.45,1178.11 1444.97,1174.63 1440.7,1174.63L1366.13,1174.63ZM1440.7,1269.12L1366.13,1269.12C1359.42,1269.12 1353.96,1263.65 1353.96,1256.94L1353.96,1182.38C1353.96,1175.67 1359.42,1170.2 1366.13,1170.2L1440.7,1170.2C1447.41,1170.2 1452.87,1175.67 1452.87,1182.38L1452.87,1256.94C1452.87,1263.65 1447.41,1269.12 1440.7,1269.12Z" style="fill-rule:nonzero;"/>
        </g>
        <g transform="matrix(1.280747,0,0,1.280747,-394.649287,-272.816163)">
            <path d="M1569.1,1266.9L1494.54,1266.9C1489.04,1266.9 1484.58,1262.44 1484.58,1256.94L1484.58,1182.38C1484.58,1176.88 1489.04,1172.42 1494.54,1172.42L1569.1,1172.42C1574.6,1172.42 1579.06,1176.88 1579.06,1182.38L1579.06,1256.94C1579.06,1262.44 1574.6,1266.9 1569.1,1266.9Z" style="fill:white;fill-rule:nonzero;"/>
        </g>
        <g transform="matrix(1.280747,0,0,1.280747,-394.649287,-272.816163)">
            <path d="M1494.54,1174.63C1490.27,1174.63 1486.79,1178.11 1486.79,1182.38L1486.79,1256.94C1486.79,1261.21 1490.27,1264.69 1494.54,1264.69L1569.1,1264.69C1573.37,1264.69 1576.85,1261.21 1576.85,1256.94L1576.85,1182.38C1576.85,1178.11 1573.37,1174.63 1569.1,1174.63L1494.54,1174.63ZM1569.1,1269.12L1494.54,1269.12C1487.83,1269.12 1482.36,1263.65 1482.36,1256.94L1482.36,1182.38C1482.36,1175.67 1487.83,1170.2 1494.54,1170.2L1569.1,1170.2C1575.81,1170.2 1581.27,1175.67 1581.27,1182.38L1581.27,1256.94C1581.27,1263.65 1575.81,1269.12 1569.1,1269.12Z" style="fill-rule:nonzero;"/>
        </g>
        <g transform="matrix(1.280747,0,0,1.280747,-394.649287,-272.816163)">
            <path d="M1699.93,1268.11L1625.36,1268.11C1619.86,1268.11 1615.4,1263.65 1615.4,1258.15L1615.4,1183.59C1615.4,1178.09 1619.86,1173.63 1625.36,1173.63L1699.93,1173.63C1705.43,1173.63 1709.89,1178.09 1709.89,1183.59L1709.89,1258.15C1709.89,1263.65 1705.43,1268.11 1699.93,1268.11Z" style="fill:white;fill-rule:nonzero;"/>
        </g>
        <g transform="matrix(1.280747,0,0,1.280747,-394.649287,-272.816163)">
            <path d="M1625.36,1175.84C1621.09,1175.84 1617.62,1179.32 1617.62,1183.59L1617.62,1258.15C1617.62,1262.42 1621.09,1265.9 1625.36,1265.9L1699.93,1265.9C1704.2,1265.9 1707.67,1262.42 1707.67,1258.15L1707.67,1183.59C1707.67,1179.32 1704.2,1175.84 1699.93,1175.84L1625.36,1175.84ZM1699.93,1270.33L1625.36,1270.33C1618.65,1270.33 1613.19,1264.87 1613.19,1258.15L1613.19,1183.59C1613.19,1176.88 1618.65,1171.42 1625.36,1171.42L1699.93,1171.42C1706.64,1171.42 1712.1,1176.88 1712.1,1183.59L1712.1,1258.15C1712.1,1264.87 1706.64,1270.33 1699.93,1270.33Z" style="fill-rule:nonzero;"/>
        </g>
        <g transform="matrix(1.280747,0,0,1.280747,-394.649287,-272.816163)">
            <path d="M1827.12,1268.11L1752.55,1268.11C1747.05,1268.11 1742.59,1263.65 1742.59,1258.15L1742.59,1183.59C1742.59,1178.09 1747.05,1173.63 1752.55,1173.63L1827.12,1173.63C1832.62,1173.63 1837.08,1178.09 1837.08,1183.59L1837.08,1258.15C1837.08,1263.65 1832.62,1268.11 1827.12,1268.11Z" style="fill:white;fill-rule:nonzero;"/>
        </g>
        <g transform="matrix(1.280747,0,0,1.280747,-394.649287,-272.816163)">
            <path d="M1752.55,1175.84C1748.28,1175.84 1744.81,1179.32 1744.81,1183.59L1744.81,1258.15C1744.81,1262.42 1748.28,1265.9 1752.55,1265.9L1827.12,1265.9C1831.39,1265.9 1834.87,1262.42 1834.87,1258.15L1834.87,1183.59C1834.87,1179.32 1831.39,1175.84 1827.12,1175.84L1752.55,1175.84ZM1827.12,1270.33L1752.55,1270.33C1745.84,1270.33 1740.38,1264.86 1740.38,1258.15L1740.38,1183.59C1740.38,1176.88 1745.84,1171.41 1752.55,1171.41L1827.12,1171.41C1833.83,1171.41 1839.29,1176.88 1839.29,1183.59L1839.29,1258.15C1839.29,1264.86 1833.83,1270.33 1827.12,1270.33Z" style="fill-rule:nonzero;"/>
        </g>
        <g transform="matrix(1.280747,0,0,1.280747,-394.649287,-272.816163)">
            <path d="M1666.41,1361.42L1543.29,1361.42C1539.82,1361.42 1537.01,1358.61 1537.01,1355.15L1537.01,1304.9C1537.01,1301.44 1539.82,1298.63 1543.29,1298.63L1666.41,1298.63C1669.88,1298.63 1672.68,1301.44 1672.68,1304.9L1672.68,1355.15C1672.68,1358.61 1669.88,1361.42 1666.41,1361.42Z" style="fill:white;fill-rule:nonzero;"/>
        </g>
        <g transform="matrix(1.280747,0,0,1.280747,-394.649287,-272.816163)">
            <path d="M1543.29,1300.84C1541.05,1300.84 1539.23,1302.66 1539.23,1304.9L1539.23,1355.14C1539.23,1357.38 1541.05,1359.21 1543.29,1359.21L1666.41,1359.21C1668.65,1359.21 1670.47,1357.38 1670.47,1355.14L1670.47,1304.9C1670.47,1302.66 1668.65,1300.84 1666.41,1300.84L1543.29,1300.84ZM1666.41,1363.63L1543.29,1363.63C1538.61,1363.63 1534.8,1359.82 1534.8,1355.14L1534.8,1304.9C1534.8,1300.22 1538.61,1296.41 1543.29,1296.41L1666.41,1296.41C1671.09,1296.41 1674.9,1300.22 1674.9,1304.9L1674.9,1355.14C1674.9,1359.82 1671.09,1363.63 1666.41,1363.63Z" style="fill-rule:nonzero;"/>
        </g>
        <g transform="matrix(1.280747,0,0,1.280747,-394.649287,-272.816163)">
            <path d="M1261.12,339.636C1246.44,339.636 1234.49,351.58 1234.49,366.261L1234.49,1723.1C1234.49,1737.78 1246.44,1749.73 1261.12,1749.73L1930.2,1749.73C1944.88,1749.73 1956.83,1737.78 1956.83,1723.1L1956.83,366.261C1956.83,351.58 1944.88,339.636 1930.2,339.636L1261.12,339.636ZM1930.2,1754.15L1261.12,1754.15C1244,1754.15 1230.06,1740.22 1230.06,1723.1L1230.06,366.261C1230.06,349.139 1244,335.209 1261.12,335.209L1930.2,335.209C1947.33,335.209 1961.26,349.139 1961.26,366.261L1961.26,1723.1C1961.26,1740.22 1947.33,1754.15 1930.2,1754.15Z" style="fill-rule:nonzero;"/>
        </g>
        <g transform="matrix(1.280747,0,0,1.280747,-394.649287,-272.816163)">
            <path d="M1693.8,1766.5L1522.29,1766.5C1518.1,1766.5 1514.71,1763.1 1514.71,1758.92L1514.71,1491.47C1514.71,1475.97 1527.27,1463.4 1542.77,1463.4L1682.17,1463.4C1693.39,1463.4 1702.49,1472.5 1702.49,1483.72L1702.49,1757.81C1702.49,1762.61 1698.6,1766.5 1693.8,1766.5Z" style="fill:white;fill-rule:nonzero;"/>
        </g>
        <g transform="matrix(1.280747,0,0,1.280747,-394.649287,-272.816163)">
            <path d="M1542.77,1465.62C1528.52,1465.62 1516.92,1477.21 1516.92,1491.47L1516.92,1758.92C1516.92,1761.88 1519.33,1764.28 1522.29,1764.28L1693.8,1764.28C1697.37,1764.28 1700.27,1761.38 1700.27,1757.81L1700.27,1483.72C1700.27,1473.74 1692.15,1465.62 1682.17,1465.62L1542.77,1465.62ZM1693.8,1768.71L1522.29,1768.71C1516.89,1768.71 1512.5,1764.32 1512.5,1758.92L1512.5,1491.47C1512.5,1474.77 1526.08,1461.19 1542.77,1461.19L1682.17,1461.19C1694.59,1461.19 1704.7,1471.3 1704.7,1483.72L1704.7,1757.81C1704.7,1763.82 1699.81,1768.71 1693.8,1768.71Z" style="fill-rule:nonzero;"/>
        </g>
        <g transform="matrix(1.280747,0,0,1.280747,-394.649287,-272.816163)">
            <path d="M1633.83,1597.94L1579.19,1597.94C1572.26,1597.94 1566.65,1592.32 1566.65,1585.4L1566.65,1530.75C1566.65,1523.83 1572.26,1518.21 1579.19,1518.21L1633.83,1518.21C1640.76,1518.21 1646.37,1523.83 1646.37,1530.75L1646.37,1585.4C1646.37,1592.32 1640.76,1597.94 1633.83,1597.94Z" style="fill-rule:nonzero;"/>
        </g>
        <g transform="matrix(1.280747,0,0,1.280747,-394.649287,-272.816163)">
            <path d="M1841.81,739.595L1354.15,739.595C1344.98,739.595 1337.54,732.161 1337.54,722.991L1337.54,436.406C1337.54,427.236 1344.98,419.803 1354.15,419.803L1841.81,419.803C1850.98,419.803 1858.42,427.236 1858.42,436.406L1858.42,722.991C1858.42,732.161 1850.98,739.595 1841.81,739.595Z" style="fill:white;fill-rule:nonzero;"/>
        </g>
        <g transform="matrix(1.280747,0,0,1.280747,-394.649287,-272.816163)">
            <path d="M1354.14,422.016C1346.21,422.016 1339.76,428.471 1339.76,436.406L1339.76,722.991C1339.76,730.925 1346.21,737.381 1354.14,737.381L1841.81,737.381C1849.75,737.381 1856.2,730.925 1856.2,722.991L1856.2,436.406C1856.2,428.471 1849.75,422.016 1841.81,422.016L1354.14,422.016ZM1841.81,741.808L1354.14,741.808C1343.77,741.808 1335.33,733.366 1335.33,722.991L1335.33,436.406C1335.33,426.03 1343.77,417.589 1354.14,417.589L1841.81,417.589C1852.19,417.589 1860.63,426.03 1860.63,436.406L1860.63,722.991C1860.63,733.366 1852.19,741.808 1841.81,741.808Z" style="fill-rule:nonzero;"/>
        </g>
        <g transform="matrix(1.280747,0,0,1.280747,-394.649287,-272.816163)">
            <path d="M1481.37,591.734C1481.37,604.569 1470.97,614.975 1458.13,614.975C1445.3,614.975 1434.89,604.569 1434.89,591.734C1434.89,578.899 1445.3,568.494 1458.13,568.494C1470.97,568.494 1481.37,578.899 1481.37,591.734Z" style="fill-rule:nonzero;"/>
        </g>
        <g transform="matrix(1.280747,0,0,1.280747,-394.649287,-272.816163)">
            <path d="M1554.41,590.627C1554.41,603.463 1544.01,613.868 1531.17,613.868C1518.34,613.868 1507.93,603.463 1507.93,590.627C1507.93,577.792 1518.34,567.387 1531.17,567.387C1544.01,567.387 1554.41,577.792 1554.41,590.627Z" style="fill-rule:nonzero;"/>
        </g>
        <g transform="matrix(1.280747,0,0,1.280747,-394.649287,-272.816163)">
            <path d="M1628.56,589.522C1628.56,602.357 1618.15,612.763 1605.32,612.763C1592.48,612.763 1582.08,602.357 1582.08,589.522C1582.08,576.687 1592.48,566.282 1605.32,566.282C1618.15,566.282 1628.56,576.687 1628.56,589.522Z" style="fill-rule:nonzero;"/>
        </g>
        <g transform="matrix(1.280747,0,0,1.280747,-394.649287,-272.816163)">
            <path d="M1701.6,588.416C1701.6,601.251 1691.19,611.656 1678.36,611.656C1665.52,611.656 1655.12,601.251 1655.12,588.416C1655.12,575.581 1665.52,565.175 1678.36,565.175C1691.19,565.175 1701.6,575.581 1701.6,588.416Z" style="fill-rule:nonzero;"/>
        </g>
        <g transform="matrix(1.280747,0,0,1.280747,-394.649287,-272.816163)">
            <path d="M1773.53,586.202C1773.53,599.038 1763.13,609.442 1750.29,609.442C1737.46,609.442 1727.05,599.038 1727.05,586.202C1727.05,573.367 1737.46,562.962 1750.29,562.962C1763.13,562.962 1773.53,573.367 1773.53,586.202Z" style="fill-rule:nonzero;"/>
        </g>
        <g transform="matrix(1.280747,0,0,1.280747,-394.649287,-272.816163)">
            <path d="M2049.12,739.775C2048.56,739.775 2047.99,739.559 2047.56,739.127C2046.69,738.263 2046.69,736.861 2047.56,735.997L2055.28,728.275C2056.139,727.41 2057.54,727.411 2058.409,728.274C2059.27,729.139 2059.27,730.54 2058.409,731.405L2050.69,739.126C2050.26,739.559 2049.69,739.775 2049.12,739.775Z" style="fill-rule:nonzero;"/>
        </g>
        <g transform="matrix(1.280747,0,0,1.280747,-394.649287,-272.816163)">
            <path d="M2078.3,710.603C2077.73,710.603 2077.159,710.387 2076.73,709.954C2075.87,709.09 2075.87,707.688 2076.73,706.824L2084.45,699.103C2085.32,698.238 2086.72,698.238 2087.58,699.103C2088.45,699.967 2088.45,701.368 2087.58,702.233L2079.86,709.955C2079.429,710.387 2078.86,710.603 2078.3,710.603Z" style="fill-rule:nonzero;"/>
        </g>
        <g transform="matrix(1.280747,0,0,1.280747,-394.649287,-272.816163)">
            <path d="M2086.02,739.775C2085.45,739.775 2084.889,739.559 2084.45,739.127L2076.73,731.405C2075.87,730.541 2075.87,729.14 2076.73,728.275C2077.59,727.41 2079,727.411 2079.86,728.274L2087.58,735.996C2088.45,736.861 2088.45,738.262 2087.58,739.126C2087.149,739.559 2086.58,739.775 2086.02,739.775Z" style="fill-rule:nonzero;"/>
        </g>
        <g transform="matrix(1.280747,0,0,1.280747,-394.649287,-272.816163)">
            <path d="M2056.84,710.603C2056.28,710.603 2055.71,710.387 2055.28,709.954L2047.56,702.232C2046.69,701.368 2046.69,699.967 2047.56,699.103C2048.419,698.238 2049.82,698.238 2050.69,699.103L2058.409,706.825C2059.27,707.689 2059.27,709.09 2058.409,709.955C2057.98,710.387 2057.409,710.603 2056.84,710.603Z" style="fill-rule:nonzero;"/>
        </g>
        <g transform="matrix(1.280747,0,0,1.280747,-394.649287,-272.816163)">
            <path d="M457.287,1066.01C456.98,1066.01 456.669,1065.95 456.373,1065.81C455.26,1065.31 454.769,1064 455.275,1062.88L459.801,1052.94C460.307,1051.83 461.625,1051.34 462.732,1051.85C463.845,1052.35 464.336,1053.67 463.83,1054.78L459.304,1064.72C458.932,1065.53 458.128,1066.01 457.287,1066.01Z" style="fill-rule:nonzero;"/>
        </g>
        <g transform="matrix(1.280747,0,0,1.280747,-394.649287,-272.816163)">
            <path d="M474.389,1028.47C474.082,1028.47 473.771,1028.41 473.475,1028.27C472.361,1027.76 471.871,1026.45 472.376,1025.34L476.903,1015.4C477.411,1014.29 478.725,1013.8 479.833,1014.3C480.947,1014.81 481.438,1016.12 480.932,1017.24L476.405,1027.17C476.034,1027.99 475.229,1028.47 474.389,1028.47Z" style="fill-rule:nonzero;"/>
        </g>
        <g transform="matrix(1.280747,0,0,1.280747,-394.649287,-272.816163)">
            <path d="M491.843,1053.09C491.536,1053.09 491.225,1053.02 490.928,1052.89L480.99,1048.36C479.877,1047.85 479.386,1046.54 479.892,1045.43C480.4,1044.32 481.716,1043.83 482.823,1044.33L492.761,1048.86C493.875,1049.37 494.365,1050.68 493.859,1051.79C493.488,1052.6 492.684,1053.09 491.843,1053.09Z" style="fill-rule:nonzero;"/>
        </g>
        <g transform="matrix(1.280747,0,0,1.280747,-394.649287,-272.816163)">
            <path d="M454.298,1035.99C453.991,1035.99 453.68,1035.92 453.383,1035.79L443.445,1031.26C442.332,1030.75 441.841,1029.44 442.347,1028.33C442.855,1027.22 444.171,1026.72 445.278,1027.23L455.216,1031.76C456.33,1032.26 456.82,1033.58 456.314,1034.69C455.943,1035.5 455.139,1035.99 454.298,1035.99Z" style="fill-rule:nonzero;"/>
        </g>
        <g transform="matrix(1.280747,0,0,1.280747,-394.649287,-272.816163)">
            <path d="M556.7,1159.88C550.36,1159.88 545.201,1165.04 545.201,1171.38C545.201,1177.72 550.36,1182.88 556.7,1182.88C563.04,1182.88 568.199,1177.72 568.199,1171.38C568.199,1165.04 563.04,1159.88 556.7,1159.88ZM556.7,1187.31C547.918,1187.31 540.774,1180.16 540.774,1171.38C540.774,1162.6 547.918,1155.46 556.7,1155.46C565.482,1155.46 572.625,1162.6 572.625,1171.38C572.625,1180.16 565.482,1187.31 556.7,1187.31Z" style="fill-rule:nonzero;"/>
        </g>
        <g transform="matrix(1.280747,0,0,1.280747,-394.649287,-272.816163)">
            <path d="M855.236,1691.37C813.242,1749.56 781.179,1849.04 756.714,1964.72C755.103,1972.34 736.859,2106.65 744.29,2108.98C899.225,2157.68 910.292,2157.68 1014.32,2164.32C1040.56,2165.99 1151.55,2164.32 1228.49,2162.14C1235.17,2161.95 1240.91,2157.63 1240.54,2150.96C1231,1975.95 1214.39,1764.94 1214.39,1764.94L855.236,1691.37Z" style="fill:white;fill-rule:nonzero;"/>
        </g>
        <g transform="matrix(1.280747,0,0,1.280747,-394.649287,-272.816163)">
            <path d="M1240.54,2153.17C1239.37,2153.17 1238.4,2152.26 1238.33,2151.08C1229.35,1986.24 1213.89,1786.99 1212.31,1766.78L856.199,1693.83C818.522,1746.71 785.782,1837.99 758.88,1965.18C756.55,1976.19 740.882,2097.84 745.503,2107.13C746.311,2107.66 746.707,2108.68 746.402,2109.65C746.032,2110.81 744.796,2111.46 743.626,2111.1C741.048,2110.29 737.153,2109.06 744.911,2038.59C748.656,2004.57 753.669,1968.42 754.549,1964.26C781.777,1835.52 815.048,1743.28 853.443,1690.08C853.951,1689.37 854.828,1689.03 855.68,1689.21L1214.83,1762.77C1215.8,1762.97 1216.51,1763.78 1216.59,1764.77C1216.76,1766.88 1233.32,1977.8 1242.75,2150.84C1242.82,2152.06 1241.88,2153.1 1240.66,2153.17L1240.54,2153.17Z" style="fill-rule:nonzero;"/>
        </g>
        <g transform="matrix(1.280747,0,0,1.280747,-394.649287,-272.816163)">
            <path d="M1303.87,1256.07C1303.87,1256.07 1400.95,1321.42 1446.33,1309.11C1510.18,1291.79 1538.29,1129.13 1541.04,1114.69C1543.79,1100.25 1556.09,1027.03 1568.85,999.713C1580.84,974.038 1588.14,947.756 1591.99,931.597C1594.31,921.857 1600.95,917.147 1607.52,918.147C1613.3,919.027 1617.13,923.556 1613.88,938.08C1610.13,954.878 1606.78,971.774 1603.71,986.14C1602.74,990.664 1600.91,994.935 1604.09,991.724C1611.5,984.243 1623.48,975.909 1635.58,971.86C1640.89,970.083 1683.22,924.22 1694.47,929.847C1704.54,934.88 1647.16,997.736 1649.46,1005.25C1655.14,1023.77 1651.89,1048.53 1642.9,1070.88C1627.59,1108.92 1603.13,1104.65 1598.9,1122.56C1594.67,1140.47 1572.61,1367.69 1554.95,1409.28C1529.56,1469.1 1286.07,1425.44 1286.07,1425.44L1303.87,1256.07Z" style="fill:white;fill-rule:nonzero;"/>
        </g>
        <g transform="matrix(1.280747,0,0,1.280747,-394.649287,-272.816163)">
            <path d="M1288.49,1423.62C1311.94,1427.62 1529.7,1463.11 1552.91,1408.42C1565.35,1379.12 1580.23,1254.87 1589.12,1180.63C1592.82,1149.7 1595.5,1127.34 1596.75,1122.05C1598.74,1113.61 1604.76,1109.61 1611.73,1104.98C1620.89,1098.9 1632.29,1091.33 1640.84,1070.05C1650.14,1046.93 1652.57,1022.95 1647.34,1005.89C1646.13,1001.96 1651.98,993.6 1667.76,972.461C1678.04,958.704 1695.23,935.677 1693.39,931.732C1687.03,928.611 1662.28,951.314 1650.38,962.229C1642.04,969.883 1638.27,973.294 1636.28,973.958C1623.6,978.205 1611.86,987.021 1605.66,993.281C1604.86,994.092 1603.19,995.781 1601.36,994.737C1599.5,993.674 1600.02,991.665 1600.82,988.625C1601.06,987.715 1601.33,986.703 1601.55,985.677C1602.68,980.368 1603.86,974.712 1605.07,968.844C1607.18,958.694 1609.35,948.198 1611.73,937.597C1613.34,930.364 1613.25,925.354 1611.43,922.705C1610.53,921.393 1609.19,920.639 1607.19,920.335C1601.27,919.435 1596.04,924.169 1594.15,932.111C1590,949.494 1582.6,975.496 1570.85,1000.65C1559.66,1024.62 1548.64,1085.26 1544.5,1108.09C1543.96,1111.08 1543.52,1113.47 1543.21,1115.11L1542.86,1117C1532.98,1170.26 1503.85,1295.81 1446.91,1311.25C1442.81,1312.36 1438.31,1312.87 1433.53,1312.87C1389.59,1312.87 1321.18,1270.01 1305.69,1259.93L1288.49,1423.62ZM1446.15,1443.11C1373.44,1443.11 1291.5,1428.67 1285.68,1427.62C1284.54,1427.42 1283.75,1426.37 1283.87,1425.21L1301.67,1255.84C1301.75,1255.07 1302.23,1254.4 1302.93,1254.07C1303.64,1253.74 1304.46,1253.8 1305.11,1254.24C1306.07,1254.89 1401.85,1318.88 1445.75,1306.98C1500.27,1292.19 1528.78,1168.63 1538.51,1116.19L1538.86,1114.28C1539.17,1112.65 1539.6,1110.27 1540.14,1107.29C1544.32,1084.31 1555.41,1023.27 1566.84,998.777C1578.43,973.96 1585.75,948.268 1589.84,931.085C1592.3,920.773 1599.54,914.697 1607.85,915.958C1611.06,916.447 1613.49,917.876 1615.09,920.206C1617.65,923.96 1617.97,929.965 1616.04,938.563C1613.68,949.131 1611.51,959.609 1609.41,969.742C1608.19,975.621 1607.01,981.285 1605.87,986.603C1605.84,986.764 1605.81,986.926 1605.77,987.087C1612.86,980.762 1623.39,973.606 1634.88,969.761C1636.22,969.215 1642.15,963.771 1647.39,958.968C1668.67,939.442 1686.97,923.626 1695.46,927.867C1696.63,928.45 1697.41,929.453 1697.72,930.768C1699.22,937.117 1688.75,951.755 1671.31,975.11C1662.95,986.31 1651.5,1001.65 1651.6,1004.74C1657.09,1022.59 1654.62,1047.68 1644.95,1071.71C1635.88,1094.25 1623.33,1102.58 1614.18,1108.67C1607.48,1113.11 1602.65,1116.33 1601.06,1123.07C1599.86,1128.12 1597.06,1151.52 1593.51,1181.16C1584.59,1255.63 1569.67,1380.27 1556.99,1410.15C1546.19,1435.6 1498.57,1443.11 1446.15,1443.11Z" style="fill-rule:nonzero;"/>
        </g>
        <g transform="matrix(1.280747,0,0,1.280747,-394.649287,-272.816163)">
            <path d="M895.28,1167.66C1012.31,1115.45 1238.48,1126.27 1397.15,1296.55C1415.81,1316.57 1361.92,1467.6 1313.86,1457.21C1271.39,1448.03 1236.77,1437.4 1233.53,1461.99C1229.05,1495.96 1259.52,1768.19 1215.16,1844.97C1135.91,1982.13 899.542,1961.65 777.917,1894.78C745.804,1877.13 779.527,1828.54 803.134,1670.05C820.719,1551.99 830.965,1454.16 809.193,1491.9C798.508,1510.42 686.688,1399.04 698.36,1365.78C723.956,1292.83 768.983,1224.01 895.28,1167.66Z" style="fill-rule:nonzero;"/>
        </g>
        <g transform="matrix(1.280747,0,0,1.280747,-394.649287,-272.816163)">
            <path d="M1515.4,1129.23L1609.12,1141.94C1615.48,1357.98 1594.91,1513.2 1313.86,1457.21L1351.78,1256.31C1456.58,1329.45 1495.59,1240.49 1515.4,1129.23Z" style="fill-rule:nonzero;"/>
        </g>
        <g transform="matrix(1.280747,0,0,1.280747,-394.649287,-272.816163)">
            <path d="M724.319,1311.91C587.707,1510.47 666.237,1916.49 851.401,1919.52L846.635,1743.99C831.138,1724.38 823.316,1530.64 852.592,1469.17L724.319,1311.91Z" style="fill-rule:nonzero;"/>
        </g>
        <g transform="matrix(1.280747,0,0,1.280747,-394.649287,-272.816163)">
            <path d="M769.793,1890.76C769.597,1890.76 769.396,1890.73 769.197,1890.67C768.019,1890.35 767.332,1889.13 767.66,1887.95C795.267,1788.94 810.646,1630.45 815.831,1515.14C815.887,1513.92 816.905,1512.97 818.142,1513.03C819.363,1513.08 820.307,1514.12 820.253,1515.34C815.057,1630.89 799.63,1789.77 771.922,1889.14C771.65,1890.12 770.762,1890.76 769.793,1890.76Z" style="fill:white;fill-rule:nonzero;"/>
        </g>
        <g transform="matrix(1.280747,0,0,1.280747,-394.649287,-272.816163)">
            <path d="M966.172,1149.78C967.432,1145.13 1013.46,1106.97 1001.4,1021.18C1001.4,1021.18 939.139,936.544 958.071,899.209C977.004,861.874 975.409,806.686 1039.01,806.231C1102.6,805.776 1140.01,834.308 1154.67,871.403C1169.34,908.497 1173.2,945.669 1174.56,967.259C1175.56,983.24 1173.42,1018.96 1172.23,1036.45C1171.83,1042.47 1167.68,1047.56 1161.86,1049.19L1142.64,1054.58C1136.38,1056.33 1132.1,1062.1 1132.24,1068.61L1132.95,1102.95C1135.96,1186.93 1108.76,1175.26 1088.82,1179.8C1037.92,1191.38 959.501,1174.4 966.172,1149.78Z" style="fill:white;fill-rule:nonzero;"/>
        </g>
        <g transform="matrix(1.280747,0,0,1.280747,-394.649287,-272.816163)">
            <path d="M968.289,1150.43C967.372,1153.92 968.52,1157.28 971.794,1160.69C988.438,1178.03 1048.339,1186.74 1088.33,1177.64C1091.38,1176.95 1094.6,1176.62 1097.71,1176.3C1115.17,1174.5 1133.23,1172.64 1130.74,1103.03L1130.02,1068.65C1129.87,1061.14 1134.81,1054.48 1142.05,1052.45L1161.27,1047.06C1166.16,1045.68 1169.68,1041.36 1170.03,1036.3C1171.31,1017.25 1173.32,982.96 1172.35,967.398C1170.11,931.694 1163.47,899.67 1152.61,872.216C1136.43,831.287 1095.08,808.09 1039.02,808.444C992.324,808.778 982.197,838.922 971.477,870.837C968.135,880.786 964.679,891.072 960.044,900.209C941.938,935.917 1002.57,1019.04 1003.18,1019.87C1003.4,1020.17 1003.54,1020.51 1003.59,1020.87C1013.98,1094.76 981.72,1133.92 971.118,1146.79C969.855,1148.32 968.552,1149.9 968.289,1150.43ZM1051.89,1185.78C1017.24,1185.78 981.549,1177.24 968.602,1163.76C964.259,1159.24 962.682,1154.2 964.037,1149.2C964.35,1148.04 965.401,1146.77 967.703,1143.97C977.972,1131.51 1009.17,1093.64 999.284,1022.04C993.841,1014.56 937.293,935.29 956.098,898.208C960.585,889.357 963.989,879.226 967.281,869.428C978.024,837.445 989.134,804.374 1038.99,804.018C1096.9,803.623 1139.84,827.867 1156.73,870.589C1167.75,898.475 1174.5,930.953 1176.77,967.121C1177.76,982.933 1175.74,1017.44 1174.44,1036.6C1173.97,1043.53 1169.16,1049.44 1162.46,1051.32L1143.24,1056.71C1137.95,1058.19 1134.34,1063.07 1134.45,1068.56L1135.17,1102.91C1137.8,1176.62 1116.74,1178.79 1098.16,1180.7C1095.05,1181.02 1092.1,1181.32 1089.31,1181.96C1077.83,1184.57 1064.93,1185.78 1051.89,1185.78Z" style="fill-rule:nonzero;"/>
        </g>
        <g transform="matrix(1.280747,0,0,1.280747,-394.649287,-272.816163)">
            <path d="M1133.08,928.756C1140.78,925.521 1145.8,918.049 1145.97,909.696C1146.17,899.693 1140.08,876.707 1154.67,871.403C1193.87,857.156 1178.63,810.032 1155.31,792.599C1131.98,775.166 1040.579,746.22 994.356,771.351C994.356,771.351 976.066,786.682 980.175,801.852C980.175,801.852 943.382,802.915 934.778,830.176C926.173,857.438 911.689,957.541 1003.43,1033.28C1003.43,1033.28 1027.11,1036.07 1053.45,1029.1C1068.77,1025.05 1079.98,1011.9 1082.11,996.202C1085.38,972.126 1095.15,935.252 1101.82,924.309C1101.82,924.309 1097.57,907.255 1107.13,902.87C1113.35,900.023 1120.91,907.221 1124.27,913.169L1133.08,928.756Z" style="fill-rule:nonzero;"/>
        </g>
        <g transform="matrix(1.280747,0,0,1.280747,-394.649287,-272.816163)">
            <path d="M1169.7,1045.11C1169.58,1045.11 1169.46,1045.1 1169.33,1045.08C1168.99,1045.02 1134.86,1038.91 1126.89,1001.8C1126.63,1000.61 1127.39,999.432 1128.59,999.175C1129.78,998.914 1130.96,999.679 1131.22,1000.87C1138.57,1035.07 1169.75,1040.66 1170.06,1040.71C1171.27,1040.91 1172.08,1042.05 1171.88,1043.26C1171.7,1044.34 1170.76,1045.11 1169.7,1045.11Z" style="fill-rule:nonzero;"/>
        </g>
        <g transform="matrix(1.280747,0,0,1.280747,-394.649287,-272.816163)">
            <path d="M1126.54,966.616L1126.49,966.616C1125.32,966.589 1097.73,965.404 1090.4,916.575C1090.22,915.366 1091.06,914.239 1092.26,914.057C1093.49,913.875 1094.6,914.71 1094.78,915.917C1101.52,960.827 1125.58,962.156 1126.6,962.19C1127.82,962.231 1128.78,963.248 1128.74,964.465C1128.71,965.665 1127.73,966.616 1126.54,966.616Z" style="fill-rule:nonzero;"/>
        </g>
        <g transform="matrix(1.280747,0,0,1.280747,-394.649287,-272.816163)">
            <path d="M910.694,659.823C910.694,741.178 844.743,807.129 763.388,807.129C682.033,807.129 616.082,741.178 616.082,659.823C616.082,578.468 682.033,512.517 763.388,512.517C844.743,512.517 910.694,578.468 910.694,659.823Z" style="fill-rule:nonzero;"/>
        </g>
        <g transform="matrix(1.280747,0,0,1.280747,-394.649287,-272.816163)">
            <path d="M797.521,639.061L796.776,592.331C796.434,577.232 784.465,564.873 769.378,564.18C752.75,563.417 738.951,577.014 739.336,593.655L739.667,608.154C739.782,613.212 735.604,617.316 730.549,617.111C725.9,616.922 722.209,613.133 722.142,608.481L721.942,594.714C721.318,567.981 742.718,546.036 770.312,547.158L770.311,547.182C793.105,548.108 813.962,568.164 814.532,592.584L815.121,639.776L797.521,639.061Z" style="fill:white;fill-rule:nonzero;"/>
        </g>
        <g transform="matrix(1.280747,0,0,1.280747,-394.649287,-272.816163)">
            <path d="M799.7,636.934L812.88,637.47L812.318,592.611C811.795,570.102 792.515,550.299 770.219,549.393C770.113,549.389 770.01,549.377 769.906,549.358C757.495,548.928 745.948,553.367 737.315,561.853C728.538,570.482 723.862,582.134 724.156,594.663L724.355,608.449C724.405,611.925 727.165,614.758 730.641,614.899C732.48,614.975 734.192,614.309 735.495,613.028C736.799,611.746 737.495,610.033 737.454,608.204L737.123,593.706C736.926,585.129 740.337,576.764 746.484,570.756C752.688,564.694 760.821,561.572 769.48,561.968C785.659,562.712 798.621,576.026 798.991,592.28L799.7,636.934ZM815.122,641.99C815.092,641.99 815.062,641.989 815.031,641.988L797.43,641.272C796.259,641.225 795.327,640.27 795.308,639.096L794.564,592.366C794.246,578.444 783.141,567.028 769.277,566.39C761.878,566.053 754.892,568.726 749.577,573.921C744.305,579.075 741.379,586.249 741.549,593.604L741.88,608.104C741.947,611.124 740.752,614.07 738.597,616.186C736.442,618.302 733.45,619.442 730.459,619.322C724.638,619.086 720.013,614.337 719.928,608.513L719.729,594.746C719.407,581.001 724.552,568.192 734.213,558.696C743.802,549.27 756.66,544.387 770.403,544.947C770.513,544.951 770.624,544.964 770.731,544.985C795.135,546.165 816.17,567.861 816.745,592.532L817.335,639.749C817.342,640.356 817.1,640.94 816.665,641.364C816.25,641.766 815.697,641.99 815.122,641.99Z" style="fill-rule:nonzero;"/>
        </g>
        <g transform="matrix(1.280747,0,0,1.280747,-394.649287,-272.816163)">
            <path d="M777.988,767.543L758.275,768.321C730.979,767.639 706.85,735.017 709.44,696.674L713.582,635.338L829.6,634.408C839.895,634.367 848.522,643.548 847.813,653.82L844.231,705.622C841.878,740.475 812.92,767.543 777.988,767.543Z" style="fill:white;fill-rule:nonzero;"/>
        </g>
        <g transform="matrix(1.280747,0,0,1.280747,-394.649287,-272.816163)">
            <path d="M758.982,766.583C720.551,766.583 690.147,734.055 692.739,695.711L696.758,636.25L819.422,636.25C825.064,636.25 829.528,641.025 829.147,646.654L825.226,704.666C822.871,739.518 793.914,766.583 758.982,766.583Z" style="fill:white;fill-rule:nonzero;"/>
        </g>
        <g transform="matrix(1.280747,0,0,1.280747,-394.649287,-272.816163)">
            <path d="M698.826,638.462L694.948,695.86C693.735,713.787 699.824,730.889 712.095,744.016C724.364,757.141 741.016,764.37 758.982,764.37C792.621,764.37 820.75,738.08 823.018,704.517L826.938,646.505C827.082,644.4 826.366,642.393 824.926,640.853C823.487,639.312 821.531,638.462 819.421,638.462L698.826,638.462ZM758.982,768.797C739.775,768.797 721.975,761.069 708.859,747.038C695.746,733.006 689.235,714.725 690.53,695.562L694.548,636.1C694.628,634.938 695.592,634.036 696.757,634.036L819.421,634.036C822.722,634.036 825.908,635.418 828.16,637.83C830.414,640.24 831.579,643.511 831.357,646.803L827.436,704.815C825.011,740.693 794.942,768.797 758.982,768.797Z" style="fill-rule:nonzero;"/>
        </g>
        <g transform="matrix(1.280747,0,0,1.280747,-394.649287,-272.816163)">
            <path d="M757.455,728.968C754.324,728.968 751.844,726.325 752.042,723.2L754.989,676.974C755.171,674.119 757.541,671.896 760.402,671.896C763.533,671.896 766.013,674.54 765.814,677.664L762.867,723.89C762.686,726.746 760.316,728.968 757.455,728.968Z" style="fill-rule:nonzero;"/>
        </g>
        <g transform="matrix(1.280747,0,0,1.280747,-394.649287,-272.816163)">
            <path d="M779.324,681.178C779.324,692.206 770.385,701.146 759.357,701.146C748.329,701.146 739.389,692.206 739.389,681.178C739.389,670.15 748.329,661.21 759.357,661.21C770.385,661.21 779.324,670.15 779.324,681.178Z" style="fill-rule:nonzero;"/>
        </g>
    </g>
</svg>
