<?xml version="1.0" encoding="utf-8"?>
<!-- Generator: Adobe Illustrator 27.5.0, SVG Export Plug-In . SVG Version: 6.00 Build 0)  -->
<svg version="1.1" xmlns="http://www.w3.org/2000/svg" xmlns:xlink="http://www.w3.org/1999/xlink" x="0px" y="0px"
	 viewBox="0 0 500 500" style="enable-background:new 0 0 500 500;" xml:space="preserve">
<g id="BACKGROUND">
	<rect x="-0.396" y="-0.132" style="fill:#DEEBFB;" width="500" height="500"/>
</g>
<g id="OBJECTS">
	<path style="fill:#CBE0FB;" d="M306.467,455.134c0-3.71-65.503-6.718-146.305-6.718s-146.305,3.008-146.305,6.718
		s65.503,6.718,146.305,6.718S306.467,458.845,306.467,455.134z"/>
	<path style="fill:#CBE0FB;" d="M490.121,455.134c0-3.71-39.487-6.718-88.197-6.718s-88.197,3.008-88.197,6.718
		s39.487,6.718,88.197,6.718S490.121,458.845,490.121,455.134z"/>
	<g>
		<g>
			<rect x="52.296" y="204.094" style="fill:#CEE3FB;" width="395.407" height="8.09"/>
			<path style="fill:#CEE3FB;" d="M265.736,155.124c-1.337-1.397-2.258-3.003-2.737-4.698c0.061,0.004,0.122,0.013,0.183,0.013
				v-7.046h-2.548c1.099-0.873,1.819-2.205,1.819-3.714c0-2.625-2.136-4.761-4.761-4.761c-2.626,0-4.762,2.136-4.762,4.761
				c0,1.51,0.72,2.841,1.819,3.714h-2.548v7.046c0.061,0,0.122-0.009,0.184-0.013c-0.478,1.695-1.4,3.301-2.737,4.698
				c-3.357,3.508-6.489,8.143-6.489,13.224c0,10.945,14.533,35.819,14.533,35.819s14.533-24.874,14.533-35.819
				C272.225,163.267,269.092,158.632,265.736,155.124z M253.68,139.679c0-2.212,1.8-4.011,4.012-4.011
				c2.211,0,4.011,1.799,4.011,4.011c0,1.681-1.041,3.118-2.51,3.714h-3.002C254.721,142.797,253.68,141.359,253.68,139.679z"/>
			<path style="fill:#CEE3FB;" d="M303.098,155.124c-1.337-1.397-2.258-3.003-2.737-4.698c0.061,0.004,0.122,0.013,0.183,0.013
				v-7.046h-2.548c1.099-0.873,1.818-2.205,1.818-3.714c0-2.625-2.136-4.761-4.761-4.761s-4.762,2.136-4.762,4.761
				c0,1.51,0.72,2.841,1.819,3.714h-2.548v7.046c0.061,0,0.122-0.009,0.184-0.013c-0.478,1.695-1.4,3.301-2.737,4.698
				c-3.357,3.508-6.489,8.143-6.489,13.224c0,10.945,14.534,35.819,14.534,35.819s14.533-24.874,14.533-35.819
				C309.588,163.267,306.455,158.632,303.098,155.124z M291.043,139.679c0-2.212,1.8-4.011,4.012-4.011
				c2.211,0,4.011,1.799,4.011,4.011c0,1.681-1.041,3.118-2.51,3.714h-3.002C292.084,142.797,291.043,141.359,291.043,139.679z"/>
			<path style="fill:#CEE3FB;" d="M374.434,170.049L374.434,170.049C374.433,170.049,374.434,170.049,374.434,170.049
				l-14.619-10.532c3.727,1.384,7.748,1.86,11.702,1.358l-25.735-33.761c-0.013,0.031-0.023,0.062-0.035,0.093
				c-0.013-0.031-0.023-0.062-0.036-0.093l-25.735,33.761c4.005,0.508,8.079,0.015,11.846-1.411l-14.693,10.585c0,0,0,0,0,0h-0.001
				c0,0,8.892,7.896,27.755,8.142v7.561l-9.339-0.005l3.529,18.288l13.415,0.011l3.529-18.288l-9.338-0.005v-7.562
				C365.542,177.945,374.434,170.049,374.434,170.049z"/>
			<path style="fill:#CEE3FB;" d="M434.376,170.049L434.376,170.049C434.376,170.049,434.376,170.049,434.376,170.049l-14.62-10.532
				c3.727,1.384,7.748,1.86,11.702,1.358l-25.735-33.761c-0.013,0.031-0.022,0.062-0.035,0.093
				c-0.013-0.031-0.023-0.062-0.036-0.093l-25.735,33.761c4.005,0.508,8.079,0.015,11.846-1.411l-14.694,10.585c0,0,0,0,0.001,0
				h-0.001c0,0,8.892,7.896,27.755,8.142v7.561l-9.339-0.005l3.529,18.288l13.415,0.011l3.529-18.288l-9.338-0.005v-7.562
				C425.484,177.945,434.376,170.049,434.376,170.049z"/>
			<path style="fill:#CEE3FB;" d="M133.303,188.161h-0.49c-0.666,0-1.206,0.54-1.206,1.206c0,0.666,0.54,1.206,1.206,1.206h0.49
				c3.031,0,5.497,2.466,5.497,5.497c0,3.031-2.466,5.497-5.497,5.497h-18.988l-0.598-5.497h0.668c4.762,0,9.323-1.641,12.924-4.553
				c0.007,0.009,0.011,0.02,0.019,0.028c0.059,0.066,0.145,0.099,0.231,0.099s0.172-0.033,0.238-0.099
				c0.026-0.027,0.053-0.066,0.066-0.106c0.02-0.04,0.026-0.086,0.026-0.126c0-0.078-0.03-0.153-0.079-0.211
				c0.176-0.149,0.35-0.302,0.52-0.46c1.278-1.182,2.412-2.536,3.36-4.049c0.27-0.431,0.52-0.866,0.756-1.3
				c0.027,0.014,0.056,0.023,0.087,0.029c0.022,0.005,0.043,0.013,0.067,0.013c0.001,0,0.002-0.001,0.003-0.001
				c0.001,0,0.002,0.001,0.004,0.001c0.028,0,0.058-0.01,0.089-0.019c0.012-0.003,0.025-0.003,0.036-0.008c0,0,0,0,0,0
				c0.04-0.013,0.073-0.04,0.106-0.066c0.012-0.015,0.022-0.034,0.033-0.051c0.038-0.053,0.066-0.115,0.066-0.187
				c0-0.106-0.057-0.198-0.139-0.259c-0.014-0.01-0.028-0.021-0.043-0.03c0.051-0.1,0.104-0.199,0.153-0.298
				c0.948-1.89,1.6-3.746,2.059-5.403c0.027,0.008,0.053,0.018,0.084,0.018c0.046,0,0.086-0.013,0.126-0.026
				c0.039-0.02,0.079-0.04,0.106-0.073c0.059-0.059,0.099-0.145,0.099-0.231c0-0.086-0.039-0.172-0.099-0.238
				c-0.027-0.026-0.066-0.053-0.106-0.066c-0.013-0.006-0.027-0.005-0.041-0.009c0.016-0.064,0.034-0.132,0.049-0.195
				c0.417-1.674,0.623-3.08,0.726-4.009h0.098c0.666,0,1.206-0.54,1.206-1.206s-0.54-1.206-1.206-1.206h-6.536
				c-2.365,0-4.485,1.405-5.402,3.58c-1.498,3.553-5.584,9.515-16.119,9.515c-10.909,0-16.492-8.79-18.85-14.03
				c-1.063-2.362-3.436-3.889-6.046-3.889h-18.35c-0.666,0-1.206,0.54-1.206,1.206c0,0.666,0.54,1.206,1.206,1.206h1.015
				c0.728,0.882,1.411,1.754,2.044,2.61c0.049,0.067,0.096,0.133,0.145,0.2c-0.055,0.059-0.093,0.14-0.093,0.223
				c0,0.046,0.013,0.086,0.026,0.126c0.019,0.04,0.046,0.079,0.072,0.113c0.033,0.026,0.066,0.053,0.106,0.066
				c0.039,0.02,0.086,0.026,0.132,0.026c0.039,0,0.079-0.006,0.125-0.026c0.002-0.001,0.004-0.003,0.006-0.004
				c1.365,1.909,2.51,3.747,3.46,5.501c0.042,0.075,0.08,0.148,0.119,0.222c-0.028,0.014-0.058,0.029-0.077,0.048
				c-0.033,0.033-0.059,0.073-0.073,0.113c-0.02,0.039-0.026,0.079-0.026,0.125c0,0.04,0.007,0.086,0.026,0.125
				c0.014,0.04,0.04,0.073,0.073,0.105c0.026,0.033,0.066,0.053,0.106,0.073c0.039,0.013,0.086,0.026,0.125,0.026
				c0.04,0,0.086-0.013,0.126-0.026c0.008-0.004,0.014-0.011,0.022-0.015c1.003,1.929,1.785,3.747,2.381,5.427
				c0.031,0.093,0.064,0.186,0.096,0.277c-0.054,0.014-0.106,0.037-0.147,0.078c-0.027,0.033-0.053,0.066-0.066,0.105
				c-0.02,0.04-0.026,0.086-0.026,0.126c0,0.092,0.033,0.172,0.092,0.238c0.033,0.026,0.073,0.053,0.112,0.066
				c0.04,0.02,0.079,0.026,0.126,0.026c0.039,0,0.086-0.007,0.125-0.026c0.004-0.001,0.006-0.005,0.01-0.006
				c0.766,2.01,1.89,3.813,3.293,5.339c0.134,0.148,0.276,0.294,0.421,0.438c-0.031,0.032-0.051,0.07-0.07,0.108
				c-0.013,0.04-0.027,0.079-0.027,0.126s0.014,0.086,0.027,0.126c0.02,0.04,0.04,0.079,0.073,0.106
				c0.033,0.033,0.066,0.059,0.106,0.072c0.039,0.02,0.086,0.027,0.125,0.027c0.047,0,0.086-0.007,0.126-0.027
				c0.039-0.013,0.079-0.04,0.112-0.072c0.001-0.001,0.002-0.004,0.003-0.005c2.331,2.185,5.271,3.683,8.485,4.26l-0.627,5.766
				H75.753c-0.666,0-1.206,0.54-1.206,1.206s0.54,1.206,1.206,1.206h57.55c4.361,0,7.909-3.548,7.909-7.909
				C141.212,191.709,137.665,188.161,133.303,188.161z M89.941,196.056c0.19,0.006,0.38,0.014,0.571,0.014h20.78l0.598,5.497H89.341
				L89.941,196.056z"/>
			<path style="fill:#CEE3FB;" d="M225.128,188.161h-0.49c-0.666,0-1.206,0.54-1.206,1.206c0,0.666,0.54,1.206,1.206,1.206h0.49
				c3.031,0,5.497,2.466,5.497,5.497c0,3.031-2.466,5.497-5.497,5.497H206.14l-0.598-5.497h0.668c4.762,0,9.323-1.641,12.924-4.553
				c0.007,0.009,0.011,0.02,0.019,0.028c0.059,0.066,0.145,0.099,0.231,0.099s0.172-0.033,0.238-0.099
				c0.026-0.027,0.053-0.066,0.066-0.106c0.02-0.04,0.026-0.086,0.026-0.126c0-0.078-0.03-0.153-0.079-0.211
				c0.176-0.149,0.35-0.302,0.52-0.46c1.278-1.182,2.412-2.536,3.36-4.049c0.27-0.431,0.519-0.866,0.756-1.3
				c0.027,0.014,0.056,0.023,0.087,0.029c0.022,0.005,0.043,0.013,0.067,0.013c0.001,0,0.002-0.001,0.003-0.001
				c0.001,0,0.002,0.001,0.004,0.001c0.028,0,0.058-0.01,0.089-0.019c0.012-0.003,0.025-0.003,0.036-0.008c0,0,0,0,0,0
				c0.04-0.013,0.073-0.04,0.106-0.066c0.012-0.015,0.022-0.034,0.033-0.051c0.038-0.053,0.066-0.115,0.066-0.187
				c0-0.106-0.057-0.198-0.139-0.259c-0.014-0.01-0.028-0.021-0.043-0.03c0.051-0.1,0.104-0.199,0.153-0.298
				c0.948-1.89,1.6-3.746,2.059-5.403c0.027,0.008,0.053,0.018,0.084,0.018c0.046,0,0.086-0.013,0.126-0.026
				c0.039-0.02,0.079-0.04,0.106-0.073c0.059-0.059,0.099-0.145,0.099-0.231c0-0.086-0.039-0.172-0.099-0.238
				c-0.027-0.026-0.067-0.053-0.106-0.066c-0.013-0.006-0.027-0.005-0.041-0.009c0.016-0.064,0.034-0.132,0.049-0.195
				c0.417-1.674,0.623-3.08,0.726-4.009h0.098c0.666,0,1.206-0.54,1.206-1.206s-0.54-1.206-1.206-1.206h-6.536
				c-2.365,0-4.485,1.405-5.402,3.58c-1.498,3.553-5.584,9.515-16.119,9.515c-10.909,0-16.492-8.79-18.85-14.03
				c-1.063-2.362-3.436-3.889-6.046-3.889h-18.35c-0.666,0-1.206,0.54-1.206,1.206c0,0.666,0.54,1.206,1.206,1.206h1.015
				c0.728,0.882,1.411,1.754,2.044,2.61c0.049,0.067,0.096,0.133,0.145,0.2c-0.055,0.059-0.093,0.14-0.093,0.223
				c0,0.046,0.013,0.086,0.026,0.126c0.019,0.04,0.046,0.079,0.072,0.113c0.033,0.026,0.066,0.053,0.106,0.066
				c0.039,0.02,0.086,0.026,0.132,0.026c0.039,0,0.079-0.006,0.125-0.026c0.002-0.001,0.004-0.003,0.006-0.004
				c1.365,1.909,2.51,3.747,3.46,5.501c0.042,0.075,0.08,0.148,0.119,0.222c-0.028,0.014-0.058,0.029-0.077,0.048
				c-0.033,0.033-0.059,0.073-0.073,0.113c-0.02,0.039-0.026,0.079-0.026,0.125c0,0.04,0.006,0.086,0.026,0.125
				c0.013,0.04,0.04,0.073,0.073,0.105c0.026,0.033,0.066,0.053,0.106,0.073c0.039,0.013,0.086,0.026,0.125,0.026
				c0.04,0,0.086-0.013,0.126-0.026c0.008-0.004,0.014-0.011,0.022-0.015c1.003,1.929,1.785,3.747,2.381,5.427
				c0.031,0.093,0.064,0.186,0.096,0.277c-0.054,0.014-0.106,0.037-0.147,0.078c-0.026,0.033-0.053,0.066-0.066,0.105
				c-0.02,0.04-0.026,0.086-0.026,0.126c0,0.092,0.033,0.172,0.092,0.238c0.033,0.026,0.073,0.053,0.112,0.066
				c0.04,0.02,0.079,0.026,0.126,0.026c0.039,0,0.086-0.007,0.125-0.026c0.004-0.001,0.006-0.005,0.01-0.006
				c0.766,2.01,1.89,3.813,3.293,5.339c0.134,0.148,0.276,0.294,0.421,0.438c-0.031,0.032-0.051,0.07-0.07,0.108
				c-0.013,0.04-0.027,0.079-0.027,0.126s0.014,0.086,0.027,0.126c0.02,0.04,0.04,0.079,0.073,0.106
				c0.033,0.033,0.066,0.059,0.106,0.072c0.039,0.02,0.086,0.027,0.125,0.027c0.046,0,0.086-0.007,0.126-0.027
				c0.039-0.013,0.079-0.04,0.112-0.072c0.001-0.001,0.002-0.004,0.003-0.005c2.331,2.185,5.271,3.683,8.485,4.26l-0.627,5.766
				h-11.162c-0.666,0-1.206,0.54-1.206,1.206s0.54,1.206,1.206,1.206h57.55c4.361,0,7.909-3.548,7.909-7.909
				C233.037,191.709,229.489,188.161,225.128,188.161z M181.765,196.056c0.19,0.006,0.38,0.014,0.571,0.014h20.78l0.598,5.497
				h-22.548L181.765,196.056z"/>
			<rect x="52.296" y="324.835" style="fill:#CEE3FB;" width="395.407" height="8.09"/>
			<path style="fill:#CEE3FB;" d="M350.076,278.699l-3.644,0.414l1.976-3.685c0.145-0.269,0.043-0.604-0.225-0.748
				c-0.27-0.144-0.604-0.043-0.748,0.226l-1.991,3.713l-1.959-3.607c-0.146-0.268-0.481-0.367-0.749-0.222
				c-0.268,0.146-0.367,0.481-0.222,0.749l2.306,4.244l-8.336,15.548c-0.85-1.372-1.806-2.636-2.854-3.775h0.005v-9.559
				c1.656-2.038,2.62-4.46,2.62-7.062c0-4.288-2.608-8.094-6.639-10.48h2.828v-2.653h-7.102v-3.256v-6.959h-11.266v6.959v3.256
				h-7.102v2.653h2.828c-4.03,2.386-6.639,6.192-6.639,10.48c0,2.601,0.964,5.022,2.618,7.059v9.562h0.009
				c-1.107,1.204-2.116,2.546-3.002,4.01l-8.462-15.782l2.306-4.244c0.146-0.268,0.046-0.604-0.222-0.749
				c-0.269-0.145-0.603-0.046-0.749,0.222l-1.959,3.606l-1.99-3.712c-0.144-0.269-0.479-0.37-0.748-0.226
				c-0.269,0.144-0.37,0.479-0.226,0.748l1.976,3.685l-3.644-0.414c-0.297-0.035-0.577,0.183-0.611,0.487
				c-0.034,0.303,0.184,0.577,0.487,0.611l4.404,0.5l8.792,16.397c-2.276,4.203-3.606,9.268-3.606,14.718c0,0.031,0,0.063,0,0.095
				c0.02,7.369,6.019,13.328,13.388,13.328h15.572c7.369,0,13.368-5.959,13.388-13.328c0-0.032,0-0.064,0-0.095
				c0-5.559-1.386-10.714-3.747-14.966l8.658-16.148l4.404-0.5c0.303-0.035,0.521-0.308,0.486-0.611
				C350.653,278.883,350.387,278.662,350.076,278.699z"/>
			<path style="fill:#CEE3FB;" d="M275.422,278.699l-3.644,0.414l1.976-3.685c0.145-0.269,0.043-0.604-0.225-0.748
				c-0.27-0.144-0.604-0.043-0.748,0.226l-1.991,3.713l-1.959-3.607c-0.146-0.268-0.481-0.367-0.749-0.222
				c-0.268,0.146-0.367,0.481-0.222,0.749l2.306,4.244l-8.336,15.548c-0.85-1.372-1.806-2.636-2.854-3.775h0.005v-9.559
				c1.656-2.038,2.62-4.46,2.62-7.062c0-4.288-2.608-8.094-6.639-10.48h2.829v-2.653h-7.102v-3.256v-6.959h-11.266v6.959v3.256
				h-7.102v2.653h2.829c-4.03,2.386-6.639,6.192-6.639,10.48c0,2.601,0.964,5.022,2.618,7.059v9.562h0.009
				c-1.107,1.204-2.116,2.546-3.002,4.01l-8.462-15.782l2.305-4.244c0.146-0.268,0.046-0.604-0.222-0.749
				c-0.269-0.145-0.603-0.046-0.749,0.222l-1.959,3.606l-1.99-3.712c-0.144-0.269-0.479-0.37-0.748-0.226
				c-0.269,0.144-0.37,0.479-0.226,0.748l1.976,3.685l-3.644-0.414c-0.297-0.035-0.577,0.183-0.611,0.487
				c-0.035,0.303,0.183,0.577,0.487,0.611l4.404,0.5l8.791,16.397c-2.276,4.203-3.606,9.268-3.606,14.718c0,0.031,0,0.063,0,0.095
				c0.02,7.369,6.019,13.328,13.388,13.328h15.572c7.369,0,13.368-5.959,13.388-13.328c0-0.032,0-0.064,0-0.095
				c0-5.559-1.386-10.714-3.746-14.966l8.658-16.148l4.404-0.5c0.303-0.035,0.521-0.308,0.486-0.611
				C275.999,278.883,275.733,278.662,275.422,278.699z"/>
			<path style="fill:#CEE3FB;" d="M424.73,278.646l-3.644,0.414l1.976-3.685c0.145-0.269,0.043-0.604-0.225-0.748
				c-0.27-0.144-0.604-0.043-0.748,0.226l-1.991,3.713l-1.959-3.607c-0.146-0.268-0.481-0.367-0.749-0.222
				c-0.268,0.146-0.367,0.481-0.222,0.749l2.306,4.244l-8.336,15.548c-0.85-1.372-1.806-2.636-2.854-3.775h0.005v-9.559
				c1.656-2.038,2.62-4.46,2.62-7.062c0-4.288-2.608-8.094-6.639-10.48h2.829v-2.653h-7.102v-3.255v-6.959h-11.266v6.959v3.255
				h-7.102v2.653h2.829c-4.03,2.386-6.639,6.192-6.639,10.48c0,2.601,0.964,5.022,2.618,7.059v9.562h0.009
				c-1.107,1.204-2.116,2.546-3.002,4.01l-8.462-15.782l2.306-4.244c0.146-0.268,0.046-0.604-0.222-0.749
				c-0.269-0.145-0.603-0.046-0.749,0.222l-1.959,3.606l-1.99-3.712c-0.144-0.269-0.479-0.37-0.748-0.226
				c-0.269,0.144-0.37,0.479-0.226,0.748l1.976,3.685l-3.644-0.414c-0.297-0.035-0.577,0.183-0.611,0.487
				c-0.035,0.303,0.183,0.577,0.487,0.611l4.404,0.5l8.792,16.397c-2.276,4.203-3.606,9.268-3.606,14.718c0,0.031,0,0.063,0,0.095
				c0.02,7.369,6.019,13.328,13.388,13.328h15.572c7.369,0,13.368-5.959,13.388-13.328c0-0.032,0-0.064,0-0.095
				c0-5.559-1.386-10.714-3.747-14.966l8.658-16.148l4.404-0.5c0.303-0.035,0.521-0.308,0.486-0.611
				C425.307,278.829,425.041,278.608,424.73,278.646z"/>
			<path style="fill:#CEE3FB;" d="M106.209,303.787h-2.986c-0.007-1.006-0.055-1.594-0.055-1.594c1.529-0.819,2.57-2.432,2.57-4.288
				v-2.03c0-2.685-2.177-4.863-4.863-4.863h-5.666c-0.031-1.317-1.127-2.323-2.453-2.32c-0.009,0-0.017,0-0.026,0
				c-4.179,0-7.581-2.705-7.796-6.106c-3.097,0.857-5.331,3.264-5.331,6.106c0,0.819,0.193,1.599,0.531,2.32h-4.919
				c-2.686,0-4.863,2.177-4.863,4.863v2.03c0,1.856,1.041,3.468,2.57,4.288c0,0-1.122,13.358,6.617,22.643h8.506h8.507
				c0.978-1.173,1.813-2.411,2.528-3.679h2.771c4.998,0,9.064-4.066,9.064-9.064v-3.6
				C110.914,305.898,108.803,303.787,106.209,303.787z M108.04,312.092c0,3.413-2.777,6.19-6.19,6.19h-1.365
				c1.793-4.253,2.436-8.542,2.646-11.622h3.078c1.01,0,1.831,0.822,1.831,1.832V312.092z"/>
			<path style="fill:#CEE3FB;" d="M159.796,303.787h-2.986c-0.007-1.006-0.055-1.594-0.055-1.594c1.529-0.819,2.57-2.432,2.57-4.288
				v-2.03c0-2.685-2.177-4.863-4.862-4.863h-5.666c-0.031-1.317-1.127-2.323-2.453-2.32c-0.009,0-0.017,0-0.026,0
				c-4.178,0-7.581-2.705-7.796-6.106c-3.097,0.857-5.331,3.264-5.331,6.106c0,0.819,0.193,1.599,0.53,2.32h-4.919
				c-2.686,0-4.863,2.177-4.863,4.863v2.03c0,1.856,1.041,3.468,2.57,4.288c0,0-1.122,13.358,6.616,22.643h8.507h8.507
				c0.978-1.173,1.813-2.411,2.528-3.679h2.771c4.998,0,9.064-4.066,9.064-9.064v-3.6
				C164.502,305.898,162.391,303.787,159.796,303.787z M161.628,312.092c0,3.413-2.777,6.19-6.19,6.19h-1.365
				c1.793-4.253,2.436-8.542,2.645-11.622h3.078c1.01,0,1.831,0.822,1.831,1.832V312.092z"/>
			<path style="fill:#CEE3FB;" d="M213.384,303.787h-2.986c-0.007-1.006-0.055-1.594-0.055-1.594c1.529-0.819,2.57-2.432,2.57-4.288
				v-2.03c0-2.685-2.177-4.863-4.863-4.863h-5.666c-0.031-1.317-1.127-2.323-2.453-2.32c-0.009,0-0.017,0-0.026,0
				c-4.178,0-7.581-2.705-7.796-6.106c-3.097,0.857-5.331,3.264-5.331,6.106c0,0.819,0.193,1.599,0.53,2.32h-4.919
				c-2.686,0-4.863,2.177-4.863,4.863v2.03c0,1.856,1.041,3.468,2.57,4.288c0,0-1.123,13.358,6.616,22.643h8.507h8.507
				c0.978-1.173,1.813-2.411,2.528-3.679h2.771c4.998,0,9.064-4.066,9.064-9.064v-3.6
				C218.089,305.898,215.979,303.787,213.384,303.787z M215.215,312.092c0,3.413-2.777,6.19-6.19,6.19h-1.365
				c1.793-4.253,2.436-8.542,2.645-11.622h3.078c1.01,0,1.831,0.822,1.831,1.832V312.092z"/>
			<g>
				<line style="fill:none;stroke:#F1F6FB;stroke-miterlimit:10;" x1="82.995" y1="99.175" x2="52.296" y2="244.462"/>
				<line style="fill:none;stroke:#F1F6FB;stroke-miterlimit:10;" x1="281.375" y1="99.175" x2="214.132" y2="417.412"/>
				<line style="fill:none;stroke:#F1F6FB;stroke-miterlimit:10;" x1="389.3" y1="99.175" x2="322.057" y2="417.412"/>
				<line style="fill:none;stroke:#F1F6FB;stroke-miterlimit:10;" x1="182.976" y1="99.175" x2="115.733" y2="417.412"/>
				<line style="fill:none;stroke:#F1F6FB;stroke-miterlimit:10;" x1="447.704" y1="158.25" x2="392.943" y2="417.412"/>
				<path style="fill:none;stroke:#F1F6FB;stroke-miterlimit:10;" d="M439.537,415.371H60.463c-4.492,0-8.166-3.675-8.166-8.166
					V107.341c0-4.492,3.675-8.166,8.166-8.166h379.075c4.492,0,8.166,3.675,8.166,8.166v299.863
					C447.704,411.697,444.029,415.371,439.537,415.371z"/>
			</g>
		</g>
	</g>
	<g>
		<path style="fill:#0C0A0B;" d="M368.544,317.756c0,0,16.336,14.529,51.053,14.529s51.053-14.529,51.053-14.529H368.544z"/>
		<path style="fill:#13B19A;" d="M444.601,298.99c6.641,2.466,13.806,3.314,20.85,2.42l-45.854-60.154
			c-0.023,0.055-0.04,0.111-0.062,0.166c-0.023-0.055-0.04-0.111-0.064-0.166l-45.854,60.154c7.136,0.906,14.395,0.026,21.108-2.515
			l-26.181,18.861c13.766,6.172,36.51,11.251,49.631,1.799c0.505-0.364,0.955-0.777,1.422-1.175
			c0.467,0.399,0.917,0.811,1.422,1.175c13.121,9.452,35.865,4.374,49.631-1.799L444.601,298.99z"/>
		
			<line style="fill:none;stroke:#111213;stroke-width:2;stroke-miterlimit:10;" x1="419.597" y1="324.782" x2="419.597" y2="361.285"/>
		<polygon style="fill:#0C0C0C;" points="431.549,378.332 407.645,378.312 401.358,345.727 437.836,345.746 		"/>
	</g>
	<g>
		<polygon style="fill:#0D93F2;" points="463.271,326.129 463.271,378.172 425.115,378.172 425.115,326.129 427.023,327.889 
			427.034,327.878 427.309,327.624 428.925,326.129 430.833,327.889 432.708,326.163 432.742,326.129 432.984,326.355 
			434.65,327.889 436.558,326.129 438.383,327.811 438.466,327.889 438.659,327.712 440.368,326.129 442.277,327.889 
			444.052,326.251 444.185,326.129 444.328,326.262 446.093,327.889 447.995,326.129 449.727,327.723 449.903,327.889 
			450.003,327.795 451.812,326.129 453.72,327.889 455.396,326.344 455.628,326.129 455.672,326.168 457.536,327.889 
			459.45,326.129 461.071,327.624 461.347,327.878 461.358,327.889 		"/>
		<path style="fill:#0C0A0B;" d="M453.162,359.25l-4.577-6.319c1.167,0.593,2.426,0.797,3.663,0.582l-8.056-14.471
			c-0.004,0.013-0.007,0.027-0.011,0.04c-0.004-0.013-0.007-0.027-0.011-0.04l-8.056,14.471c1.254,0.218,2.529,0.006,3.708-0.605
			l-4.6,6.342H453.162z"/>
		<path style="fill:#FFFFFF;" d="M444.191,356.809c-8.376,0-15.191-6.815-15.191-15.191V331.36c0-0.076,0.062-0.138,0.138-0.138
			c0.076,0,0.138,0.062,0.138,0.138v10.257c0,8.225,6.691,14.916,14.916,14.916c8.225,0,14.916-6.691,14.916-14.916V331.36
			c0-0.076,0.062-0.138,0.138-0.138s0.138,0.062,0.138,0.138v10.257C459.383,349.994,452.568,356.809,444.191,356.809z"/>
	</g>
	<g>
		<path style="fill:#FA5276;" d="M375.259,320.561l-0.068-0.289h-9.103l0,0c-1.106,5.365-5.092,9.62-10.322,11.247
			c-12.446,3.873-21.091,12.395-21.091,22.292c0,13.543,16.186,24.521,36.153,24.521c19.967,0,36.153-10.978,36.153-24.521
			c0-9.994-8.818-18.587-21.463-22.405C380.409,329.863,376.482,325.756,375.259,320.561z"/>
		<path style="fill:#0C0A0B;" d="M405.345,352.187l1.372-1.372c-0.021-0.106-0.042-0.212-0.058-0.318l-1.505,1.505l-11.274-11.274
			l3.529-3.528c-0.069-0.058-0.143-0.111-0.217-0.159l-3.496,3.497l-9.679-9.679c-0.228-0.095-0.456-0.196-0.678-0.302
			l10.172,10.172l-11.274,11.274l-11.274-11.274l10.95-10.951c-0.079-0.048-0.154-0.101-0.233-0.148l-10.908,10.908l-10.961-10.961
			c-0.074,0.058-0.148,0.106-0.223,0.154l10.998,10.998l-11.274,11.274l-11.274-11.274l10.235-10.235
			c-0.238,0.122-0.482,0.239-0.726,0.35l-9.695,9.695l-3.449-3.449c-0.074,0.042-0.143,0.095-0.217,0.159l3.475,3.481
			l-11.269,11.274l-1.409-1.409c-0.021,0.106-0.037,0.212-0.058,0.318l1.277,1.277l-1.526,1.526v0.095c0,0.09,0,0.185,0.005,0.275
			l1.711-1.711l11.269,11.274l-5.287,5.287c0.069,0.064,0.138,0.122,0.207,0.175l5.271-5.271l11.274,11.268l-1.531,1.531
			c0.101,0.026,0.196,0.053,0.297,0.079l1.42-1.42l2.215,2.215c0.154,0.032,0.302,0.058,0.456,0.079l-2.485-2.485l11.274-11.268
			l11.274,11.268l-2.506,2.506c0.154-0.021,0.307-0.048,0.461-0.079l2.236-2.236l1.441,1.441c0.101-0.027,0.201-0.048,0.302-0.074
			l-1.557-1.558l11.274-11.268l5.324,5.324c0.069-0.058,0.138-0.111,0.201-0.175l-5.34-5.34l11.274-11.274l1.823,1.822
			c0.005-0.122,0.005-0.249,0.005-0.371L405.345,352.187z M336.579,352.187l11.274-11.274l11.274,11.274l-11.274,11.274
			L336.579,352.187z M359.312,374.92l-11.274-11.274l11.274-11.274l11.274,11.274L359.312,374.92z M359.497,352.187l11.274-11.274
			l11.274,11.274l-11.274,11.274L359.497,352.187z M382.236,374.92l-11.274-11.274l11.274-11.274l11.274,11.274L382.236,374.92z
			 M393.695,363.461l-11.274-11.274l11.274-11.274l11.274,11.274L393.695,363.461z M375.99,322.832l-2.559-2.559h-0.376l3.247,3.247
			C376.191,323.293,376.085,323.065,375.99,322.832z M368.117,320.273l-2.993,2.993c-0.101,0.238-0.217,0.477-0.339,0.71
			l3.703-3.703H368.117z"/>
		<path style="fill:#0C0A0B;" d="M365.113,313.099v9.185c0.55,0,1.1-0.187,1.549-0.561c0.406-0.338,0.857-0.735,1.308-1.17
			c0.451,0.435,0.902,0.832,1.308,1.17c0.899,0.749,2.2,0.749,3.099,0c0.406-0.338,0.857-0.735,1.308-1.17
			c0.451,0.435,0.902,0.832,1.308,1.17c0.449,0.374,0.999,0.561,1.549,0.561v-9.185H365.113z"/>
		<path style="fill:none;stroke:#FFFFFF;stroke-width:0.5;stroke-miterlimit:10;" d="M370.828,313.217
			c-8.286,0.74-3.925,22.814-9.802,25.151c-5.585,2.22-10.039-1.54-10.039-4.155"/>
		<path style="fill:none;stroke:#FFFFFF;stroke-width:0.5;stroke-miterlimit:10;" d="M370.828,313.217
			c8.286,0.74,3.925,22.814,9.802,25.151c5.585,2.22,10.039-1.54,10.039-4.155"/>
		<g>
			<path style="fill:none;stroke:#FFFFFF;stroke-width:0.5;stroke-linecap:round;stroke-linejoin:round;stroke-miterlimit:10;" d="
				M364.752,298.204c2.483,2.483,6.021,15.013,6.021,15.013s-12.53-3.538-15.013-6.021c-2.483-2.483-2.483-6.509,0-8.992
				C358.243,295.721,362.269,295.721,364.752,298.204z"/>
		</g>
		<path style="fill:none;stroke:#FFFFFF;stroke-width:0.5;stroke-linecap:round;stroke-linejoin:round;stroke-miterlimit:10;" d="
			M376.849,298.204c-2.483,2.483-6.021,15.013-6.021,15.013s12.53-3.538,15.013-6.021c2.483-2.483,2.483-6.509,0-8.992
			C383.358,295.721,379.332,295.721,376.849,298.204z"/>
	</g>
	<g>
		<g>
			<path style="fill:#301011;" d="M201.534,133.169c-1.576-0.724-3.019-1.743-4.229-2.981c-0.954,0.912-2.225,1.488-3.566,1.548
				c-0.02,0.001-0.04,0.001-0.06,0.002c-2.116,0.067-4.159-1.152-5.102-3.049c-0.491-0.99-0.087-2.19,0.903-2.682
				c0.991-0.486,2.189-0.088,2.682,0.903c0.244,0.491,0.839,0.845,1.387,0.828c0.005,0,0.011,0,0.014,0
				c0.547-0.024,1.109-0.425,1.317-0.934c-1.107-2.205-1.642-4.718-1.489-7.167c0.069-1.103,1.039-1.945,2.121-1.872
				c1.104,0.068,1.942,1.019,1.873,2.121c-0.144,2.302,0.561,4.685,1.937,6.537c0.917,1.236,2.161,2.226,3.544,2.925
				C202.866,129.347,205.199,131.624,201.534,133.169z"/>
			<path style="fill:#301011;" d="M219.564,128.957c1.068-1.124,1.909-2.445,2.48-3.882c0.176,0.052,0.359,0.089,0.552,0.09
				c0.07,0.001,0.142,0,0.212-0.002c1.796-0.057,3.55-0.969,4.621-2.415c1.112-1.503,1.457-3.544,0.899-5.328
				c-0.332-1.055-1.46-1.638-2.509-1.311c-1.055,0.33-1.641,1.453-1.312,2.509c0.181,0.576,0.065,1.264-0.294,1.749
				c-0.307,0.413-0.808,0.688-1.32,0.763c0.113-2.851-0.792-5.698-2.563-7.952c-0.682-0.867-1.94-1.022-2.809-0.337
				c-0.869,0.682-1.021,1.94-0.337,2.809c1.316,1.675,1.934,3.936,1.654,6.049c-0.202,1.519-0.879,2.987-1.875,4.168
				C216.964,125.866,215.157,129.143,219.564,128.957z"/>
		</g>
		<path style="fill:#FA5276;" d="M199.615,141.868c0,0-1.953-10.333,6.702-14.49c8.655-4.156,16.236,0.095,18.896,3.853
			L199.615,141.868z"/>
		<path style="fill:#3B4060;" d="M276.685,248.878l-4.34,11.764c0,0-39.763-12.957-53.02-20.188
			c-2.224-1.214-3.943-9.626-5.146-20.166c-0.312-2.772-0.591-5.694-0.838-8.67c-1.257-15.471-1.547-32.435-0.849-37.947
			c0,0,10.593,5.533,13.945,8.391c4.169,3.556,8.52,18.63,9.025,20.617c0.129,0.527,0.193,2.106,0.204,4.179
			c0.021,2.46-0.011,5.63-0.011,8.595c-0.021,3.911-0.011,7.488,0.204,8.649c0.494,2.772,12.817,5.597,33.37,14.064
			C275.224,240.637,276.685,248.878,276.685,248.878z"/>
		<path style="fill:#FFFFFF;" d="M235.654,215.454c-3.288,1.01-6.736,1.826-9.261,2.45c-1.741,0.419-3.492,0.752-5.243,1.085
			c-2.331,0.44-4.652,0.881-6.973,1.3c-0.312-2.772-0.591-5.694-0.838-8.67c7.005-1.182,15.643-2.181,22.326-4.759
			C235.687,209.319,235.654,212.488,235.654,215.454z"/>
		<path style="fill:none;stroke:#0C0A0B;stroke-width:0.75;stroke-miterlimit:10;" d="M268.392,259.561c0,0,2.267-9.283,3.4-10.582
			c1.133-1.299,2.975-0.102,2.975-0.102"/>
		<path style="fill:#0C0A0B;" d="M64.695,323.871c0,0-8.02,13.951-5.356,32.134C59.34,356.005,72.795,340.334,64.695,323.871z"/>
		<path style="fill:#0C0A0B;" d="M211.546,427.053c0,0,18.245,7.074,40.048-1.027C251.594,426.026,228.467,415.253,211.546,427.053z
			"/>
		<g>
			<path style="fill:#FD7164;" d="M222.207,413.458l1.097,28.141c0,0,9.476,7.86,26.228,0c0,0-8.964-2.217-8.715-29.199
				L222.207,413.458z"/>
			<path style="fill:#FFFFFF;" d="M276.589,455.134c0,0,2.19-12.872-5.966-15.578c-5.775-1.916-16.241-1.657-22.869-6.629
				c-6.629-4.972-9.881-3.646-11.569-2.32c-1.688,1.326,1.688,7.623,0,10.938c-1.688,3.314-12.88,0.053-12.88,0.053
				s-2.167,10.657-0.408,13.536H276.589z"/>
			<path style="fill:none;stroke:#0C0A0B;stroke-width:0.75;stroke-miterlimit:10;" d="M268.328,438.942
				c0,0-11.294,6.249-10.3,16.192"/>
			
				<line style="fill:none;stroke:#0C0A0B;stroke-width:0.75;stroke-miterlimit:10;" x1="223.304" y1="450.93" x2="258.33" y2="450.93"/>
			<path style="fill:none;stroke:#0C0A0B;stroke-width:0.75;stroke-miterlimit:10;" d="M223.715,448.151
				c0,0,11.579-2.721,16.294-2.918c4.715-0.197,9.037,3.534,11.984,5.696"/>
			<path style="fill:none;stroke:#0C0A0B;stroke-width:0.75;stroke-miterlimit:10;" d="M249.012,433.783
				c0,0-0.949,3.387-4.092,5.159c0,0,10.708,3.653,17.24,5.07"/>
			
				<line style="fill:none;stroke:#0C0A0B;stroke-width:0.75;stroke-miterlimit:10;" x1="251.992" y1="433.783" x2="249.045" y2="438.898"/>
			
				<line style="fill:none;stroke:#0C0A0B;stroke-width:0.75;stroke-miterlimit:10;" x1="255.234" y1="435.018" x2="252.975" y2="439.733"/>
			
				<line style="fill:none;stroke:#0C0A0B;stroke-width:0.75;stroke-miterlimit:10;" x1="258.33" y1="436.34" x2="257.1" y2="440.911"/>
			
				<line style="fill:none;stroke:#0C0A0B;stroke-width:0.75;stroke-miterlimit:10;" x1="261.618" y1="436.786" x2="261.127" y2="441.599"/>
		</g>
		<g>
			<path style="fill:#FD7164;" d="M73.964,329.368l-28.108-1.757c0,0-8.779,8.632-2.654,26.093c0,0,3.112-8.693,29.931-5.716
				L73.964,329.368z"/>
			<path style="fill:#FFFFFF;" d="M26.998,379.254c0,0,12.584,3.482,16.101-4.359c2.491-5.551,3.292-15.99,8.909-22.081
				s4.627-9.461,3.479-11.275c-1.148-1.814-7.755,0.908-10.881-1.107c-3.127-2.015,1.25-12.82,1.25-12.82
				s-10.383-3.234-13.425-1.776L26.998,379.254z"/>
			<path style="fill:none;stroke:#0C0A0B;stroke-width:0.75;stroke-miterlimit:10;" d="M43.943,372.673
				c0,0-5.074-11.868-15.067-11.885"/>
			
				<line style="fill:none;stroke:#0C0A0B;stroke-width:0.75;stroke-miterlimit:10;" x1="36.573" y1="326.667" x2="33.029" y2="361.513"/>
			<path style="fill:none;stroke:#0C0A0B;stroke-width:0.75;stroke-miterlimit:10;" d="M39.296,327.357
				c0,0,1.536,11.795,1.254,16.506c-0.282,4.71-4.431,8.633-6.88,11.346"/>
			<path style="fill:none;stroke:#0C0A0B;stroke-width:0.75;stroke-miterlimit:10;" d="M51.03,353.979c0,0-3.273-1.287-4.719-4.593
				c0,0-4.718,10.284-6.789,16.638"/>
			
				<line style="fill:none;stroke:#0C0A0B;stroke-width:0.75;stroke-miterlimit:10;" x1="50.729" y1="356.944" x2="45.938" y2="353.495"/>
			
				<line style="fill:none;stroke:#0C0A0B;stroke-width:0.75;stroke-miterlimit:10;" x1="49.172" y1="360.044" x2="44.71" y2="357.319"/>
			
				<line style="fill:none;stroke:#0C0A0B;stroke-width:0.75;stroke-miterlimit:10;" x1="47.543" y1="362.99" x2="43.12" y2="361.304"/>
			
				<line style="fill:none;stroke:#0C0A0B;stroke-width:0.75;stroke-miterlimit:10;" x1="46.767" y1="366.217" x2="42.029" y2="365.241"/>
		</g>
		<path style="fill:#0D93F2;" d="M155.125,263.769l-37.49,62.483l-52.94-2.38c0,0,2.975,18.447-5.356,32.134
			c0,0,64.686,1.645,73.039-1.331c9.596-3.418,59.729-82.36,59.729-82.36L155.125,263.769z"/>
		<path style="fill:#0D93F2;" d="M164.502,274.843l46.05,80.289l0.994,71.921c0,0,28.224-2.831,40.048-1.027
			c0,0-9.618-63.843-10.569-72.052c-0.757-6.529-30.616-78.156-30.616-78.156L164.502,274.843z"/>
		<polyline style="fill:none;stroke:#0C0A0B;stroke-width:0.75;stroke-miterlimit:10;" points="200.809,278.368 220.608,328.101 
			230.776,325.796 		"/>
		<path style="fill:#3B4060;" d="M198.309,171.338c0,0-14.025-1.384-18.191,0c-4.166,1.384-32.729,69.818-33.324,75.174
			c-0.595,5.356,5.356,7.736,5.356,7.736l-5.397,11.306c0,0,38.618,18.447,66.936,17.257v-9.47c0,0,4.515,0.543,7.49-2.432
			c2.975-2.975,5.635-82.715,3.115-86.286c-2.52-3.57-11.801-10.953-11.801-10.953L198.309,171.338z"/>
		
			<line style="fill:none;stroke:#0C0A0B;stroke-width:0.75;stroke-miterlimit:10;" x1="207.627" y1="181.935" x2="208.48" y2="188.317"/>
		<path style="fill:#FFFFFF;" d="M196.179,167.174c-0.529,0.165-2.977,3.251-2.977,3.251s-0.643,13.67,6.874,17.892l7.551-6.382
			l9.659,5.029c0,0-1.01-8.235-2.209-11.042c0,0-2.671-5.024-4.679-5.581C208.39,169.785,199.937,166.003,196.179,167.174z"/>
		<g>
			<g>
				<path style="fill:#FF848E;" d="M224.269,152.102c-0.045,0.838-0.143,1.667-0.303,2.488c-0.267,1.373-0.704,2.71-1.311,3.932
					c-1.587,3.219-4.324,5.661-8.14,6.089c-4.19,0.473-8.238-1.935-10.521-5.51c-4.137-6.464-5.118-18.714,2.398-23.003
					c0.838-0.481,1.703-0.802,2.586-0.99c4.155-0.874,8.542,1.346,11.359,4.681C223.154,143.124,224.482,147.68,224.269,152.102z"/>
			</g>
		</g>
		<g>
			<g>
				<path style="fill:#FF848E;" d="M202.227,151.11l-3.918,20.228c-0.782,3.724,1.472,7.413,5.143,8.416l0,0
					c4.239,1.159,8.518-1.72,9.04-6.084l2.422-19.091L202.227,151.11z"/>
			</g>
		</g>
		<g>
			<g>
				<path style="fill:#0C0A0B;" d="M212.82,171.083l0.868-6.413c0,0-5.915,0.303-9.697-5.572
					C203.991,159.098,202.844,168.689,212.82,171.083z"/>
			</g>
		</g>
		<g>
			<g>
				<path style="fill:#FF848E;" d="M202.844,155.191c-1.323,0.783-3.273,0.743-4.565-0.111c-1.292-0.854-2.118-2.484-2.093-4.125
					c0.023-1.472,0.777-2.963,2.014-3.554c1.237-0.591,3.061-0.075,3.654,1.251L202.844,155.191z"/>
			</g>
		</g>
		<path style="fill:none;stroke:#0C0A0B;stroke-width:0.75;stroke-miterlimit:10;" d="M157.307,257.818
			c0,0,30.944,14.782,53.16,15.524"/>
		<path style="fill:none;stroke:#0C0A0B;stroke-width:0.75;stroke-miterlimit:10;" d="M225.146,196.724
			c0,0-0.188,32.398-0.852,43.733"/>
		<path style="fill:none;stroke:#0C0A0B;stroke-width:0.75;stroke-miterlimit:10;" d="M229.311,226.794c0,0,2.38-2.301,6.546-2.697"
			/>
		<path style="fill:#0C0A0B;" d="M176.673,296.063l9.353-13.197c0,0-1.951,12.498-6.435,18.285L176.673,296.063z"/>
		<polyline style="fill:none;stroke:#0C0A0B;stroke-width:0.75;stroke-miterlimit:10;" points="130.01,305.628 140.071,310.114 
			166.407,270.491 		"/>
		<path style="fill:none;stroke:#0C0A0B;stroke-width:0.75;stroke-miterlimit:10;" d="M145.277,280.182
			c0,0,7.367,4.652,15.895-1.814"/>
		<path style="fill:none;stroke:#0C0A0B;stroke-width:0.75;stroke-miterlimit:10;" d="M206.239,292.009c0,0,5.915,9.576,13.14,5.551
			"/>
		
			<line style="fill:none;stroke:#0C0A0B;stroke-width:0.75;stroke-miterlimit:10;" x1="210.552" y1="355.132" x2="215.792" y2="363.608"/>
		
			<line style="fill:none;stroke:#0C0A0B;stroke-width:0.75;stroke-miterlimit:10;" x1="117.635" y1="326.252" x2="110.914" y2="332.549"/>
		<path style="fill:none;stroke:#0C0A0B;stroke-width:0.75;stroke-miterlimit:10;" d="M211.416,417.691
			c0,0,28.212-2.406,38.983,0.384"/>
		<path style="fill:none;stroke:#0C0A0B;stroke-width:0.75;stroke-miterlimit:10;" d="M211.416,413.81c0,0,25.647-3.88,38.343,0"/>
		<path style="fill:none;stroke:#0C0A0B;stroke-width:0.75;stroke-miterlimit:10;" d="M73.535,324.269c0,0,2.342,16.117-3.183,31.96
			"/>
		<path style="fill:none;stroke:#0C0A0B;stroke-width:0.75;stroke-miterlimit:10;" d="M78.356,324.486c0,0,1.99,16.37-3.536,31.744"
			/>
		<path style="fill:#FA5276;" d="M118.615,212.044c0,0,71.245-7.054,81.911-4.938c10.666,2.116-4.078,70.485-4.078,70.485
			s-58.628,2.644-66.384-1.824C122.309,271.3,115.789,217.688,118.615,212.044z"/>
		<path style="fill:none;stroke:#0C0A0B;stroke-width:0.75;stroke-miterlimit:10;" d="M194.154,208.884
			c0,0-3.174,47.34-5.996,54.885c-2.822,7.545,1.03,13.108,1.03,13.108"/>
		<path style="fill:none;stroke:#0C0A0B;stroke-width:0.75;stroke-miterlimit:10;" d="M188.863,272.372c0,0,2.998-4.591,5.291-6.793
			c0,0,1.764,4.679,1.94,9.263"/>
		<path style="fill:#FF848E;" d="M201.392,250.275c0,0,7.475,5.442,8.399,7.543c1.438,3.267,1.918,7.299,1.229,7.497
			c-0.689,0.199-2.554-2.883-2.554-2.883s0.355,5.28-0.706,5.79c-1.061,0.51-1.235-1.394-1.235-1.394s-0.654,2.432-1.51,1.955
			c-0.855-0.477-0.314-1.574-0.314-1.574s-0.821,1.757-1.657,1.057c-0.836-0.7,0.008-4.725-0.307-5.652
			c-0.561-1.646-5.291,1.155-9.715-4.115L201.392,250.275z"/>
		<path style="fill:#3B4060;" d="M201.393,250.274l-8.369,8.23c0,0-52.129-23.164-56.458-33.424
			c-1.16-2.75,4.491-15.106,12.409-27.332c1.676-2.589,3.449-5.168,5.286-7.65c8.896-12.054,19.156-21.799,25.86-18.759
			c5.297,2.407,2.654,19.994-4.179,34.369c-1.289,2.707-2.729,5.297-4.287,7.65c-1.622,2.45-3.384,4.652-5.243,6.446
			c-2.031,1.955,14.031,3.76,31.092,18.007C202.478,241.969,201.393,250.274,201.393,250.274z"/>
		<path style="fill:#FFFFFF;" d="M175.941,205.709c-1.289,2.707-2.729,5.297-4.287,7.65c-4.512-2.213-9.788-5.963-13.236-8.369
			c-1.569-1.096-3.083-2.278-4.598-3.46c-1.612-1.257-3.223-2.514-4.845-3.782c1.676-2.589,3.449-5.168,5.286-7.65
			C160.749,195.363,168.463,202.368,175.941,205.709z"/>
		<path style="fill:none;stroke:#0C0A0B;stroke-width:0.75;stroke-miterlimit:10;" d="M200.376,249.168c0,0-0.511-0.425-2.221,0
			c-1.71,0.425-7.515,8.255-7.515,8.255"/>
		<path style="fill:#FA5276;" d="M135.835,210.389c0,0,19.168-41.185,39.369-39.306c13.842,1.288,8.107,37.801,8.107,37.801
			l-8.215-1.471c0,0,7.716-31.764-1.561-32.213c-11.01-0.533-31.937,35.189-31.937,35.189H135.835z"/>
		<path style="fill:none;stroke:#0C0A0B;stroke-width:0.75;stroke-miterlimit:10;" d="M166.44,220.53
			c-1.63-1.689-3.926-4.442-6.238-4.849c-0.964-0.17-1.952-0.084-2.928,0.002c-2.64,0.233-5.28,0.466-7.919,0.699"/>
		<path style="fill:#0C0A0B;" d="M217.286,137.046c0,0-3.123,7.404-5.956,10.111c-2.833,2.706-10.522,0.386-10.522,0.386
			s-3.308-9.999,1.368-14.538C206.852,128.465,217.286,137.046,217.286,137.046z"/>
		<path style="fill:#0C0A0B;" d="M216.199,129.432c-4.674,0.617-5.732,5.131-5.732,5.131s-0.088,10.242,10.023,12.238
			s13.638-5.053,13.638-5.053c-1.646,0.235-3.997-2.029-3.997-2.029c3.527-0.148,6.584-5.156,6.584-5.156h-3.967
			c5.203-3.893,1.439-9.363,1.439-9.363s-0.794,2.91-6.525,3.615C221.93,129.52,218.471,129.132,216.199,129.432z"/>
		<path style="fill:#0C0A0B;" d="M200.809,147.543c0,0,1.217,4.308,3.143,4.437s1.843-5.526,1.843-5.526
			S201.702,146.516,200.809,147.543z"/>
		<g>
			<path style="fill:#0C0A0B;" d="M215.307,151.409c0.009,0.489-0.381,0.893-0.87,0.902c-0.489,0.009-0.893-0.381-0.902-0.87
				c-0.009-0.489,0.381-0.893,0.87-0.902C214.895,150.531,215.299,150.92,215.307,151.409z"/>
		</g>
		<g>
			<path style="fill:#0C0A0B;" d="M220.695,151.314c0.009,0.489-0.381,0.893-0.87,0.902s-0.893-0.381-0.902-0.87
				c-0.009-0.489,0.381-0.893,0.87-0.902C220.283,150.435,220.686,150.824,220.695,151.314z"/>
		</g>
		<g>
			<path style="fill:#0C0A0B;" d="M212.641,148.864c-0.141,0.003-0.277-0.074-0.345-0.208c-0.095-0.187-0.02-0.415,0.167-0.51
				c0.75-0.381,1.624-0.546,2.461-0.463c0.209,0.02,0.361,0.206,0.341,0.415c-0.021,0.208-0.209,0.36-0.415,0.34
				c-0.692-0.069-1.42,0.068-2.043,0.384C212.753,148.85,212.697,148.863,212.641,148.864z"/>
		</g>
		<g>
			<g>
				<path style="fill:#0C0A0B;" d="M221.042,148.674c-0.045,0.001-0.091-0.006-0.136-0.022c-0.638-0.23-1.329-0.299-1.998-0.199
					c-0.198,0.03-0.4-0.111-0.431-0.319c-0.03-0.207,0.112-0.4,0.32-0.431c0.793-0.119,1.613-0.037,2.368,0.236
					c0.197,0.071,0.298,0.289,0.227,0.486C221.337,148.576,221.195,148.672,221.042,148.674z"/>
			</g>
		</g>
		<g>
			<path style="fill:#0C0A0B;" d="M217.286,153.949c0.603-0.124,1.256-0.108,1.872,0.166c0.309,0.134,0.596,0.359,0.817,0.653
				c0.228,0.299,0.311,0.671,0.342,1.028c0.018,0.365-0.1,0.761-0.322,1.065c-0.229,0.303-0.533,0.504-0.842,0.624
				c-0.616,0.255-1.26,0.274-1.867,0.168c0.585-0.181,1.143-0.401,1.599-0.688c0.467-0.293,0.712-0.681,0.683-1.141
				c-0.005-0.484-0.255-0.89-0.692-1.199C218.433,154.329,217.876,154.112,217.286,153.949z"/>
		</g>
		<g>
			<path style="fill:#0C0A0B;" d="M200.7,153.247c-0.575-0.018-1.169-0.218-1.641-0.617c-0.478-0.382-0.842-0.979-0.881-1.661
				c-0.037-0.682,0.333-1.364,0.882-1.699c0.537-0.355,1.181-0.421,1.74-0.296c-0.55,0.167-1.031,0.423-1.378,0.757
				c-0.343,0.339-0.522,0.768-0.494,1.206c0.013,0.439,0.226,0.889,0.542,1.279C199.791,152.604,200.206,152.949,200.7,153.247z"/>
		</g>
		<path style="fill:#F2727C;" d="M213.769,155.822c0.146,1.201-1.145,2.346-2.886,2.558c-1.74,0.212-3.27-0.589-3.416-1.789
			c-0.146-1.201,1.145-2.346,2.886-2.558C212.093,153.821,213.623,154.622,213.769,155.822z"/>
		<path style="fill:#F2727C;" d="M223.965,154.59c-0.267,1.373-0.704,2.71-1.311,3.932c-1.07-0.615-1.667-1.605-1.427-2.505
			C221.487,155.062,222.628,154.509,223.965,154.59z"/>
		<g>
			<path style="fill:#0C0A0B;" d="M218.57,159.915c-0.18,0.504-0.523,0.975-1.015,1.279c-0.484,0.319-1.123,0.433-1.708,0.322
				c-0.597-0.107-1.075-0.447-1.491-0.801c-0.187-0.2-0.373-0.4-0.531-0.616c-0.134-0.238-0.285-0.456-0.394-0.702l1.281,0.853
				c0.432,0.219,0.841,0.471,1.279,0.53C216.848,160.972,217.736,160.587,218.57,159.915z"/>
		</g>
		<path style="fill:#FF848E;" d="M276.689,248.877c0,0,9.588,2.221,12.88,3.162c3.292,0.94,6.336,12.442,6.072,13.985
			c-0.24,1.398-1.984-0.926-1.984-0.926s0.53,2.995-0.66,2.965c-1.646-0.042-2.03-1.29-2.03-1.29s1.132,1.32-0.75,1.32
			c-1.411,0-3.174-5.361-4.468-5.949c-1.469-0.668-4.82,1.881-13.407-1.497C272.343,260.646,271.098,253.474,276.689,248.877z"/>
		<path style="fill:none;stroke:#0C0A0B;stroke-width:0.75;stroke-miterlimit:10;" d="M283.686,254.12c0,0,5.473,1.411,6.267,1.94
			c0.794,0.529,2.822,4.059,2.028,4.587c-0.794,0.528-3.439-2.161-3.439-2.161s-3.527,1.454-6.437-1.068"/>
	</g>
	<g>
		<polygon style="fill:none;stroke:#0C0A0B;stroke-width:0.75;stroke-miterlimit:10;" points="308.071,292.015 334.605,378.089 
			471.637,378.089 480.581,292.015 		"/>
		<path style="fill:none;stroke:#0C0A0B;stroke-width:0.75;stroke-miterlimit:10;" d="M334.605,378.089l-13.316,37.766
			c-2.291,6.498,2.53,13.309,9.419,13.309h151.105"/>
		
			<line style="fill:none;stroke:#0C0A0B;stroke-width:0.75;stroke-miterlimit:10;" x1="334.036" y1="292.015" x2="355.678" y2="378.089"/>
		
			<line style="fill:none;stroke:#0C0A0B;stroke-width:0.75;stroke-miterlimit:10;" x1="368.544" y1="292.015" x2="380.451" y2="378.089"/>
		
			<line style="fill:none;stroke:#0C0A0B;stroke-width:0.75;stroke-miterlimit:10;" x1="460.033" y1="292.015" x2="451.088" y2="378.089"/>
		
			<line style="fill:none;stroke:#0C0A0B;stroke-width:0.75;stroke-miterlimit:10;" x1="431.236" y1="292.015" x2="426.917" y2="378.089"/>
		
			<line style="fill:none;stroke:#0C0A0B;stroke-width:0.75;stroke-miterlimit:10;" x1="401.508" y1="378.089" x2="401.508" y2="292.015"/>
		
			<line style="fill:none;stroke:#0C0A0B;stroke-width:0.75;stroke-miterlimit:10;" x1="316.596" y1="319.67" x2="477.717" y2="319.67"/>
		
			<line style="fill:none;stroke:#0C0A0B;stroke-width:0.75;stroke-miterlimit:10;" x1="474.372" y1="351.768" x2="326.491" y2="351.768"/>
		
			<ellipse transform="matrix(0.9251 -0.3796 0.3796 0.9251 -141.4447 166.7521)" style="fill:#0C0A0B;" cx="352.075" cy="442.007" rx="13.127" ry="13.127"/>
		<path style="fill:#3B4060;" d="M357.993,442.007c0,3.268-2.65,5.918-5.918,5.918s-5.918-2.649-5.918-5.918
			c0-3.268,2.649-5.918,5.918-5.918S357.993,438.739,357.993,442.007z"/>
		<path style="fill:#FFFFFF;" d="M354.617,439.404c-1.358,1.509-3.725,1.509-5.083,0l-4.346-4.829l-1.752-1.946
			c-1.98-2.2-0.419-5.707,2.542-5.707h6.098h6.098c2.96,0,4.522,3.506,2.541,5.707l-1.752,1.946L354.617,439.404z"/>
		
			<ellipse transform="matrix(0.9251 -0.3796 0.3796 0.9251 -133.1279 208.9267)" style="fill:#0C0A0B;" cx="463.167" cy="442.007" rx="13.127" ry="13.127"/>
		<path style="fill:#3B4060;" d="M469.084,442.007c0,3.268-2.65,5.918-5.918,5.918s-5.918-2.649-5.918-5.918
			c0-3.268,2.649-5.918,5.918-5.918S469.084,438.739,469.084,442.007z"/>
		<path style="fill:#FFFFFF;" d="M465.708,439.404c-1.358,1.509-3.725,1.509-5.083,0l-4.346-4.829l-1.752-1.946
			c-1.98-2.2-0.419-5.707,2.541-5.707h6.098h6.098c2.96,0,4.522,3.506,2.541,5.707l-1.752,1.946L465.708,439.404z"/>
		<path style="fill:none;stroke:#0C0A0B;stroke-width:0.75;stroke-miterlimit:10;" d="M334.605,378.089l-33.88-109.903
			c-0.642-2.081-2.565-3.501-4.743-3.501h-12.005"/>
		<rect x="272.531" y="260.646" style="fill:#FA5276;" width="22.219" height="7.214"/>
	</g>
	<g>
		<g>
			<g>
				<g>
					<polygon style="fill:#CEE3FB;" points="29.217,65.119 39.764,44.866 210.81,44.866 221.357,65.119 					"/>
				</g>
			</g>
		</g>
		<g>
			<g>
				<g>
					<polygon style="fill:#CEE3FB;" points="278.643,65.119 289.19,44.866 460.236,44.866 470.783,65.119 					"/>
				</g>
			</g>
		</g>
	</g>
</g>
</svg>
