<svg width="2232" height="1525" viewBox="0 0 2232 1525" fill="none" xmlns="http://www.w3.org/2000/svg">
<g opacity="0.6">
<path d="M1651.65 1153.89C1651.65 1153.89 1952.57 426.458 2146.89 515.526C2341.21 604.594 1837.24 958.294 1756.35 1172.83L1651.65 1153.89Z" fill="#8ECC8A"/>
</g>
<path d="M1700.63 1251.84C1700.63 1251.84 2014.01 831.236 2149.18 924.919C2284.35 1018.6 1853.8 1184.46 1767.27 1309.94L1700.63 1251.84Z" fill="#2C863A"/>
<path d="M1743.17 1269.83C1801.35 1182.09 1894.24 1107.5 1961.92 1060.37C2035.29 1009.29 2095.63 978.602 2096.23 978.298L2094.33 974.545C2093.73 974.85 2033.13 1005.67 1959.52 1056.92C1891.54 1104.25 1798.21 1179.21 1739.67 1267.51L1743.17 1269.83Z" fill="#74A1BD"/>
<path d="M494.143 356.728C479.856 362.434 473.793 359.592 471.556 353.992C469.32 348.392 471.757 342.155 486.044 336.449C512.071 326.055 528.699 331.17 528.699 331.17C528.699 331.17 520.549 346.182 494.143 356.728Z" fill="#8ECC8A"/>
<path d="M478.502 455.187C466.83 465.21 460.173 464.482 456.245 459.907C452.317 455.332 452.605 448.642 464.277 438.619C485.54 420.362 502.928 419.822 502.928 419.822C502.928 419.822 500.074 436.664 478.502 455.187Z" fill="#8ECC8A"/>
<path d="M433.445 710.768L430.614 710.083C430.719 709.648 441.108 665.67 436.061 598.169C431.4 535.887 412.271 440.266 347.586 338.417L350.044 336.855C415.085 439.265 434.303 535.436 438.972 598.081C444.036 666.002 433.551 710.327 433.445 710.768Z" fill="#8ECC8A"/>
<path d="M409.937 462.136L407.748 460.215C477.513 380.75 459.789 268.692 459.602 267.569L462.473 267.089C462.663 268.226 480.63 381.615 409.937 462.136Z" fill="#8ECC8A"/>
<path d="M373.687 408.838C344.447 404.392 324.574 386.393 324.348 386.185L326.319 384.043C326.571 384.275 352.045 407.297 387.47 406.905L387.503 409.817C382.711 409.87 378.09 409.508 373.687 408.838Z" fill="#8ECC8A"/>
<path d="M438.45 645.173C380.341 629.459 336.805 593.343 309.049 537.83C308.087 535.908 307.179 534.091 306.88 533.745C306.884 533.749 306.971 533.849 307.152 533.94L308.476 531.349C309.242 531.74 309.644 532.509 311.652 536.528C339.023 591.265 381.938 626.872 439.209 642.36L438.45 645.173Z" fill="#8ECC8A"/>
<path d="M359.553 601.463L356.887 600.288C372.834 564.128 356.118 504.849 355.948 504.255L358.746 503.45C358.789 503.602 363.111 518.778 365.36 538.294C367.445 556.375 368.132 582.012 359.553 601.463Z" fill="#8ECC8A"/>
<path d="M348.103 322.075C361.245 338.129 361.372 346.001 356.707 349.82C352.04 353.639 344.349 351.961 331.207 335.906C307.267 306.662 304.145 285.611 304.145 285.611C304.145 285.611 323.815 292.404 348.103 322.075Z" fill="#8ECC8A"/>
<path d="M333.484 378.052C350.855 389.398 353.349 396.864 350.052 401.913C346.755 406.961 338.915 407.68 321.544 396.336C289.9 375.67 280.576 356.541 280.576 356.541C280.576 356.541 301.378 357.086 333.484 378.052Z" fill="#8ECC8A"/>
<path d="M365.951 496.194C370.863 510.774 367.692 516.671 361.977 518.597C356.263 520.521 350.169 517.745 345.257 503.166C336.31 476.608 342.332 460.286 342.332 460.286C342.332 460.286 356.873 469.248 365.951 496.194Z" fill="#8ECC8A"/>
<path d="M410.101 367.458C411.318 382.794 406.807 387.743 400.797 388.22C394.786 388.697 389.551 384.522 388.333 369.186C386.116 341.248 395.927 326.882 395.927 326.882C395.927 326.882 407.851 339.113 410.101 367.458Z" fill="#8ECC8A"/>
<path d="M399.949 592.002C396.807 607.062 391.087 610.544 385.184 609.312C379.282 608.08 375.431 602.602 378.573 587.541C384.297 560.107 397.751 549.077 397.751 549.077C397.751 549.077 405.756 564.168 399.949 592.002Z" fill="#8ECC8A"/>
<path d="M322.443 537.233C330.362 550.423 328.528 556.862 323.357 559.966C318.188 563.07 311.641 561.663 303.722 548.473C289.295 524.447 291.683 507.213 291.683 507.213C291.683 507.213 307.806 512.856 322.443 537.233Z" fill="#8ECC8A"/>
<path d="M470.316 256.352C472.064 277.025 467.712 283.586 461.704 284.094C455.696 284.602 450.304 278.865 448.558 258.191C445.374 220.532 454.714 201.41 454.714 201.41C454.714 201.41 467.085 218.143 470.316 256.352Z" fill="#8ECC8A"/>
<path d="M756.887 1156.56C756.887 1156.56 617.773 567.759 459.423 611.51C301.072 655.26 640.061 985.401 675.127 1158.09L756.887 1156.56Z" fill="#8ECC8A"/>
<path d="M641.51 1045.03C641.51 1045.03 382.817 499.169 208.988 574.367C35.1589 649.565 478.893 902.039 548.201 1063.31L641.51 1045.03Z" fill="#2C863A"/>
<path d="M589.403 1055.71C543.562 943.467 455.551 838.219 389.791 769.694C318.498 695.405 257.311 647.105 256.701 646.625L259.694 642.816C260.307 643.297 321.762 691.808 393.287 766.341C459.338 835.17 547.758 940.927 593.886 1053.88L589.403 1055.71Z" fill="#74A1BD"/>
<path d="M616.464 1357.1C557.4 1342.34 487.882 1327.48 416.461 1313.1C410.854 1299.83 409.475 1288.98 409.475 1288.98C375.56 1232.93 381.724 1241.53 277.739 1236.32C203.156 1232.55 209.252 1167.5 189.329 1114.81C188.973 1113.85 188.596 1112.9 188.22 1111.94C180.368 1092.33 168.562 1074.65 147.164 1062.81C124.463 1050.26 102.071 1033.89 83.3839 1015.58C81.8289 1014.07 80.3009 1012.54 78.7989 1010.98C42.0969 973.178 21.8599 928.108 46.6429 891.986C47.2249 891.129 47.8339 890.278 48.4709 889.443C52.9209 883.548 58.6159 877.9 65.6819 872.585C139.338 817.231 192.399 855.129 257.689 881.262C293.79 895.704 358.153 860.333 415.832 849.738C416.656 849.584 417.487 849.441 418.31 849.296C463.967 841.462 505.091 849.938 524.134 912.127C524.132 912.137 524.141 912.139 524.139 912.149C524.528 913.411 524.917 914.664 525.302 915.894C568.274 1053.08 613.296 1017.6 707.78 1062.89C725.35 1071.32 740.973 1079.78 749.727 1092.16C831.357 1207.61 733.204 1318.84 616.464 1357.1Z" fill="url(#paint0_linear_20_221)"/>
<path d="M652.174 1241.02L656.79 1237.23C655.124 1235.2 484.95 1031.92 47.5678 889.149L45.7148 894.825C481.454 1037.06 650.514 1238.99 652.174 1241.02Z" fill="#2F7439"/>
<path d="M429.274 988.493C503.1 953.677 525.808 915.242 526.738 913.624L521.566 910.646C521.346 911.027 498.666 949.168 426.724 983.094L429.274 988.493Z" fill="#2F7439"/>
<path d="M400.666 1047.13C425.639 1023.27 436.562 981.351 432.254 925.901C429.029 884.376 418.33 849.355 418.223 849.007L412.521 850.766C412.943 852.131 453.964 987.955 396.54 1042.82L400.666 1047.13Z" fill="#2F7439"/>
<path d="M287.729 1002.33C296.383 998.621 301.253 995.984 301.474 995.862L298.588 990.638C297.568 991.203 194.979 1046.63 79.7418 1008.15L77.8538 1013.81C170.709 1044.81 255.484 1016.14 287.729 1002.33Z" fill="#2F7439"/>
<path d="M190.857 1117.32C226.299 1095.69 242.77 1068.38 250.345 1049.28C258.592 1028.49 258.398 1012.96 258.388 1012.31L252.418 1012.42C252.427 1013.02 252.639 1072.63 187.744 1112.23L190.857 1117.32Z" fill="#2F7439"/>
<path d="M1977.16 468.355C1988.26 451.808 1996.82 450.411 2003.3 454.761C2009.79 459.11 2011.75 467.558 2000.65 484.106C1980.44 514.25 1958.92 520.944 1958.92 520.944C1958.92 520.944 1956.65 498.938 1977.16 468.355Z" fill="#B2C9C6"/>
<path d="M2203.57 1044.03C2224.72 1042.9 2231.37 1049.28 2231.82 1057.57C2232.26 1065.86 2226.33 1072.92 2205.18 1074.06C2166.65 1076.13 2147.22 1062.12 2147.22 1062.12C2147.22 1062.12 2164.48 1046.13 2203.57 1044.03Z" fill="#B2C9C6"/>
<path d="M65.7508 684.183C49.0398 672.187 47.8798 663.309 52.5818 656.76C57.2828 650.21 66.0658 648.468 82.7768 660.464C113.219 682.315 119.419 704.736 119.419 704.736C119.419 704.736 96.6358 706.353 65.7508 684.183Z" fill="#8ECC8A"/>
<path d="M2137.46 1409.38C2137.46 1473.06 1658.98 1524.68 1068.73 1524.68C478.486 1524.68 0 1473.06 0 1409.38C0 1345.7 478.487 1294.08 1068.73 1294.08C1658.98 1294.08 2137.46 1345.7 2137.46 1409.38Z" fill="#7AB066"/>
<path d="M147.176 1425.76L146.461 1424.54C146.536 1424.49 153.897 1418.96 154.912 1412.52C155.263 1410.29 154.797 1408.17 153.521 1406.23C152.632 1404.88 151.561 1404.22 150.245 1404.22C150.245 1404.22 150.203 1404.22 150.182 1404.22C143.798 1404.33 134.542 1419.14 134.449 1419.29L132.767 1422.01L133.277 1418.75C133.298 1418.62 135.294 1405.52 131.231 1401.61C129.966 1400.39 128.162 1400.22 125.869 1401.1C123.458 1402.02 121.783 1403.71 120.889 1406.13C118.223 1413.33 123.097 1424.72 123.146 1424.83L121.979 1425.47C121.766 1424.98 116.799 1413.38 119.689 1405.57C120.731 1402.75 122.67 1400.78 125.451 1399.72C128.208 1398.66 130.439 1398.92 132.076 1400.5C135.46 1403.76 135.268 1411.85 134.885 1416.18C137.873 1411.83 144.706 1402.85 150.164 1402.77C151.939 1402.75 153.414 1403.61 154.567 1405.36C156.062 1407.64 156.609 1410.13 156.19 1412.78C155.074 1419.84 147.498 1425.52 147.176 1425.76Z" fill="#42428E"/>
<path d="M1868.43 1458.5C1868.11 1454.29 1866.73 1451.28 1864.34 1449.57C1859.09 1445.81 1850.57 1449.26 1850.48 1449.3L1847.52 1450.52L1849.64 1447.89C1849.7 1447.81 1855.75 1440.22 1854.51 1434.71C1854.03 1432.62 1852.5 1431.06 1849.95 1430.05C1839.21 1425.82 1830.42 1450.4 1830 1451.62C1829.99 1451.65 1829.98 1451.67 1829.98 1451.68L1828.53 1451.04C1828.53 1451.04 1828.54 1451.01 1828.54 1451C1828.69 1450.56 1830.29 1445.58 1828.33 1442.16C1827.13 1440.07 1824.78 1438.91 1821.36 1438.73C1818.16 1438.56 1815.94 1439.4 1814.77 1441.23C1812.52 1444.76 1814.67 1450.97 1814.69 1451.03L1813.25 1451.67C1813.15 1451.38 1810.77 1444.53 1813.5 1440.22C1814.99 1437.87 1817.65 1436.78 1821.43 1436.98C1825.39 1437.19 1828.15 1438.62 1829.64 1441.23C1830.38 1442.52 1830.72 1443.96 1830.82 1445.34C1834.34 1437.53 1841.59 1424.9 1850.46 1428.4C1853.54 1429.61 1855.4 1431.59 1856.01 1434.28C1857.01 1438.74 1854.23 1443.97 1852.35 1446.87C1855.5 1446.02 1861.07 1445.16 1865.17 1448.09C1867.99 1450.11 1869.61 1453.57 1869.97 1458.36L1868.43 1458.5Z" fill="#42428E"/>
<path d="M1307.46 1424.65C1306.91 1424.28 1294.11 1415.54 1294.11 1407.88C1294.11 1405.52 1295.29 1403.52 1297.61 1401.95C1300.16 1400.23 1302.81 1399.81 1305.5 1400.72C1311.98 1402.92 1316.66 1412.17 1317.91 1414.86C1324.51 1410.45 1329.42 1409.38 1332.52 1411.68C1336.94 1414.97 1335.84 1423.76 1335.8 1424.13L1334.51 1423.92C1334.52 1423.83 1335.54 1415.67 1331.8 1412.9C1329.07 1410.87 1324.42 1412.09 1317.98 1416.51L1317.37 1416.94L1317.06 1416.2C1317.01 1416.09 1312.01 1404.45 1305.12 1402.12C1302.81 1401.34 1300.5 1401.7 1298.28 1403.2C1296.35 1404.51 1295.41 1406.04 1295.41 1407.88C1295.41 1414.73 1308 1423.31 1308.13 1423.4L1307.46 1424.65Z" fill="#42428E"/>
<path d="M973.451 1488.03C973.4 1487.97 968.319 1482.12 964.163 1474.73C958.491 1464.64 957.14 1456.64 960.147 1450.93C961.27 1448.8 962.628 1447.83 964.154 1448.02C969.357 1448.69 975.055 1463.9 978.004 1472.96C977.027 1461.64 975.914 1439.26 981.429 1431.7C982.629 1430.05 984.095 1429.15 985.784 1429.04C987.432 1428.91 988.779 1429.59 989.799 1431.01C994.771 1437.92 990.277 1462.36 987.807 1473.8C989.649 1470.44 992.263 1466.7 994.933 1466.28C996.2 1466.07 997.203 1466.6 997.767 1467.77C999.378 1471.09 997.154 1479.57 990.643 1488L989.662 1487.04C996.064 1478.75 997.82 1470.93 996.627 1468.47C996.323 1467.84 995.843 1467.61 995.117 1467.72C991.681 1468.27 987.673 1476.65 986.417 1479.83L985.197 1479.34C985.294 1478.95 994.793 1440.28 988.788 1431.92C988.038 1430.88 987.078 1430.42 985.861 1430.5C984.532 1430.59 983.409 1431.28 982.434 1432.62C975.451 1442.2 979.923 1479.06 979.969 1479.43L978.707 1479.75C976.39 1471.56 969.233 1450.14 964.006 1449.47C963.01 1449.35 962.112 1450.06 961.262 1451.68C954.665 1464.19 974.179 1486.78 974.376 1487L973.451 1488.03Z" fill="#42428E"/>
<path d="M559.116 1449.6C559.116 1449.6 539.817 1427.49 546.458 1414.9C553.099 1402.31 564.304 1441.95 564.304 1441.95C564.304 1441.95 558.494 1395.07 570.53 1394.26C582.566 1393.45 570.53 1441.95 570.53 1441.95C570.53 1441.95 574.992 1430.64 579.349 1429.94C583.707 1429.24 582.462 1439.53 574.68 1449.6L559.116 1449.6Z" fill="#BED5DC"/>
<path d="M560.499 1450.16C559.59 1449.12 538.318 1424.48 546.038 1409.84C547.258 1407.52 548.72 1406.46 550.394 1406.67C553.723 1407.1 557.633 1413.01 562.016 1424.23C563.351 1427.65 564.532 1431.06 565.459 1433.89C564.396 1421.62 563.162 1397.18 569.173 1388.93C570.478 1387.13 572.071 1386.16 573.905 1386.04C575.699 1385.92 577.163 1386.64 578.27 1388.18C583.675 1395.7 578.789 1422.26 576.104 1434.69C578.107 1431.05 580.948 1426.98 583.851 1426.52C585.224 1426.3 586.317 1426.87 586.932 1428.14C588.683 1431.75 586.265 1440.96 579.187 1450.12L578.121 1449.08C585.079 1440.08 586.989 1431.57 585.691 1428.9C585.361 1428.22 584.839 1427.96 584.05 1428.09C580.315 1428.69 575.957 1437.79 574.592 1441.24L573.266 1440.71C573.293 1440.6 575.93 1429.92 577.7 1418.22C580.015 1402.92 579.832 1392.88 577.17 1389.18C576.354 1388.04 575.313 1387.52 573.989 1387.62C572.543 1387.72 571.325 1388.47 570.264 1389.93C562.674 1400.35 567.535 1440.41 567.584 1440.82L566.212 1441.17C563.694 1432.26 555.913 1408.98 550.231 1408.25C549.142 1408.11 548.174 1408.9 547.249 1410.65C540.077 1424.25 561.288 1448.8 561.503 1449.05L560.499 1450.16Z" fill="#42428E"/>
<path d="M1496.49 1349.06C1496.49 1349.06 1477.19 1326.95 1483.83 1314.35C1490.48 1301.76 1501.68 1341.41 1501.68 1341.41C1501.68 1341.41 1495.87 1294.53 1507.91 1293.71C1519.94 1292.9 1507.91 1341.41 1507.91 1341.41C1507.91 1341.41 1512.37 1330.1 1516.73 1329.4C1521.08 1328.7 1519.84 1338.99 1512.06 1349.06L1496.49 1349.06Z" fill="#BED5DC"/>
<path d="M1497.88 1349.61C1496.97 1348.57 1475.69 1323.93 1483.41 1309.29C1484.63 1306.98 1486.1 1305.91 1487.77 1306.13C1491.1 1306.55 1495.01 1312.46 1499.39 1323.68C1500.73 1327.1 1501.91 1330.52 1502.84 1333.35C1501.77 1321.07 1500.54 1296.63 1506.55 1288.38C1507.85 1286.59 1509.45 1285.62 1511.28 1285.49C1513.08 1285.38 1514.54 1286.09 1515.65 1287.63C1521.05 1295.15 1516.17 1321.72 1513.48 1334.15C1515.48 1330.5 1518.32 1326.44 1521.23 1325.97C1522.6 1325.75 1523.69 1326.33 1524.31 1327.59C1526.06 1331.21 1523.64 1340.42 1516.56 1349.58L1515.5 1348.54C1522.46 1339.53 1524.37 1331.03 1523.07 1328.35C1522.74 1327.67 1522.22 1327.41 1521.43 1327.54C1517.69 1328.14 1513.33 1337.24 1511.97 1340.7L1510.64 1340.17C1510.67 1340.06 1513.31 1329.38 1515.08 1317.68C1517.39 1302.38 1517.21 1292.34 1514.55 1288.63C1513.73 1287.5 1512.69 1286.98 1511.37 1287.08C1509.92 1287.18 1508.7 1287.93 1507.64 1289.39C1500.05 1299.8 1504.91 1339.87 1504.96 1340.27L1503.59 1340.62C1501.07 1331.71 1493.29 1308.43 1487.61 1307.71C1486.52 1307.56 1485.55 1308.35 1484.63 1310.1C1477.45 1323.71 1498.67 1348.26 1498.88 1348.51L1497.88 1349.61Z" fill="#42428E"/>
<path d="M1303.04 1353.95L780.13 1368.03C742.35 1368.03 708.493 1342.17 708.493 1304.39L731.292 356.967C731.292 319.187 762.03 288.449 799.81 288.449H1303.04C1340.82 288.449 1394.69 309.224 1394.69 365.929L1371.56 1285.44C1371.55 1323.22 1340.82 1353.95 1303.04 1353.95Z" fill="#858186"/>
<path d="M1303.24 305.819H799.604C771.469 305.819 748.662 327.992 748.662 355.346L734.061 1260.93C733.56 1322.91 766.892 1320.54 795.026 1320.54L1302.55 1306.53C1330.69 1306.53 1354.19 1274.23 1354.19 1246.87L1374.74 361.181C1374.74 333.828 1331.38 305.819 1303.24 305.819Z" fill="#CCFFCF"/>
<path d="M1091.4 314.373C1091.4 208.949 997.682 136.268 893.274 136.268C742.07 136.268 690.143 221.731 690.143 327.156C690.143 432.58 809.967 507.245 914.374 507.245C1018.78 507.246 1091.4 419.798 1091.4 314.373Z" fill="#AED9B0"/>
<path d="M1124.44 483.586C1124.44 483.586 1058.35 473.285 1053.63 406.937L1001.71 445.261C1001.71 445.261 1026.49 506.229 1124.44 483.586Z" fill="#AED9B0"/>
<path d="M917.373 529.916C865.073 529.916 808.208 510.929 765.256 479.126C717.833 444.013 691.716 397.589 691.716 348.403C691.716 290.723 706.937 244.985 736.957 212.458C771.478 175.055 825.08 156.09 896.271 156.09C948.58 156.09 997.996 173.798 1035.41 205.953C1074.37 239.426 1095.82 285.476 1095.82 335.62C1095.82 377.903 1084.36 417.742 1062.66 450.881C1078.32 495.204 1127.17 503.349 1127.66 503.425L1134.93 504.566L1127.76 506.223C1097.93 513.117 1056.01 516.311 1024.87 492.713C994.525 517.057 957.38 529.916 917.373 529.916ZM896.272 158.94C825.908 158.94 773.012 177.597 739.052 214.391C709.533 246.375 694.565 291.463 694.565 348.403C694.565 396.662 720.273 442.273 766.951 476.837C809.429 508.29 865.661 527.066 917.373 527.066C957.103 527.066 993.958 514.178 1023.95 489.793L1024.83 489.077L1025.72 489.777C1054 511.82 1091.99 510.575 1120.92 504.784C1106.69 500.876 1072.33 487.849 1059.74 451.147L1059.51 450.485L1059.9 449.902C1081.53 417.113 1092.97 377.595 1092.97 335.62C1092.97 286.32 1071.87 241.037 1033.56 208.113C996.657 176.404 947.901 158.94 896.272 158.94Z" fill="#2F1A31"/>
<path d="M976.585 343.248H828.004C824.734 343.248 819.703 339.84 819.268 336.599C818.378 329.95 824.725 328.05 827.996 328.05L976.585 331.356C979.855 331.356 982.531 334.032 982.531 337.302C982.531 340.571 979.855 343.248 976.585 343.248Z" fill="white"/>
<path d="M958.016 315.329H845.867C843.399 315.329 839.6 312.592 839.274 309.987C838.6 304.645 843.392 303.118 845.86 303.118L958.016 305.774C960.484 305.774 962.504 307.924 962.504 310.551C962.504 313.18 960.484 315.329 958.016 315.329Z" fill="white"/>
<path d="M1043.36 717.587C1043.36 612.162 1137.07 539.481 1241.48 539.481C1392.69 539.481 1444.61 624.945 1444.61 730.369C1444.61 835.793 1324.79 910.456 1220.38 910.456C1115.97 910.456 1043.36 823.011 1043.36 717.587Z" fill="url(#paint1_linear_20_221)"/>
<path d="M1316.42 751.31H1167.84C1164.57 751.31 1159.54 747.902 1159.1 744.661C1158.21 738.012 1164.56 736.112 1167.83 736.112L1316.42 739.418C1319.69 739.418 1322.36 742.094 1322.36 745.364C1322.36 748.634 1319.69 751.31 1316.42 751.31Z" fill="white"/>
<path d="M1304.26 777.06H1170.3C1167.35 777.06 1162.82 773.652 1162.43 770.411C1161.62 763.762 1167.35 761.862 1170.29 761.862L1304.26 765.168C1307.21 765.168 1309.62 767.844 1309.62 771.114C1309.62 774.384 1307.21 777.06 1304.26 777.06Z" fill="white"/>
<path d="M1297.85 723.394H1185.7C1183.23 723.394 1179.43 720.657 1179.11 718.052C1178.43 712.71 1183.23 711.184 1185.69 711.184L1297.85 713.84C1300.32 713.84 1302.34 715.99 1302.34 718.617C1302.34 721.245 1300.32 723.394 1297.85 723.394Z" fill="white"/>
<path d="M1010.31 886.801C1010.31 886.801 1076.4 876.498 1081.12 810.149L1133.05 848.474C1133.05 848.474 1108.27 909.442 1010.31 886.801Z" fill="#2D903C"/>
<path d="M1217.38 933.13C1177.38 933.13 1140.23 920.269 1109.89 895.927C1078.75 919.524 1036.82 916.328 1007 909.436L999.831 907.779L1007.1 906.641C1007.59 906.562 1056.44 898.42 1072.09 854.094C1050.4 820.954 1038.94 781.115 1038.94 738.835C1038.94 688.689 1060.39 642.64 1099.34 609.166C1136.76 577.012 1186.17 559.305 1238.49 559.305C1309.68 559.305 1363.28 578.268 1397.8 615.672C1427.82 648.198 1443.04 693.936 1443.04 751.616C1443.04 800.801 1416.92 847.226 1369.5 882.341C1326.55 914.145 1269.68 933.13 1217.38 933.13ZM1109.93 892.293L1110.81 893.009C1140.8 917.39 1177.65 930.281 1217.38 930.281C1269.1 930.281 1325.33 911.502 1367.81 880.049C1414.48 845.487 1440.19 799.874 1440.19 751.616C1440.19 694.675 1425.22 649.588 1395.7 617.604C1361.74 580.81 1308.85 562.154 1238.49 562.154C1186.86 562.154 1138.1 579.617 1101.2 611.327C1062.88 644.251 1041.79 689.533 1041.79 738.835C1041.79 780.808 1053.22 820.325 1074.86 853.114L1075.25 853.7L1075.02 854.363C1062.43 891.063 1028.07 904.088 1013.84 907.997C1042.76 913.787 1080.76 915.034 1109.04 892.99L1109.93 892.293Z" fill="#2F1A31"/>
<path d="M1123.39 1083.97C1123.39 1006.08 1054.15 952.387 977.017 952.387C865.313 952.387 826.951 1015.52 826.951 1093.41C826.951 1171.29 915.471 1226.45 992.605 1226.45C1069.74 1226.45 1123.39 1161.85 1123.39 1083.97Z" fill="#ACD3A3"/>
<path d="M1147.8 1208.97C1147.8 1208.97 1098.97 1201.36 1095.48 1152.35L1057.12 1180.66C1057.12 1180.66 1075.43 1225.7 1147.8 1208.97Z" fill="#ACD3A3"/>
<path d="M994.819 1243.57C956.106 1243.57 914.013 1229.52 882.22 1205.98C847.088 1179.97 827.74 1145.56 827.74 1109.11C827.74 1066.4 839.018 1032.52 861.262 1008.42C886.839 980.712 926.529 966.661 979.23 966.661C1017.96 966.661 1054.56 979.775 1082.27 1003.59C1111.13 1028.39 1127.02 1062.51 1127.02 1099.66C1127.02 1130.91 1118.57 1160.35 1102.57 1184.86C1114.13 1217.28 1149.87 1223.21 1150.23 1223.27L1157.51 1224.4L1150.33 1226.06C1128.29 1231.16 1097.34 1233.52 1074.24 1216.19C1051.8 1234.11 1024.36 1243.57 994.819 1243.57ZM979.231 969.51C856.377 969.51 830.591 1045.42 830.591 1109.11C830.591 1144.64 849.529 1178.23 883.916 1203.69C915.236 1226.88 956.695 1240.73 994.819 1240.73C1024.09 1240.73 1051.23 1231.23 1073.32 1213.27L1074.2 1212.56L1075.09 1213.25C1095.38 1229.07 1122.52 1228.57 1143.61 1224.57C1132.29 1221.19 1108.58 1211.19 1099.64 1185.13L1099.42 1184.47L1099.8 1183.89C1115.75 1159.72 1124.18 1130.6 1124.18 1099.66C1124.18 1063.35 1108.63 1030 1080.41 1005.75C1053.22 982.38 1017.28 969.51 979.231 969.51Z" fill="#2F1A31"/>
<path d="M1053.24 1095.01H904.665C901.393 1095.01 896.361 1091.6 895.929 1088.36C895.038 1081.71 901.385 1079.81 904.655 1079.81L1053.24 1083.12C1056.51 1083.12 1059.19 1085.79 1059.19 1089.06C1059.19 1092.33 1056.51 1095.01 1053.24 1095.01Z" fill="white"/>
<path d="M1034.68 1067.09H922.527C920.059 1067.09 916.261 1064.35 915.933 1061.75C915.262 1056.41 920.052 1054.88 922.52 1054.88L1034.68 1057.54C1037.15 1057.54 1039.16 1059.68 1039.16 1062.31C1039.16 1064.94 1037.15 1067.09 1034.68 1067.09Z" fill="white"/>
<path d="M1034.68 1123.13H922.527C920.059 1123.13 916.261 1120.39 915.933 1117.79C915.262 1112.45 920.052 1110.92 922.52 1110.92L1034.68 1113.58C1037.15 1113.58 1039.16 1115.73 1039.16 1118.35C1039.16 1120.98 1037.15 1123.13 1034.68 1123.13Z" fill="white"/>
<path d="M1272.52 1106.09C1272.52 1088.82 1258.52 1074.81 1241.25 1074.81C1223.98 1074.81 1209.97 1088.82 1209.97 1106.09C1209.97 1123.36 1223.97 1137.36 1241.25 1137.36C1258.52 1137.36 1272.52 1123.36 1272.52 1106.09Z" fill="#888589"/>
<path d="M1184.29 1219.15H1298.2C1313.19 1219.15 1322.87 1203.25 1315.94 1189.96C1306.03 1170.96 1285.14 1149.68 1241.24 1149.68C1197.34 1149.68 1176.45 1170.96 1166.55 1189.96C1159.62 1203.25 1169.3 1219.15 1184.29 1219.15Z" fill="#888589"/>
<path d="M961.334 747.308C961.334 730.608 947.796 717.069 931.096 717.069C914.396 717.069 900.856 730.608 900.856 747.308C900.856 764.01 914.395 777.548 931.096 777.548C947.796 777.548 961.334 764.01 961.334 747.308Z" fill="#888589"/>
<path d="M876.02 856.633H986.169C1000.66 856.633 1010.02 841.263 1003.32 828.409C993.743 810.035 973.543 789.463 931.093 789.463C888.641 789.463 868.443 810.036 858.867 828.41C852.17 841.264 861.527 856.633 876.02 856.633Z" fill="#888589"/>
<path d="M1263.19 400.605C1263.19 385.376 1250.84 373.031 1235.61 373.031C1220.38 373.031 1208.04 385.377 1208.04 400.605C1208.04 415.835 1220.38 428.181 1235.61 428.181C1250.84 428.181 1263.19 415.835 1263.19 400.605Z" fill="#888589"/>
<path d="M1185.39 500.299H1285.83C1299.05 500.299 1307.58 486.282 1301.47 474.561C1292.74 457.806 1274.32 439.047 1235.61 439.047C1196.9 439.047 1178.48 457.807 1169.75 474.563C1163.64 486.284 1172.17 500.299 1185.39 500.299Z" fill="#888589"/>
<path d="M557.274 1114.44C561.037 1121.15 598.828 1179.69 590.918 1236.94L549.786 1222.07L530.99 1144.89L557.274 1114.44Z" fill="#FFC49B"/>
<path d="M393.03 1090.45C393.03 1090.45 418.302 1045.13 479.817 1057.66C541.332 1070.19 574.903 1158.24 558.218 1332.63C558.218 1332.63 460.491 1293.78 333.42 1325.1C333.42 1325.1 354.335 1156.2 393.03 1090.45Z" fill="#6DA485"/>
<path d="M346.11 1072.14L389.35 1115.3C389.35 1115.3 500.202 1145.25 530.99 1144.89C561.779 1144.53 573.898 1122.03 573.898 1122.03C573.898 1122.03 547.912 1080.88 495.332 1062.27C490.393 1060.51 485.226 1058.96 479.818 1057.66C470.74 1055.48 461.51 1054.23 452.35 1053.68C397.921 1050.44 346.11 1072.14 346.11 1072.14Z" fill="#6DA485"/>
<path d="M346.111 1072.14C339.199 1079.65 349.859 1087.86 361.798 1099.78C373.738 1111.7 386.072 1118.65 389.347 1115.3C392.623 1111.96 385.599 1099.58 373.66 1087.66C361.721 1075.74 349.282 1068.69 346.111 1072.14Z" fill="#4B9169"/>
<path d="M383.599 1115.48C383.599 1115.48 384.243 1106.86 373.407 1095.85C366.881 1089.22 358.619 1084.89 353.078 1082.49C349.784 1081.06 345.979 1082.67 344.672 1086.04L341.206 1094.97L357.347 1105.37L383.599 1115.48Z" fill="#FFB27D"/>
<path d="M460.004 1275.36C460.004 1275.36 326.609 1203.07 278.796 1281.93C243.402 1340.31 296.606 1394.67 493.95 1389.15C493.95 1389.15 513.453 1380.01 508.703 1332.63C506.822 1313.85 460.004 1275.36 460.004 1275.36Z" fill="#5F8264"/>
<path d="M460.004 1275.36C460.004 1275.36 637.667 1202.59 672.82 1248.08C713.22 1300.37 674.477 1389.15 487.205 1357.41L464.383 1332.63L460.004 1275.36Z" fill="#5F8264"/>
<path d="M494.168 1389.45L493.733 1388.84C514.451 1374.06 508.882 1336.09 508.371 1332.9L373.712 1283.89L373.968 1283.19L509.034 1332.35L509.071 1332.56C509.145 1332.97 516.078 1373.82 494.168 1389.45Z" fill="#020202"/>
<path d="M509.839 1345.66C509.839 1345.66 542.581 1346.99 557.961 1354.54C573.341 1362.08 565.128 1380.49 533.9 1380C502.671 1379.51 505.042 1374.86 505.042 1374.86C505.042 1374.86 510.974 1358.7 509.839 1345.66Z" fill="#331832"/>
<path d="M467.927 1278.83C478.77 1278.83 487.678 1276.09 494.901 1270.64C508.542 1260.35 511.073 1243.95 509.095 1233.03L496.044 1225.44C495.396 1221.86 470.211 1235.16 470.254 1235.15C470.139 1235.19 458.235 1238.63 416.959 1217.54C388.226 1202.86 373.745 1182.02 372.688 1153.83C371.89 1132.58 381.363 1120.65 383.598 1115.48C383.896 1114.79 369.712 1100.57 370.119 1099.12L359.486 1093.72C359.829 1092.5 349.263 1088.33 349.413 1087.98L341.207 1094.97C337.157 1104.34 328.543 1125.85 329.654 1155.48C330.809 1186.26 343.52 1228.75 397.513 1256.34C426.957 1271.39 450.066 1278.83 467.927 1278.83Z" fill="#FFC49B"/>
<path d="M476.685 1280.56H591.807C594.218 1280.56 596.357 1279.03 597.118 1276.75L621.042 1205.31C622.247 1201.71 619.55 1198 615.731 1198H505.022C499.977 1198 495.498 1201.21 493.906 1205.96L471.375 1273.25C470.17 1276.85 472.867 1280.56 476.685 1280.56Z" fill="#4D454E"/>
<path d="M483.911 1280.56H599.033C601.443 1280.56 603.583 1279.03 604.344 1276.75L628.267 1205.31C629.472 1201.71 626.775 1198 622.956 1198H512.247C507.202 1198 502.723 1201.21 501.131 1205.96L478.6 1273.25C477.395 1276.85 480.093 1280.56 483.911 1280.56Z" fill="#4D454E"/>
<path d="M564.575 1236.94C564.575 1234.23 561.446 1233.12 558.714 1233.12C555.982 1233.12 551.522 1236.1 551.551 1239.9C551.582 1244 554.787 1244.53 557.518 1244.53C560.249 1244.53 564.575 1240.39 564.575 1236.94Z" fill="#DAEBE8"/>
<path d="M441.588 1270.46H599.091V1280.56H438.296C436.417 1280.56 434.894 1279.03 434.894 1277.16C434.894 1273.46 437.891 1270.46 441.588 1270.46Z" fill="#4D454E"/>
<path d="M492.096 1234.12L491.374 1233.92C491.606 1233.05 497.103 1212.44 500.805 1205.78C504.561 1199.02 509.157 1197.69 509.35 1197.63L509.549 1198.36C509.504 1198.37 505.049 1199.68 501.458 1206.14C497.801 1212.72 492.153 1233.9 492.096 1234.12Z" fill="#331832"/>
<path d="M475.082 1270.84V1270.09C478.853 1270.09 479.789 1268.52 479.798 1268.51L488.743 1241.77L489.452 1242.01L480.479 1268.81C480.412 1268.95 479.35 1270.84 475.082 1270.84Z" fill="#331832"/>
<path d="M364.432 1216.89C364.021 1216.89 363.592 1216.83 363.151 1216.71C360.672 1216.05 357.95 1213.57 356.045 1210.23C353.127 1205.13 353.049 1199.85 355.866 1198.21C356.743 1197.7 357.83 1197.59 359.001 1197.91C361.479 1198.57 364.203 1201.05 366.107 1204.38C369.024 1209.48 369.102 1214.77 366.286 1216.41C365.739 1216.73 365.111 1216.89 364.432 1216.89ZM357.343 1209.49C359.031 1212.44 361.463 1214.71 363.538 1215.27C364.329 1215.48 364.999 1215.43 365.534 1215.12C367.562 1213.93 367.231 1209.36 364.811 1205.13C363.123 1202.17 360.691 1199.91 358.616 1199.35C357.827 1199.14 357.155 1199.19 356.621 1199.5C354.591 1200.68 354.923 1205.26 357.343 1209.49Z" fill="#EC865C"/>
<path d="M451.399 1053.57C458.963 1053.35 464.7 1052.57 469.051 1047.45L482.516 1031.61L486.435 1027L509.481 999.892L497.378 1031.59L490.111 1050.62L487.811 1056.65C486.25 1060.73 488.313 1062.64 489.766 1067.42C490.355 1069.36 494.327 1081.29 483.979 1081.36C471.088 1081.45 454.784 1066.47 451.203 1053.53C451.268 1053.55 451.332 1053.57 451.399 1053.57Z" fill="#FFC49B"/>
<path d="M478.771 1021.44C478.771 1021.44 453.395 997.052 468.034 976.467C482.673 955.882 486.33 1009.5 486.33 1009.5L482.239 1021.9L478.771 1021.44Z" fill="#331832"/>
<path d="M482.643 1031.07C482.595 1031.25 482.553 1031.43 482.516 1031.62C480.161 1042.31 490.024 1050.66 490.024 1050.66L490.11 1050.62L497.377 1031.6C494.289 1029.28 489.742 1026.49 486.434 1027C484.706 1027.28 483.317 1028.45 482.643 1031.07Z" fill="#331832"/>
<path d="M536.486 1017.42C541.995 998.3 533.708 979.124 517.978 974.593C502.248 970.062 485.03 981.89 479.522 1001.01C474.014 1020.14 482.3 1039.31 498.03 1043.84C513.76 1048.37 530.978 1036.54 536.486 1017.42Z" fill="#FFC49B"/>
<path d="M485.038 997.712C485.038 997.712 493.118 1003.59 499.892 998.623C506.666 993.657 511.456 988.947 526.622 996.58C541.788 1004.21 558.391 1000.79 561.457 992.191C564.523 983.595 557.299 977.014 547.772 977.44C538.245 977.866 549.788 972.643 543.161 963.609C536.534 954.574 519.725 963.882 511.392 959.403C503.059 954.924 473.375 951.034 468.035 976.467L485.038 997.712Z" fill="#331832"/>
<path d="M478.698 1002.81C480.646 1005.81 484.383 1006.83 487.045 1005.07C489.707 1003.31 490.285 999.447 488.337 996.44C486.389 993.433 482.652 992.42 479.99 994.177C477.328 995.935 476.75 999.798 478.698 1002.81Z" fill="#FFB27D"/>
<path d="M544.704 989.213C538.333 989.213 529.686 981.438 529.29 981.078L530.036 980.256C530.137 980.348 540.229 989.424 546.062 987.944C548.304 987.375 549.572 986.314 549.37 985.173C549.178 984.088 547.582 983.059 545.329 983.287C540.394 983.795 537.714 982.116 537.602 982.044L538.199 981.108C538.223 981.123 540.691 982.646 545.216 982.182C548.242 981.867 550.181 983.392 550.462 984.98C550.708 986.365 549.751 988.154 546.334 989.021C545.814 989.153 545.268 989.213 544.704 989.213Z" fill="white"/>
<path d="M518.507 967.921C516.403 967.921 514.227 967.61 512.153 966.797C509.513 965.763 507.22 964.551 505.002 963.378C500.701 961.105 496.989 959.144 492.944 959.928L492.732 958.838C497.156 957.975 501.035 960.024 505.52 962.396C507.711 963.553 509.975 964.751 512.557 965.762C520.269 968.784 529.292 964.419 529.858 963.943L530.67 964.698C530.189 965.257 524.661 967.921 518.507 967.921Z" fill="white"/>
<path d="M475.731 975.148C475.568 975.148 475.417 975.124 475.28 975.072C474.907 974.931 474.334 974.492 474.695 973.137L474.777 972.962C475.4 972.072 478.622 967.702 480.837 969.101C481.121 969.28 481.718 969.823 481.129 971.01C480.396 972.485 477.436 975.148 475.731 975.148ZM475.746 973.516C475.646 973.938 475.708 974.066 475.708 974.066C476.007 974.171 477.61 973.4 479.134 971.829C480.21 970.719 480.3 970.138 480.264 970.053C479.28 969.432 477.015 971.728 475.746 973.516Z" fill="white"/>
<path d="M513.707 1010.08C513.888 1010.06 514.054 1009.95 514.149 1009.78C514.31 1009.48 514.207 1009.12 513.917 1008.95C513.747 1008.86 510.001 1006.26 505.988 1009.7C505.735 1009.91 505.692 1010.29 505.902 1010.55C506.111 1010.81 506.45 1010.79 506.747 1010.64C509.716 1009.13 513.19 1009.93 513.333 1010.01C513.452 1010.08 513.583 1010.1 513.707 1010.08Z" fill="#080435"/>
<path d="M508.161 1016.08C507.935 1017.51 508.584 1018.8 509.61 1018.97C510.637 1019.14 511.652 1018.11 511.879 1016.69C512.105 1015.26 511.456 1013.96 510.43 1013.8C509.403 1013.63 508.387 1014.66 508.161 1016.08Z" fill="#080435"/>
<path d="M534.679 1017.69C534.815 1017.72 534.971 1017.68 535.098 1017.55C535.313 1017.33 535.368 1016.95 535.22 1016.7C535.133 1016.56 533.387 1012.91 529.357 1014.8C529.103 1014.91 528.942 1015.25 529 1015.56C529.058 1015.87 529.305 1015.96 529.567 1015.92C532.188 1015.49 534.366 1017.38 534.439 1017.5C534.499 1017.6 534.585 1017.66 534.679 1017.69Z" fill="#080435"/>
<path d="M527.154 1021.07C526.406 1022.3 526.518 1023.75 527.405 1024.3C528.292 1024.84 529.617 1024.29 530.365 1023.05C531.113 1021.82 531.001 1020.38 530.114 1019.83C529.228 1019.28 527.902 1019.84 527.154 1021.07Z" fill="#080435"/>
<path d="M509.978 1036.26C506.367 1036.26 500.916 1035.19 497.681 1029.48C497.566 1029.27 497.637 1029.02 497.84 1028.9C498.042 1028.79 498.3 1028.86 498.414 1029.06C503.223 1037.56 512.99 1035.17 513.404 1035.07C513.625 1035.01 513.858 1035.15 513.916 1035.37C513.974 1035.6 513.838 1035.82 513.613 1035.88C513.574 1035.89 512.09 1036.26 509.978 1036.26Z" fill="#020202"/>
<path d="M496.825 1030.96C496.781 1030.96 496.736 1030.95 496.693 1030.94C496.472 1030.86 496.352 1030.63 496.425 1030.41C496.772 1029.36 497.702 1028.39 499.19 1027.53C499.386 1027.42 499.685 1027.45 499.806 1027.65C499.926 1027.84 499.92 1028.06 499.732 1028.19L499.61 1028.26C497.987 1029.2 497.417 1030.09 497.225 1030.67C497.166 1030.85 497.002 1030.96 496.825 1030.96Z" fill="#020202"/>
<path d="M544.413 1120.31L542.659 1120.89L549.455 1141.55L551.209 1140.97L544.413 1120.31Z" fill="#331832"/>
<path d="M530.529 1041.5C528.361 1041.5 526.409 1040.69 524.826 1039.12C519.762 1034.1 520.001 1022.48 525.358 1013.2C528.657 1007.49 533.283 1003.73 537.734 1003.13C540.387 1002.78 542.782 1003.57 544.656 1005.43C549.72 1010.45 549.481 1022.07 544.124 1031.35C540.825 1037.05 536.198 1040.82 531.747 1041.42C531.335 1041.47 530.928 1041.5 530.529 1041.5ZM538.938 1004.3C538.598 1004.3 538.252 1004.33 537.9 1004.38C533.831 1004.92 529.548 1008.45 526.442 1013.83C521.35 1022.64 521.021 1033.59 525.706 1038.23C527.294 1039.8 529.326 1040.48 531.58 1040.17C535.649 1039.63 539.933 1036.09 543.038 1030.72C548.129 1021.91 548.459 1010.96 543.774 1006.32C542.435 1004.99 540.778 1004.3 538.938 1004.3Z" fill="white"/>
<path opacity="0.3" d="M495.195 999.574C490.857 1008.8 492.056 1020.02 497.874 1024.64C503.691 1029.26 511.924 1025.53 516.263 1016.3C520.601 1007.08 519.402 995.856 513.584 991.236C507.766 986.617 499.533 990.35 495.195 999.574Z" fill="white"/>
<path opacity="0.3" d="M524.927 1013.94C520.573 1023.21 521.162 1034.46 526.241 1039.06C531.321 1043.66 538.968 1039.88 543.322 1030.61C547.676 1021.35 547.087 1010.1 542.008 1005.5C536.928 1000.89 529.281 1004.67 524.927 1013.94Z" fill="white"/>
<path d="M504.387 1027.12C502.114 1027.12 499.964 1026.36 498.068 1024.88C491.643 1019.87 490.226 1007.78 494.909 997.931C497.641 992.189 501.882 988.263 506.546 987.162C509.748 986.401 512.808 987.074 515.394 989.094C521.819 994.111 523.236 1006.2 518.553 1016.05C515.822 1021.79 511.58 1025.72 506.916 1026.82C506.061 1027.02 505.215 1027.12 504.387 1027.12ZM509.062 988.114C508.332 988.114 507.588 988.203 506.835 988.38C502.606 989.379 498.57 993.15 496.041 998.468C491.596 1007.81 492.851 1019.22 498.839 1023.9C501.116 1025.67 503.81 1026.27 506.628 1025.6C510.857 1024.6 514.893 1020.83 517.422 1015.51C521.867 1006.16 520.612 994.756 514.623 990.08C512.956 988.778 511.064 988.114 509.062 988.114Z" fill="white"/>
<path d="M525.671 1017.89C525.321 1017.89 524.976 1017.74 524.746 1017.44C524.645 1017.31 522.218 1014.29 516.93 1014.16C516.284 1014.14 515.774 1013.61 515.79 1012.96C515.807 1012.31 516.319 1011.8 516.988 1011.82C523.444 1011.98 526.473 1015.85 526.599 1016.01C526.992 1016.53 526.893 1017.26 526.381 1017.65C526.168 1017.81 525.919 1017.89 525.671 1017.89Z" fill="white"/>
<path d="M1509.63 1412.69C1509.63 1412.69 1626.03 1430.76 1723.63 1421.2C1821.23 1411.63 1956.08 1406.36 1931.52 1245.45C1906.95 1084.55 1933.54 1017.31 1837.15 977.731C1740.78 938.153 1628.66 963.819 1553.49 1055.84C1478.32 1147.86 1302.22 1343.85 1509.63 1412.69Z" fill="url(#paint2_linear_20_221)"/>
<path d="M1719.42 1175.25C1718.77 1175.25 1718.2 1174.76 1718.12 1174.1C1718.02 1173.37 1718.53 1172.71 1719.26 1172.62C1755.18 1167.96 1783.12 1147.62 1800.24 1131.37C1818.8 1113.75 1828.96 1097.05 1829.06 1096.88C1829.44 1096.26 1830.25 1096.06 1830.87 1096.44C1831.5 1096.81 1831.7 1097.62 1831.32 1098.25C1831.22 1098.41 1820.87 1115.42 1802.05 1133.28C1784.65 1149.8 1756.22 1170.48 1719.59 1175.23C1719.54 1175.24 1719.48 1175.25 1719.42 1175.25Z" fill="#2F1A31"/>
<path d="M1774.81 1154.42C1774.61 1154.42 1774.41 1154.37 1774.22 1154.28C1773.57 1153.95 1773.3 1153.16 1773.63 1152.51C1780.76 1138.1 1780.4 1125.32 1778.85 1117.14C1777.16 1108.24 1773.73 1102.68 1773.69 1102.63C1773.3 1102.01 1773.49 1101.19 1774.11 1100.81C1774.72 1100.42 1775.54 1100.61 1775.93 1101.22C1776.07 1101.46 1790.32 1124.73 1775.99 1153.68C1775.76 1154.15 1775.29 1154.42 1774.81 1154.42Z" fill="#2F1A31"/>
<path d="M1403.78 441.693C1403.78 441.693 1406.84 461.704 1415.01 471.906C1420.39 478.63 1435.23 491.948 1424.68 496.386C1416.25 499.93 1400.01 484.152 1394.74 480.227C1389.47 476.301 1381.52 468.871 1383.29 462.54C1386.94 449.425 1385.73 432.938 1385.73 432.938L1403.78 441.693Z" fill="#331832"/>
<path d="M1344.71 426.17C1344.71 426.17 1340.63 446.001 1344.73 458.404C1347.44 466.58 1356.73 484.227 1345.29 484.717C1336.15 485.109 1326.41 464.67 1322.84 459.157C1319.26 453.644 1314.39 443.915 1318.25 438.591C1326.23 427.563 1330.83 411.687 1330.83 411.687L1344.71 426.17Z" fill="#331832"/>
<path d="M1350.43 440.184C1459.87 367.182 1454.46 303.229 1439.3 278.219C1421.68 249.173 1393.8 226.206 1351.05 215.961C1339.66 213.229 1328.81 211.65 1319.75 210.741C1306.62 209.425 1295.32 219.907 1295.67 233.093L1296.65 270.338L1296.56 270.34C1314.82 269.958 1370.22 275.525 1384.74 305.046C1387.75 311.182 1314.09 397.708 1316.83 413.234C1319.94 430.797 1339.73 447.322 1350.43 440.184Z" fill="#2C863A"/>
<path d="M1392.86 451.117C1405.45 451.18 1415.49 440.608 1414.74 428.044C1413.09 400.112 1407.9 352.573 1391.64 316.655C1382.41 296.285 1367.75 277.763 1348.05 261.605C1333.19 249.421 1315.41 238.532 1295.2 229.24C1261.59 213.785 1237.38 215.941 1237.38 215.941L1219.02 243.028C1219.26 243.077 1213.86 270.351 1252.7 294.672C1274.12 308.09 1317.2 316.29 1334.92 350.968C1347.57 375.725 1352.4 408.55 1354.01 431.489C1354.78 442.461 1363.89 450.972 1374.89 451.027L1392.86 451.117Z" fill="#2C863A"/>
<path d="M1367.87 119.933C1367.87 119.933 1390.44 154.662 1398.53 206.144C1403.88 240.211 1341.88 200.551 1341.88 200.551L1339.12 129.385L1367.87 119.933Z" fill="#FFC49B"/>
<path d="M1255.03 100.304C1255.03 100.304 1272.22 70.9148 1311.86 79.9338C1351.49 88.9528 1367.64 129.434 1370.48 226.648C1370.48 226.648 1346.67 268.767 1238.4 260.556C1226.4 259.646 1209.21 258.06 1215.07 238.607C1225.97 202.448 1236.53 130.322 1255.03 100.304Z" fill="#6AA85F"/>
<path d="M1211.43 108.887L1252.2 116.55C1252.2 116.55 1323.49 137.633 1343.44 137.8C1363.4 137.967 1371.66 123.371 1371.66 123.371C1371.66 123.371 1355.56 96.0486 1321.83 83.1586C1318.66 81.9426 1315.34 80.8616 1311.86 79.9376C1306.01 78.3916 1300.08 77.0366 1294.13 76.9686C1226.84 76.1956 1211.43 108.887 1211.43 108.887Z" fill="#6AA85F"/>
<path d="M1211.43 108.887C1210.55 112.101 1219.09 117.464 1230.51 120.865C1241.94 124.267 1251.91 124.419 1252.8 121.205C1253.68 117.991 1245.13 112.628 1233.71 109.226C1222.29 105.825 1212.31 105.673 1211.43 108.887Z" fill="#31973B"/>
<path d="M1218.47 199.418C1235.88 226.702 1270.37 244.117 1306.62 242.975L1302.76 213.896C1274.65 208.774 1253.11 190.484 1249.09 175.066C1244.05 155.693 1245.78 136.822 1248.19 122.639C1248.42 121.294 1247.89 119.94 1246.81 119.11C1243.21 116.357 1233.9 110.762 1217.27 110.432C1215.79 110.403 1214.47 111.396 1214.09 112.827C1207.13 139.043 1202.93 175.071 1218.47 199.418Z" fill="#FFC49B"/>
<path d="M1236.81 208.041C1236.17 208.041 1235.5 207.906 1234.84 207.637C1232.93 206.869 1231.23 205.056 1230.27 202.788C1228.6 198.85 1229.6 194.643 1232.49 193.409C1233.61 192.928 1234.89 192.948 1236.17 193.467C1238.08 194.235 1239.79 196.048 1240.74 198.316C1242.41 202.255 1241.41 206.461 1238.52 207.694C1237.98 207.924 1237.41 208.041 1236.81 208.041ZM1234.2 193.76C1233.7 193.76 1233.21 193.857 1232.76 194.05C1230.23 195.133 1229.4 198.93 1230.91 202.514C1231.8 204.616 1233.36 206.289 1235.1 206.989C1236.21 207.436 1237.3 207.458 1238.25 207.05C1240.78 205.968 1241.61 202.172 1240.1 198.587C1239.21 196.485 1237.65 194.813 1235.91 194.112C1235.33 193.878 1234.75 193.76 1234.2 193.76Z" fill="#E9845C"/>
<path d="M1302.76 213.896C1302.76 213.896 1328.79 205.617 1337.06 209.533C1345.33 213.449 1352.94 224.706 1347.3 223.368C1341.65 222.03 1334.92 218.328 1334.92 218.328C1334.92 218.328 1348.94 226.915 1345.51 229.325C1342.09 231.736 1329.96 224.151 1329.96 224.151C1329.96 224.151 1345.84 235.698 1341.86 236.927C1337.88 238.156 1325.88 229.298 1325.88 229.298C1325.88 229.298 1340.23 240.632 1335.57 241.951C1330.92 243.27 1323.78 232.508 1320.35 234.919C1316.92 237.33 1308.18 248.402 1300.31 239.689L1302.76 213.896Z" fill="#FFB27D"/>
<path d="M1334.7 218.587C1334.66 218.558 1331.19 215.68 1328.63 216.395L1328.44 215.746C1331.35 214.92 1334.98 217.941 1335.13 218.07L1334.7 218.587Z" fill="#E9845C"/>
<path d="M1329.74 224.406C1329.7 224.376 1326.3 221.479 1322.37 221.794L1322.31 221.119C1326.56 220.798 1330.03 223.768 1330.18 223.897L1329.74 224.406Z" fill="#E9845C"/>
<path d="M1325.67 229.557C1325.62 229.521 1321.49 226.078 1318.85 227.083L1318.61 226.45C1321.63 225.318 1325.92 228.887 1326.1 229.039L1325.67 229.557Z" fill="#E9845C"/>
<path d="M1334.73 254.397H1418.3C1420.05 254.397 1421.6 253.284 1422.15 251.636L1439.52 199.775C1440.39 197.163 1438.43 194.468 1435.66 194.468H1355.3C1351.64 194.468 1348.39 196.797 1347.23 200.248L1330.88 249.091C1330 251.701 1331.96 254.397 1334.73 254.397Z" fill="#838B96"/>
<path d="M1339.98 254.397H1423.54C1425.29 254.397 1426.84 253.284 1427.39 251.636L1444.76 199.775C1445.63 197.163 1443.68 194.468 1440.9 194.468H1360.54C1356.88 194.468 1353.63 196.797 1352.47 200.248L1336.12 249.091C1335.25 251.701 1337.2 254.397 1339.98 254.397Z" fill="#838B96"/>
<path d="M1398.53 222.735C1398.53 220.766 1396.26 219.963 1394.27 219.963C1392.29 219.963 1389.05 222.124 1389.07 224.883C1389.1 227.86 1391.42 228.247 1393.41 228.247C1395.39 228.247 1398.53 225.241 1398.53 222.735Z" fill="#DAEBE8"/>
<path d="M1309.25 247.068H1423.58V254.397H1306.87C1305.5 254.397 1304.4 253.291 1304.4 251.927C1304.4 249.244 1306.57 247.068 1309.25 247.068Z" fill="#838B96"/>
<path d="M1345.92 220.685L1345.39 220.546C1345.56 219.912 1349.55 204.951 1352.24 200.115C1354.96 195.208 1358.3 194.244 1358.44 194.205L1358.59 194.728C1358.55 194.737 1355.32 195.687 1352.71 200.378C1350.06 205.157 1345.96 220.531 1345.92 220.685Z" fill="#366F90"/>
<path d="M1333.57 247.34V246.797C1336.31 246.797 1336.99 245.662 1336.99 245.651L1343.48 226.246L1344 226.419L1337.49 245.869C1337.44 245.969 1336.67 247.34 1333.57 247.34Z" fill="#366F90"/>
<path d="M1410.59 389.518C1410.57 389.268 1408.83 364.326 1401.12 336.124C1394.01 310.128 1380.24 275.967 1354.97 260.846L1355.32 260.266C1380.78 275.504 1394.64 309.838 1401.78 335.956C1409.5 364.224 1411.25 389.223 1411.26 389.472L1410.59 389.518Z" fill="#020202"/>
<path d="M1354.81 436.997C1354.53 398.244 1341.86 368.336 1341.74 368.038L1342.36 367.772C1342.49 368.07 1355.21 398.095 1355.48 436.992L1354.81 436.997Z" fill="#020202"/>
<path d="M1328.49 81.8895C1328.49 81.8895 1319.23 77.1275 1318.23 71.6205C1317.22 66.1135 1313.49 67.4255 1311.56 65.8545C1309.62 64.2835 1316.78 50.2535 1316.78 50.2535L1337.41 44.8525L1332.93 70.2365L1328.49 81.8895Z" fill="#331832"/>
<path d="M1286.82 77.0219C1291.12 76.9689 1295.08 74.6429 1297.15 70.8639L1303.64 59.0229L1305.52 55.5859L1316.58 35.3779L1312.94 57.0619L1310.76 70.0759L1310.13 73.7859C1309.63 76.8129 1311.5 79.7119 1314.46 80.5369L1314.51 80.5509C1315.87 83.3289 1317.6 88.8749 1310.74 90.3629C1302.67 92.1129 1290.6 84.7539 1286.75 77.0219C1286.77 77.0229 1286.79 77.0229 1286.82 77.0219Z" fill="#FFC49B"/>
<path d="M1303.65 58.6596C1303.64 58.7806 1303.64 58.9016 1303.64 59.0236C1303.49 66.1106 1310.71 70.1106 1310.71 70.1106L1310.76 70.0756L1312.94 57.0616C1310.72 56.0006 1307.52 54.8236 1305.52 55.5866C1304.47 55.9846 1303.74 56.9126 1303.65 58.6596Z" fill="#E1986C"/>
<path d="M1337.76 40.9057C1339.08 26.9297 1330.97 14.7297 1319.64 13.6577C1308.31 12.5847 1298.05 23.0457 1296.73 37.0217C1295.41 50.9977 1303.52 63.1977 1314.85 64.2697C1326.17 65.3427 1336.43 54.8827 1337.76 40.9057Z" fill="#FFC49B"/>
<path d="M1326.74 56.3858C1326.74 56.3858 1319.72 55.8838 1312.94 52.7598C1312.94 52.7598 1311.71 59.6108 1319.25 60.7918C1323.64 61.4788 1326.74 56.3858 1326.74 56.3858Z" fill="white"/>
<path d="M1319.2 39.3961C1319.34 39.3721 1319.47 39.2851 1319.54 39.1481C1319.66 38.9181 1319.57 38.6361 1319.34 38.5171C1319.2 38.4471 1316.22 36.5351 1313.17 39.2921C1312.98 39.4661 1312.96 39.7581 1313.13 39.9531C1313.3 40.1481 1313.56 40.1231 1313.79 39.9991C1316.07 38.7621 1318.8 39.2931 1318.91 39.3511C1319 39.4001 1319.11 39.4131 1319.2 39.3961Z" fill="#080435"/>
<path d="M1314.06 43.8433C1313.92 44.9533 1314.46 45.9353 1315.26 46.0373C1316.07 46.1393 1316.84 45.3233 1316.98 44.2133C1317.12 43.1033 1316.58 42.1213 1315.77 42.0193C1314.97 41.9173 1314.2 42.7343 1314.06 43.8433Z" fill="#080435"/>
<path d="M1327.25 45.9795C1327.04 47.0775 1327.52 48.0925 1328.32 48.2455C1329.11 48.3985 1329.93 47.6325 1330.14 46.5345C1330.35 45.4365 1329.88 44.4215 1329.08 44.2685C1328.28 44.1155 1327.47 44.8815 1327.25 45.9795Z" fill="#080435"/>
<path d="M1308.82 21.8161C1324.16 27.0491 1333.96 42.1581 1332.93 58.3331C1332.87 59.2721 1332.8 60.2361 1332.7 61.2251C1332.7 61.2251 1321.88 62.5741 1320.32 72.9281C1319.84 76.1731 1328.73 82.6221 1329.42 82.3921C1334.57 80.66 1348.6 69.8551 1347.93 45.7121C1347.27 21.5691 1339.68 3.15806 1317.83 0.352057C1295.98 -2.45394 1297.52 12.4351 1297.52 12.4351C1297.52 12.4351 1300.77 19.0691 1308.82 21.8161Z" fill="#331832"/>
<path d="M1311.89 22.1521C1311.89 22.1521 1311.5 22.3571 1310.85 22.7661C1308.36 24.3431 1302.14 28.9531 1300.4 36.5441C1298.2 46.1031 1306.94 53.0131 1303.68 60.2591C1300.41 67.5061 1294.45 58.4641 1288.85 59.2241C1283.25 59.9841 1279.47 57.0461 1280.15 46.0531C1280.82 35.0591 1285.8 9.73015 1298.76 10.9581L1311.89 22.1521Z" fill="#331832"/>
<path d="M1296.75 40.8758C1298.87 43.3148 1302.09 43.8488 1303.96 42.0708C1305.83 40.2918 1305.63 36.8738 1303.52 34.4348C1301.4 31.9958 1298.18 31.4608 1296.31 33.2398C1294.44 35.0178 1294.64 38.4368 1296.75 40.8758Z" fill="#FFB27D"/>
<path d="M1337.04 71.0136C1337.02 71.0136 1337.01 71.0116 1336.99 71.0086C1336.86 70.9816 1336.77 70.8526 1336.8 70.7186C1339.78 55.1666 1335.58 39.4206 1330.09 30.7136C1321.6 17.2446 1311.11 17.8886 1311 17.8986C1310.87 17.8956 1310.75 17.8076 1310.74 17.6706C1310.73 17.5346 1310.83 17.4136 1310.97 17.4036C1311.07 17.3906 1321.84 16.7006 1330.51 30.4486C1336.05 39.2376 1340.29 55.1276 1337.28 70.8106C1337.26 70.9296 1337.16 71.0136 1337.04 71.0136Z" fill="white"/>
<path d="M1289.49 50.7467C1289.39 50.7467 1289.29 50.6847 1289.26 50.5837C1285.31 39.7767 1289.53 22.0867 1294.17 17.1257C1298.9 12.0777 1305.36 15.6237 1305.42 15.6587C1305.54 15.7257 1305.58 15.8766 1305.52 15.9956C1305.45 16.1146 1305.3 16.1567 1305.18 16.0907C1304.93 15.9487 1298.99 12.6997 1294.54 17.4657C1289.97 22.3417 1285.84 39.7596 1289.73 50.4126C1289.77 50.5426 1289.71 50.6846 1289.58 50.7316C1289.55 50.7426 1289.52 50.7467 1289.49 50.7467Z" fill="white"/>
<path d="M1340.27 51.6249H1340.26C1340.13 51.6189 1340.02 51.5049 1340.02 51.3669C1340.04 51.0699 1341 21.5759 1329.81 15.4769C1318.62 9.3749 1309.32 14.9139 1309.22 14.9719C1309.1 15.0409 1308.95 15.0069 1308.88 14.8899C1308.81 14.7729 1308.85 14.6209 1308.96 14.5489C1309.06 14.4899 1318.6 8.79891 1330.05 15.0419C1341.5 21.2869 1340.57 50.1589 1340.52 51.3849C1340.51 51.5189 1340.4 51.6249 1340.27 51.6249Z" fill="white"/>
<path d="M1537.54 1340.36C1537.54 1340.36 1533.81 1364.5 1523.88 1376.81C1517.34 1384.92 1499.3 1400.99 1512.13 1406.34C1522.38 1410.62 1542.12 1391.58 1548.52 1386.85C1554.93 1382.11 1564.59 1373.15 1562.45 1365.51C1558.01 1349.69 1559.47 1329.8 1559.47 1329.8L1537.54 1340.36Z" fill="#331832"/>
<path d="M1587.09 1321.64C1587.09 1321.64 1592.05 1345.56 1587.06 1360.52C1583.77 1370.38 1572.48 1391.67 1586.39 1392.27C1597.49 1392.74 1609.33 1368.08 1613.68 1361.43C1618.02 1354.78 1623.94 1343.04 1619.26 1336.62C1609.55 1323.32 1603.96 1304.17 1603.96 1304.17L1587.09 1321.64Z" fill="#331832"/>
<path d="M1580.14 1338.54C1447.1 1250.48 1453.67 1173.33 1472.11 1143.16C1493.52 1108.12 1527.42 1080.41 1579.38 1068.05C1593.23 1064.75 1606.42 1062.85 1617.43 1061.75C1633.39 1060.16 1647.13 1072.81 1646.71 1088.72L1645.52 1133.65L1645.62 1133.65C1623.42 1133.19 1556.08 1139.9 1538.43 1175.52C1534.77 1182.92 1624.32 1287.3 1620.98 1306.03C1617.2 1327.22 1593.15 1347.15 1580.14 1338.54Z" fill="#416D38"/>
<path d="M1528.55 1351.73C1513.26 1351.81 1501.05 1339.05 1501.96 1323.9C1503.96 1290.2 1510.27 1232.85 1530.04 1189.52C1541.26 1164.95 1559.08 1142.61 1583.03 1123.11C1601.09 1108.42 1622.7 1095.28 1647.27 1084.07C1688.13 1065.43 1717.55 1068.03 1717.55 1068.03L1736.79 1079.57C1736.49 1079.63 1764.62 1144.17 1712.71 1172.9C1659.57 1202.32 1620.53 1189.08 1598.99 1230.92C1583.62 1260.78 1577.74 1300.38 1575.79 1328.05C1574.85 1341.29 1563.77 1351.56 1550.4 1351.62L1528.55 1351.73Z" fill="#416D38"/>
<path d="M1507.01 1277.42L1506.19 1277.37C1506.21 1277.07 1508.33 1246.91 1517.72 1212.81C1526.4 1181.3 1543.24 1139.88 1574.19 1121.5L1574.61 1122.2C1543.9 1140.44 1527.15 1181.65 1518.52 1213.01C1509.14 1247.03 1507.03 1277.12 1507.01 1277.42Z" fill="#020202"/>
<path d="M1574.81 1334.7L1573.99 1334.69C1574.33 1287.77 1589.8 1251.55 1589.95 1251.19L1590.7 1251.51C1590.55 1251.87 1575.15 1287.95 1574.81 1334.7Z" fill="#020202"/>
<path d="M1574.42 930.891C1570.19 936.363 1528.81 983.474 1528.29 1035.48L1566.87 1027.68L1593.79 961.467L1574.42 930.891Z" fill="#FFC49B"/>
<path d="M1723.78 931.236C1723.78 931.236 1707.28 887.553 1650.87 890.58C1594.46 893.607 1554.83 915.862 1546.64 1073.29C1546.64 1073.29 1624.49 1068.87 1713.5 1121.26C1728.48 1130.08 1751.88 1128.31 1752.84 1110.94C1754.75 1076.36 1747.63 1010.32 1723.78 931.236Z" fill="#6DA485"/>
<path d="M1773.34 938.139L1723.78 953.841C1723.78 953.841 1621.15 965.854 1593.79 961.467C1566.44 957.08 1558.62 935.45 1558.62 935.45C1558.62 935.45 1587.19 902.253 1636.45 892.632C1641.08 891.721 1645.88 891.027 1650.86 890.583C1659.23 889.844 1667.28 889.078 1675.49 889.939C1755.75 898.354 1773.34 938.139 1773.34 938.139Z" fill="#6DA485"/>
<path d="M1773.34 938.139C1776 944.05 1764.38 949.595 1750.15 954.871C1735.91 960.148 1723.22 961.211 1721.79 957.247C1720.37 953.283 1730.75 945.791 1744.99 940.515C1759.22 935.238 1771.62 934.294 1773.34 938.139Z" fill="#4D8B67"/>
<path d="M1632.23 1089.02C1622.58 1087.58 1615.01 1083.97 1609.3 1078.16C1598.52 1067.2 1598.43 1052.27 1601.64 1042.81L1614.26 1037.78C1615.31 1034.68 1635.96 1049.85 1635.93 1049.83C1636.03 1049.88 1646.17 1054.52 1685.69 1041.2C1713.21 1031.92 1728.85 1015.29 1733.52 990.34C1737.03 971.533 1730.92 961.876 1729.61 956.977C1729.44 956.325 1733 948.123 1747.69 943.266C1763.55 938.021 1769.31 942.109 1769.31 942.109C1771.68 950.982 1776.51 971.262 1771.6 997.491C1766.51 1024.74 1749.58 1060.87 1697.88 1078.3C1669.68 1087.8 1648.13 1091.37 1632.23 1089.02Z" fill="#FFC49B"/>
<path d="M1623.56 1093.44L1520.01 1090.61C1517.84 1090.55 1515.96 1089.12 1515.33 1087.06L1495.56 1022.21C1494.57 1018.94 1497.09 1015.67 1500.52 1015.76L1600.1 1018.48C1604.64 1018.6 1608.59 1021.6 1609.91 1025.92L1628.52 1087C1629.52 1090.26 1627 1093.54 1623.56 1093.44Z" fill="#838B96"/>
<path d="M1617.06 1093.26L1513.51 1090.44C1511.34 1090.38 1509.46 1088.95 1508.83 1086.88L1489.06 1022.03C1488.07 1018.76 1490.59 1015.49 1494.02 1015.58L1593.6 1018.3C1598.14 1018.43 1602.09 1021.42 1603.41 1025.74L1622.02 1086.82C1623.02 1090.08 1620.5 1093.36 1617.06 1093.26Z" fill="#838B96"/>
<path d="M1545.58 1052.05C1545.65 1049.61 1548.49 1048.69 1550.94 1048.76C1553.4 1048.82 1557.34 1051.61 1557.22 1055.03C1557.09 1058.72 1554.2 1059.12 1551.74 1059.05C1549.28 1058.98 1545.49 1055.15 1545.58 1052.05Z" fill="#DAEBE8"/>
<path d="M1655.41 1085.22L1513.71 1081.35L1513.46 1090.43L1658.11 1094.38C1659.79 1094.43 1661.19 1093.1 1661.24 1091.42L1661.24 1091.38C1661.33 1088.07 1658.72 1085.31 1655.41 1085.22Z" fill="#838B96"/>
<path d="M1610.84 1051.29C1610.8 1051.09 1606.24 1031.9 1603.11 1025.89C1600.04 1019.99 1596.06 1018.7 1596.02 1018.69L1596.22 1018.05C1596.39 1018.1 1600.49 1019.41 1603.71 1025.58C1606.87 1031.67 1611.31 1050.34 1611.5 1051.13L1610.84 1051.29Z" fill="#764678"/>
<path d="M1625.25 1084.74C1621.41 1084.63 1620.5 1082.91 1620.46 1082.83L1613.03 1058.46L1613.67 1058.26L1621.08 1082.58C1621.09 1082.58 1621.92 1083.97 1625.26 1084.06L1625.25 1084.74Z" fill="#764678"/>
<g opacity="0.3">
<path d="M1733.15 1047.6C1732.29 1047.6 1731.54 1047.36 1730.95 1046.88C1728.66 1045.05 1729.42 1040.36 1732.69 1036.2C1734.83 1033.49 1737.58 1031.64 1739.88 1031.38C1740.96 1031.25 1741.91 1031.49 1742.63 1032.06C1744.92 1033.89 1744.15 1038.59 1740.88 1042.74C1738.74 1045.45 1735.99 1047.3 1733.7 1047.57C1733.51 1047.59 1733.32 1047.6 1733.15 1047.6ZM1740.44 1032.69C1740.31 1032.69 1740.17 1032.7 1740.03 1032.71C1738.11 1032.93 1735.65 1034.63 1733.75 1037.04C1731.04 1040.48 1730.14 1044.51 1731.79 1045.83C1732.22 1046.18 1732.82 1046.31 1733.54 1046.23C1735.47 1046.01 1737.93 1044.31 1739.82 1041.91C1742.54 1038.46 1743.43 1034.43 1741.78 1033.11C1741.43 1032.83 1740.98 1032.69 1740.44 1032.69Z" fill="#EC865C"/>
</g>
<path d="M1661.03 882.982L1652.54 868L1650.07 863.638L1635.53 837.991L1640.39 865.602L1643.31 882.174L1644.24 887.42C1644.87 890.981 1642.88 892.193 1640.93 895.833C1640.14 897.307 1635 906.327 1643.45 908.046C1653.97 910.188 1670.51 899.843 1675.49 889.94C1675.43 889.939 1663.78 887.823 1661.03 882.982Z" fill="#FFC49B"/>
<path d="M1611.34 832.456C1611.34 832.456 1611.06 839.495 1614.62 847.464C1618.18 855.433 1622.19 833.054 1622.19 833.054L1611.34 832.456Z" fill="#5C305D"/>
<path d="M1614.14 850.093C1612.73 833.487 1622.75 819.076 1636.52 817.905C1650.29 816.734 1662.6 829.248 1664.01 845.855C1665.42 862.462 1655.4 876.873 1641.63 878.043C1627.86 879.213 1615.55 866.7 1614.14 850.093Z" fill="#FFC49B"/>
<path d="M1662.77 837.282L1650.67 838.642C1648.01 838.941 1645.32 838.064 1643.43 836.168C1640.18 832.903 1636.83 831.592 1625.89 834.421C1612.02 838.003 1600.97 831.688 1597.86 824.704C1594.69 817.576 1600.73 810.951 1608.53 812.975C1616.33 814.999 1611.41 806.929 1617.96 804.526C1630.2 800.035 1634.69 809.244 1644.95 806.669C1658.4 803.292 1684.91 808.278 1678.62 834.637L1662.77 837.282Z" fill="#331832"/>
<path d="M1637.52 847.021C1637.37 846.969 1637.25 846.851 1637.2 846.693C1637.12 846.426 1637.27 846.142 1637.54 846.06C1637.7 846.012 1641.24 844.544 1643.96 848.062C1644.14 848.284 1644.1 848.6 1643.89 848.776C1643.67 848.952 1643.39 848.874 1643.17 848.699C1640.98 846.946 1637.97 846.991 1637.84 847.031C1637.73 847.062 1637.62 847.057 1637.52 847.021Z" fill="#080435"/>
<path d="M1641.06 852.908C1640.99 854.117 1640.23 855.061 1639.36 855.016C1638.48 854.971 1637.82 853.955 1637.88 852.746C1637.94 851.537 1638.7 850.593 1639.58 850.638C1640.46 850.683 1641.12 851.699 1641.06 852.908Z" fill="#080435"/>
<path d="M1618.86 849.559C1618.74 849.564 1618.62 849.499 1618.54 849.37C1618.4 849.152 1618.42 848.834 1618.58 848.658C1618.68 848.554 1620.76 845.873 1623.76 848.127C1623.95 848.269 1624.03 848.574 1623.92 848.818C1623.82 849.062 1623.6 849.093 1623.39 849.012C1621.3 848.2 1619.17 849.362 1619.09 849.448C1619.02 849.519 1618.94 849.556 1618.86 849.559Z" fill="#080435"/>
<path d="M1624.49 853.65C1624.89 854.791 1624.55 855.954 1623.72 856.247C1622.89 856.54 1621.89 855.852 1621.49 854.711C1621.09 853.57 1621.43 852.407 1622.26 852.114C1623.09 851.821 1624.09 852.509 1624.49 853.65Z" fill="#080435"/>
<path d="M1678.62 834.637C1678.62 834.637 1674.31 854.06 1663 857.889C1663 857.889 1669.43 842.399 1647.89 838.528C1647.89 838.528 1665.4 831.708 1678.62 834.637Z" fill="#5C305D"/>
<path d="M1664.41 847.943C1662.28 850.062 1659.01 850.234 1657.12 848.327C1655.22 846.42 1655.42 843.157 1657.55 841.038C1659.69 838.919 1662.95 838.747 1664.85 840.653C1666.74 842.56 1666.54 845.824 1664.41 847.943Z" fill="#FFB27D"/>
<path d="M1647.89 838.527C1647.89 838.527 1652.71 852.981 1650.31 856.438C1647.9 859.895 1628.28 865.448 1618.21 863.892C1620.14 873.431 1628.67 880.357 1638.39 879.881C1641.61 879.723 1644.81 879.026 1647.88 877.772C1654.13 875.215 1659.86 871.145 1661.22 864.532C1661.63 862.519 1656.79 851.754 1656.79 851.754C1656.79 851.754 1654.45 845.326 1657.55 841.038C1657.55 841.038 1652.23 838.013 1647.89 838.527Z" fill="#5C305D"/>
<path d="M1624.28 868.158C1624.28 868.158 1632.35 868.554 1640.5 865.926C1640.5 865.926 1640.97 873.904 1632.21 874.211C1627.11 874.39 1624.28 868.158 1624.28 868.158Z" fill="white"/>
<path d="M1609.57 811.524L1609.45 810.853C1612.69 810.249 1612.42 807.607 1612.4 807.495L1613.08 807.412C1613.08 807.445 1613.46 810.8 1609.57 811.524Z" fill="#331832"/>
<path d="M1621.07 831.37C1620.41 831.325 1604.84 830.186 1602.48 822.439C1601.8 820.2 1601.86 818.584 1602.68 817.498C1603.98 815.768 1606.89 815.81 1609.46 815.844C1609.84 815.849 1610.21 815.851 1610.57 815.854V816.195C1610.21 816.196 1609.84 816.191 1609.46 816.186C1606.97 816.152 1604.15 816.113 1602.95 817.704C1602.2 818.696 1602.16 820.213 1602.81 822.34C1605.1 829.862 1620.93 831.019 1621.09 831.029L1621.07 831.37Z" fill="white"/>
<path d="M1640.77 810.121C1632.81 810.121 1628.14 806.591 1628.08 806.541L1628.29 806.271C1628.37 806.339 1637.16 812.969 1651.24 807.829L1651.36 808.151C1647.39 809.598 1643.84 810.121 1640.77 810.121Z" fill="white"/>
<defs>
<linearGradient id="paint0_linear_20_221" x1="77.234" y1="844.114" x2="738.263" y2="1357.1" gradientUnits="userSpaceOnUse">
<stop stop-color="#67BC74"/>
<stop offset="1" stop-color="#499D51"/>
</linearGradient>
<linearGradient id="paint1_linear_20_221" x1="1243.99" y1="539.481" x2="1243.99" y2="910.456" gradientUnits="userSpaceOnUse">
<stop stop-color="#47B157"/>
<stop offset="1" stop-color="#298B38"/>
</linearGradient>
<linearGradient id="paint2_linear_20_221" x1="1673.23" y1="959.755" x2="1673.23" y2="1423.99" gradientUnits="userSpaceOnUse">
<stop stop-color="#7AB066"/>
<stop offset="1" stop-color="#5D934A"/>
</linearGradient>
</defs>
</svg>
