<svg width="432" height="394" viewBox="0 0 432 394" fill="none" xmlns="http://www.w3.org/2000/svg">
<path d="M419.016 393.555C425.967 393.555 431.641 387.982 431.747 381.031C432.279 346.386 435.07 295.285 369.825 281.152C317.026 269.715 348.33 175.884 206.136 181.947C104.064 186.299 131.181 272.334 51.8169 279.499C-0.993126 284.267 -1.45013 351.058 0.578874 381.662C1.02287 388.356 6.57587 393.556 13.2849 393.556H419.016V393.555Z" fill="#97CCAF"/>
<path opacity="0.55" d="M369.825 281.152C317.026 269.715 348.33 175.884 206.136 181.947C181.859 182.982 164.899 188.643 152.068 196.76C156.391 196.194 160.979 195.795 165.869 195.587C308.063 189.524 276.759 283.355 329.558 294.792C394.107 308.774 392.064 358.94 391.498 393.556H419.016C425.967 393.556 431.641 387.983 431.747 381.032C432.279 346.387 435.07 295.285 369.825 281.152Z" fill="#218947"/>
<path d="M145.973 0H143.728V163.799H145.973V0Z" fill="#79C9E8"/>
<path d="M306.947 0H304.702V188.961H306.947V0Z" fill="#79C9E8"/>
<path d="M306.732 177.946L139.785 158.46C132.65 157.627 126.191 162.736 125.359 169.871L112.899 276.625C112.066 283.76 117.175 290.219 124.31 291.051L291.257 310.537C298.392 311.37 304.851 306.261 305.683 299.126L318.143 192.372C318.975 185.238 313.867 178.779 306.732 177.946Z" fill="#E4FFF0"/>
<path d="M316.909 202.939L318.142 192.372C318.975 185.237 313.866 178.778 306.731 177.946L139.785 158.46C132.65 157.627 126.191 162.736 125.359 169.871L124.126 180.438L316.909 202.939Z" fill="#167238"/>
<path d="M151.136 245.079L172.298 207.793C173.654 205.404 176.308 204.059 179.036 204.377C182.786 204.815 185.471 208.21 185.034 211.96L180.632 249.676L180.82 249.698C183.418 250.001 185.279 252.354 184.976 254.952C184.673 257.55 182.32 259.411 179.722 259.108L179.534 259.086L178.732 265.955C178.405 268.761 175.864 270.77 173.058 270.443C170.252 270.115 168.243 267.575 168.57 264.769L169.372 257.9L154.137 256.122C151.534 255.818 149.671 253.462 149.974 250.859L150.378 247.398C150.473 246.581 150.731 245.793 151.136 245.079ZM170.542 247.868L173.272 224.478C173.291 224.316 173.073 224.245 172.993 224.387L160.49 246.45C160.269 246.84 160.517 247.328 160.962 247.38L169.848 248.417C170.192 248.457 170.502 248.211 170.542 247.868Z" fill="#79C9E8"/>
<path d="M244.532 255.98L265.694 218.694C267.05 216.305 269.704 214.96 272.432 215.278C276.182 215.716 278.867 219.111 278.43 222.861L274.028 260.577L274.216 260.599C276.814 260.902 278.675 263.255 278.372 265.853C278.069 268.451 275.716 270.312 273.118 270.009L272.93 269.987L272.128 276.856C271.8 279.662 269.26 281.671 266.454 281.344C263.648 281.016 261.639 278.476 261.966 275.67L262.768 268.801L247.533 267.023C244.93 266.719 243.067 264.363 243.37 261.76L243.774 258.299C243.869 257.482 244.127 256.694 244.532 255.98ZM263.939 258.769L266.669 235.379C266.688 235.217 266.47 235.146 266.39 235.288L253.887 257.351C253.666 257.74 253.914 258.229 254.359 258.281L263.246 259.318C263.588 259.358 263.899 259.112 263.939 258.769Z" fill="#79C9E8"/>
<path d="M202.546 223.144C203.776 212.606 210.03 207.231 220.193 208.418C230.355 209.604 235.204 216.274 233.974 226.813L229.976 261.063C228.746 271.602 222.491 276.976 212.329 275.79C202.166 274.604 197.318 267.934 198.548 257.395L202.546 223.144ZM208.822 259.26C208.273 263.965 210.134 265.994 213.427 266.378C216.72 266.762 218.999 265.217 219.548 260.512L223.699 224.945C224.248 220.24 222.387 218.211 219.094 217.827C215.801 217.443 213.522 218.989 212.973 223.694L208.822 259.26Z" fill="#79C9E8"/>
<path d="M143.806 173.212C143.582 175.129 141.846 176.502 139.929 176.279C138.012 176.055 136.639 174.319 136.863 172.402C137.087 170.485 138.822 169.112 140.74 169.336C142.658 169.56 144.03 171.295 143.806 173.212Z" fill="white"/>
<path d="M160.552 175.167C160.328 177.084 158.592 178.457 156.675 178.234C154.758 178.01 153.385 176.274 153.608 174.357C153.832 172.44 155.568 171.067 157.485 171.291C159.403 171.514 160.776 173.25 160.552 175.167Z" fill="#79C9E8"/>
<path d="M177.911 177.193C177.687 179.11 175.951 180.483 174.034 180.259C172.117 180.035 170.744 178.299 170.968 176.382C171.192 174.465 172.928 173.092 174.845 173.316C176.762 173.54 178.135 175.276 177.911 177.193Z" fill="#FFBF4D"/>
<path d="M110.751 298.792C110.751 298.792 108.496 308.79 108.872 319.013C109.209 328.165 108.12 388.323 108.12 388.323H115.468C115.468 388.323 125.928 341.207 126.319 337.486C126.71 333.765 131.971 296.556 131.971 296.556L110.751 298.792Z" fill="#267C48"/>
<path d="M115.637 296.048C115.637 296.048 117.328 308.902 120.203 318.035C123.078 327.168 137.21 388.322 137.21 388.322H144.558C144.558 388.322 143.205 341.206 142.697 337.485C142.19 333.764 138.469 296.555 138.469 296.555L115.637 296.048Z" fill="#167238"/>
<path d="M137.811 388.311V393.439H151.799C152.594 393.439 152.904 392.409 152.243 391.968C150.197 390.606 146.921 388.729 143.875 388.31H137.811V388.311Z" fill="#167238"/>
<path d="M108.495 388.311V393.439H122.483C123.278 393.439 123.588 392.409 122.927 391.968C120.881 390.606 117.605 388.729 114.559 388.31H108.495V388.311Z" fill="#167238"/>
<path d="M133.732 236.255C133.732 236.255 138.543 228.95 133.019 228.237C128.778 227.69 127.033 228.953 127.033 228.953C127.033 228.953 122.15 228.415 119.477 230.731C117.646 232.318 110.924 244.629 121.793 249.083C132.662 253.538 130.346 242.134 130.346 242.134L133.732 236.255Z" fill="#00668E"/>
<path d="M133.02 228.237C128.779 227.69 127.034 228.953 127.034 228.953C127.034 228.953 122.151 228.415 119.478 230.731C117.647 232.318 110.925 244.629 121.794 249.083C126.903 251.177 129.098 249.766 129.99 247.684C119.677 250.585 118.56 238.156 120.26 234.62C121.988 231.026 126.134 232.685 126.134 232.685C127.756 228.603 133.041 229.045 135.219 229.363C134.823 228.796 134.135 228.381 133.02 228.237Z" fill="#05556D"/>
<path d="M126.961 239.818C126.961 239.818 125.536 238.393 124.467 239.818C123.398 241.244 124.111 244.451 125.892 244.629C125.892 244.629 125.357 249.262 121.794 249.083V252.825H130.168V249.974C130.168 249.974 135.335 247.836 135.157 243.56C134.979 239.284 133.732 236.255 133.732 236.255C133.732 236.255 130.881 239.462 126.961 239.818Z" fill="#F98D3D"/>
<path d="M128.243 251.173C129.072 251.518 128.927 252.041 128.964 252.826H130.169V249.975C130.169 249.975 128.14 250.62 125.168 248.927C125.168 248.927 126.897 250.612 128.243 251.173Z" fill="#ED701B"/>
<path d="M129.957 232.999C129.957 232.999 125.616 231.27 125.109 232.567C124.777 233.416 125.622 234.148 126.78 234.886L125.758 235.054C125.531 235.092 125.449 235.382 125.628 235.526C125.913 235.756 126.7 235.911 128.341 235.968L129.957 232.999Z" fill="#F98D3D"/>
<path d="M160.953 243.871C152.676 237.737 130.069 232.833 130.069 232.833L128.206 236.228C128.206 236.228 148.729 244.181 147.374 245.366C146.579 246.066 136.549 250.661 133.155 252.207C132.426 252.538 131.631 252.7 130.821 252.686L120.431 252.627C120.431 252.627 112.935 251.736 107.036 258.511C101.764 264.579 92.802 278.629 92.802 278.629L107.898 300.831L109.57 303.283L109.585 303.253L109.57 303.459C109.57 303.459 110.107 303.518 111.057 303.606C115.91 304.055 131.462 305.285 139.695 303.54L139.923 303.488L139.533 267.067C152.677 256.662 158.951 248.628 161.197 246.102C161.785 245.432 161.675 244.409 160.953 243.871ZM110.298 293.54L108.825 290.322L104.134 280.072L111.918 271.353L110.519 290.484L110.298 293.54Z" fill="#FFBF4D"/>
<path d="M108.825 290.322L110.298 293.54L109.583 303.253L109.569 303.282L107.897 300.83L108.825 290.322Z" fill="#EFAA3A"/>
<path opacity="0.29" d="M136.02 265.758C134.622 266.773 134.976 275.781 134.631 281.412C134.053 290.843 133.49 299.004 133.905 304.266C136.036 304.126 138.018 303.895 139.694 303.54L139.922 303.488L139.532 267.067C152.676 256.662 158.95 248.628 161.196 246.102C161.785 245.432 161.675 244.408 160.953 243.871C160.953 243.871 150.563 255.199 136.02 265.758Z" fill="#F98D2B"/>
<path d="M142.698 337.485C142.332 334.8 140.293 314.681 139.186 303.685L133.905 304.266C133.905 304.266 141.609 367.599 142.115 388.322H144.559C144.559 388.322 143.206 341.206 142.698 337.485Z" fill="#00668E"/>
<path d="M108.839 240.857L107.247 238.002C108.045 236.497 108.501 234.783 108.501 232.961C108.501 227.007 103.674 222.18 97.72 222.18C91.766 222.18 86.939 227.007 86.939 232.961C86.939 238.915 91.766 243.742 97.72 243.742C100.718 243.742 103.428 242.517 105.382 240.542L108.839 240.857Z" fill="#167238"/>
<path d="M92.1121 231.988H92.5321V233.491C92.5321 233.951 92.6691 234.149 92.9931 234.149C93.2461 234.149 93.4231 234.022 93.6561 233.734V231.988H94.0711V234.447H93.7281L93.6921 234.062H93.6771C93.4491 234.33 93.2071 234.507 92.8671 234.507C92.3461 234.507 92.1131 234.173 92.1131 233.546L92.1121 231.988Z" fill="white"/>
<path d="M95.82 234.654V235.484H95.405V231.987H95.75L95.785 232.27H95.8C96.023 232.083 96.296 231.926 96.585 231.926C97.217 231.926 97.556 232.417 97.556 233.181C97.556 234.016 97.055 234.507 96.493 234.507C96.266 234.507 96.038 234.401 95.81 234.224L95.82 234.654ZM96.422 234.159C96.827 234.159 97.125 233.79 97.125 233.183C97.125 232.641 96.942 232.277 96.477 232.277C96.269 232.277 96.062 232.393 95.819 232.611V233.901C96.042 234.088 96.26 234.159 96.422 234.159Z" fill="white"/>
<path d="M98.6521 233.89C98.8651 234.062 99.0821 234.184 99.3761 234.184C99.7001 234.184 99.8621 234.012 99.8621 233.799C99.8621 233.546 99.5691 233.435 99.3001 233.334C98.9511 233.208 98.5661 233.04 98.5661 232.626C98.5661 232.231 98.8801 231.928 99.4111 231.928C99.7201 231.928 99.9881 232.054 100.175 232.206L99.9781 232.469C99.8111 232.343 99.6341 232.252 99.4161 232.252C99.1071 232.252 98.9661 232.419 98.9661 232.606C98.9661 232.834 99.2341 232.925 99.5121 233.031C99.8661 233.162 100.261 233.309 100.261 233.775C100.261 234.174 99.9421 234.509 99.3601 234.509C99.0111 234.509 98.6771 234.362 98.4441 234.17L98.6521 233.89Z" fill="white"/>
<path d="M101.56 233.87C101.722 233.87 101.859 234.001 101.859 234.194C101.859 234.376 101.722 234.507 101.56 234.507C101.393 234.507 101.256 234.375 101.256 234.194C101.257 234.002 101.393 233.87 101.56 233.87Z" fill="white"/>
<path d="M103.325 233.87C103.487 233.87 103.624 234.001 103.624 234.194C103.624 234.376 103.487 234.507 103.325 234.507C103.158 234.507 103.021 234.375 103.021 234.194C103.022 234.002 103.159 233.87 103.325 233.87Z" fill="white"/>
<path d="M67.503 370.495C67.503 370.495 65.238 368.38 66.758 360.356C68.278 352.332 72.134 344.626 70.242 335.921C68.35 327.216 53.517 305.266 53.467 303.807C53.417 302.347 48.891 329.342 56.562 339.976C64.233 350.61 65.156 354.299 64.815 359.891C64.474 365.483 64.894 369.987 65.735 371.287L67.503 370.495Z" fill="#79C9E8"/>
<path d="M66.099 354.356C65.207 357.935 64.669 366.911 66.094 369.059C66.227 369.26 66.418 369.145 66.656 368.775C66.222 367.291 65.937 364.691 66.758 360.356C68.278 352.332 72.134 344.626 70.242 335.921C68.35 327.216 53.517 305.267 53.467 303.807C53.467 303.807 55.702 322.094 63.23 334.682C68.62 343.692 66.991 350.776 66.099 354.356Z" fill="#49B4D6"/>
<path d="M70.2081 369.937C70.2081 369.937 65.8501 359.057 73.2361 349.637C80.6211 340.217 92.4331 328.121 92.6681 323.329C92.6681 323.329 95.7031 346.079 86.0911 352.52C76.4781 358.96 69.7371 359.988 71.4041 369.896L70.2081 369.937Z" fill="#79C9E8"/>
<path d="M80.5832 347.946C69.8642 355.748 68.9882 364.735 70.6512 368.903C70.7802 369.227 71.0252 369.425 71.3482 369.531C69.9112 359.967 76.5972 358.879 86.0892 352.52C95.7022 346.08 92.6662 323.329 92.6662 323.329C92.6662 323.329 91.3022 340.145 80.5832 347.946Z" fill="#49B4D6"/>
<path d="M63.041 370.182C63.041 370.182 64.439 364.421 63.695 358.201C62.951 351.981 56.454 348.483 50.383 341.913C47.26 338.533 46.336 320.659 48.272 318.998C48.272 318.998 37.554 331.987 39.207 341.497C40.86 351.007 58.345 357.187 59.963 361.783C61.581 366.378 61.447 370.236 61.447 370.236L63.041 370.182Z" fill="#79C9E8"/>
<path d="M44.6498 324.11C41.1068 333.703 44.7388 345.321 56.5058 352.537C65.1688 357.85 62.4099 368.897 62.4099 368.897L63.8248 364.539C63.9498 362.655 63.9638 360.46 63.6938 358.201C62.9498 351.981 56.4529 348.483 50.3819 341.913C47.3699 338.653 46.4039 321.915 48.0769 319.24C47.5869 319.858 46.1998 321.655 44.6498 324.11Z" fill="#49B4D6"/>
<path d="M48.0779 319.24C48.1989 319.087 48.2719 318.998 48.2719 318.998C48.2039 319.057 48.1399 319.142 48.0779 319.24Z" fill="#49B4D6"/>
<path d="M72.4509 369.462C72.4509 369.462 74.9629 360.141 81.1759 358.886C87.3889 357.631 94.5229 348.451 94.9089 346.65C94.9089 346.65 93.8609 363.965 72.4509 369.462Z" fill="#79C9E8"/>
<path d="M80.8209 361.968C77.0139 363.872 75.4309 366.432 74.8689 368.756C93.9309 362.626 94.9089 346.651 94.9089 346.651C94.8329 347.007 94.4849 347.658 93.9409 348.472C92.0709 351.747 87.5449 358.606 80.8209 361.968Z" fill="#49B4D6"/>
<path d="M85.8949 366.03H53.3999L57.2589 390.3C57.5519 392.141 59.1389 393.496 61.0029 393.496H78.2919C80.1559 393.496 81.7429 392.141 82.0359 390.3L85.8949 366.03Z" fill="#FFBF4D"/>
<path d="M85.2569 370.045L85.8949 366.03H53.3999L54.0389 370.045H85.2569Z" fill="#FF9F50"/>
<path d="M78.0229 366.03L74.1639 390.3C73.8709 392.141 72.2839 393.495 70.4199 393.495H78.2919C80.1559 393.495 81.7429 392.14 82.0359 390.3L85.8949 366.03H78.0229Z" fill="#FF9F50"/>
<path d="M310.023 322.747H163.16V352.607H310.023V322.747Z" fill="#FFBF4D"/>
<path opacity="0.29" d="M310.023 322.747H163.16V329.995H310.023V322.747Z" fill="#F98D2B"/>
<path d="M175.93 322.747H189.334L185.741 329.998H172.33L175.93 322.747Z" fill="#F77E2D"/>
<path d="M206.129 322.747H219.533L215.94 329.998H202.536L206.129 322.747Z" fill="#F77E2D"/>
<path d="M236.328 322.747H249.733L246.14 329.998H232.736L236.328 322.747Z" fill="#F77E2D"/>
<path d="M266.528 322.747H279.925L276.332 329.998H262.935L266.528 322.747Z" fill="#F77E2D"/>
<path d="M310.023 322.747V322.949L306.524 329.998H293.134L296.727 322.747H310.023Z" fill="#F77E2D"/>
<path d="M191.795 352.61H181.442V393.439H191.795V352.61Z" fill="#79C9E8"/>
<path d="M191.795 352.61H189.443V393.439H191.795V352.61Z" fill="#49B4D6"/>
<path d="M292.546 352.61H282.193V393.439H292.546V352.61Z" fill="#79C9E8"/>
<path d="M292.546 352.61H289.485V393.439H292.546V352.61Z" fill="#49B4D6"/>
<path d="M191.795 352.578H181.442V357.72H191.795V352.578Z" fill="#49B4D6"/>
<path d="M292.546 352.578H282.193V357.72H292.546V352.578Z" fill="#49B4D6"/>
<path d="M191.795 318.082H181.442V322.718H191.795V318.082Z" fill="#79C9E8"/>
<path d="M191.795 318.082H189.443V322.718H191.795V318.082Z" fill="#49B4D6"/>
<path d="M292.546 318.082H282.193V322.718H292.546V318.082Z" fill="#79C9E8"/>
<path d="M292.546 318.082H289.485V322.718H292.546V318.082Z" fill="#49B4D6"/>
<path d="M191.795 322.138H181.442V322.722H191.795V322.138Z" fill="#49B4D6"/>
<path d="M292.546 322.138H282.193V322.722H292.546V322.138Z" fill="#49B4D6"/>
<path d="M189.334 322.747L174.523 352.608H163.16V348.488L175.93 322.747H189.334Z" fill="#167238"/>
<path d="M206.129 322.747L191.318 352.608H204.722L219.533 322.747H206.129Z" fill="#167238"/>
<path d="M249.733 322.747L234.922 352.608H221.517L236.328 322.747H249.733Z" fill="#167238"/>
<path d="M279.925 322.747L265.121 352.608H251.717L266.528 322.747H279.925Z" fill="#167238"/>
<path d="M296.727 322.747L281.916 352.608H295.313L310.023 322.949L296.727 322.747Z" fill="#167238"/>
<path d="M189.334 322.747L185.741 329.998H172.33L175.93 322.747H189.334Z" fill="#00668E"/>
<path d="M219.533 322.747L215.94 329.998H202.536L206.129 322.747H219.533Z" fill="#00668E"/>
<path d="M249.733 322.747L246.14 329.998H232.736L236.328 322.747H249.733Z" fill="#00668E"/>
<path d="M279.925 322.747L276.332 329.998H262.935L266.528 322.747H279.925Z" fill="#00668E"/>
<path d="M310.023 322.949L306.524 329.998H293.134L296.727 322.747L310.023 322.949Z" fill="#00668E"/>
<path opacity="0.55" d="M307.493 335.666H167.253V350.602H307.493V335.666Z" fill="url(#paint0_linear_127_5)"/>
<path d="M187.814 320.719C192.846 319.9 196.261 315.157 195.443 310.125C194.624 305.094 189.881 301.678 184.849 302.497C179.817 303.316 176.402 308.059 177.221 313.09C178.039 318.122 182.782 321.538 187.814 320.719Z" fill="#FFBF4D"/>
<path d="M190.532 311.602C190.532 309.292 188.659 307.419 186.349 307.419C184.039 307.419 182.166 309.292 182.166 311.602C182.166 313.912 184.039 315.785 186.349 315.785C188.659 315.785 190.532 313.912 190.532 311.602Z" fill="#167238"/>
<path d="M288.774 320.723C293.805 319.905 297.221 315.162 296.402 310.13C295.583 305.098 290.84 301.683 285.809 302.501C280.777 303.32 277.361 308.063 278.18 313.095C278.999 318.127 283.742 321.542 288.774 320.723Z" fill="#FFBF4D"/>
<path d="M291.492 311.602C291.492 309.292 289.619 307.419 287.309 307.419C284.999 307.419 283.126 309.292 283.126 311.602C283.126 313.912 284.999 315.785 287.309 315.785C289.619 315.785 291.492 313.912 291.492 311.602Z" fill="#167238"/>
<path d="M365.663 390.274H318.89L326.045 372.931V372.921L328.922 365.923L329.715 364.005L331.007 360.883L331.271 360.247L334.149 353.249L334.678 351.977L339.777 339.596C340.697 337.364 343.858 337.364 344.778 339.596L349.877 351.977L350.406 353.249L353.283 360.247L353.547 360.883L354.839 364.005L355.632 365.923L358.51 372.921V372.931L365.663 390.274Z" fill="#FFBF4D"/>
<path opacity="0.29" d="M321.956 382.838L318.892 390.273H365.668L362.603 382.838H321.956Z" fill="#F98D2B"/>
<path d="M368.724 385.828H315.153V393.401H368.724V385.828Z" fill="#79C9E8"/>
<path d="M368.723 385.828H357.149V393.401H368.723V385.828Z" fill="#49B4D6"/>
<path opacity="0.29" d="M363.823 385.825H357.207L351.892 372.935V372.925L349.015 365.927L348.222 364.009L346.93 360.887L346.666 360.251L343.789 353.253L343.26 351.981L338.973 341.558L339.776 339.601C340.696 337.369 343.857 337.369 344.777 339.601L349.876 351.982L350.405 353.254L353.282 360.252L353.546 360.888L354.838 364.01L355.631 365.928L358.509 372.926V372.936L363.823 385.825Z" fill="#F98D2B"/>
<path d="M353.282 360.247H331.271L334.148 353.249H350.405L353.282 360.247Z" fill="#167238"/>
<path d="M358.509 372.92V372.93H326.044V372.92L328.922 365.922H355.631L358.509 372.92Z" fill="#167238"/>
<path d="M353.282 360.247H346.666L343.789 353.249H350.405L353.282 360.247Z" fill="#00668E"/>
<path d="M358.509 372.92V372.93H351.892V372.92L349.015 365.922H355.631L358.509 372.92Z" fill="#00668E"/>
<path d="M67.5158 220.208C71.0108 220.208 74.0488 217.67 74.5208 214.208C74.6058 213.587 74.6488 212.953 74.6488 212.309C74.6488 204.6 68.3988 198.351 60.6898 198.351C60.3738 198.351 60.0608 198.365 59.7498 198.386C59.1128 190.784 52.7448 184.812 44.9778 184.812C36.7878 184.812 30.1498 191.451 30.1498 199.641C30.1498 200.004 30.1678 200.363 30.1928 200.72C27.8688 199.422 25.1598 198.728 22.2798 198.86C14.8318 199.201 8.7118 205.159 8.1848 212.597C8.1808 212.656 8.1768 212.715 8.1738 212.774C7.9338 216.819 11.2038 220.211 15.2558 220.211H67.5158V220.208Z" fill="#D7F0F9"/>
<path d="M400.65 231.172C411.688 231.172 412.299 214.56 401.274 214.024C400.973 214.009 400.67 214.002 400.365 214.002C398.397 214.002 396.502 214.314 394.724 214.885C393.248 205.893 385.445 199.032 376.036 199.032C366.42 199.032 358.483 206.199 357.262 215.483C354.98 214.389 352.425 213.776 349.725 213.776C348.217 213.776 346.754 213.967 345.358 214.327C335.706 216.813 337.732 231.173 347.699 231.173H400.65V231.172Z" fill="#D7F0F9"/>
<path d="M268.093 149.323C279.128 149.323 279.739 132.716 268.717 132.18C268.416 132.165 268.113 132.158 267.808 132.158C265.841 132.158 263.946 132.47 262.169 133.041C260.694 124.052 252.893 117.193 243.487 117.193C233.874 117.193 225.939 124.358 224.719 133.639C222.438 132.545 219.883 131.932 217.184 131.932C215.677 131.932 214.214 132.123 212.819 132.482C203.17 134.967 205.195 149.323 215.159 149.323H268.093Z" fill="#D7F0F9"/>
<path d="M92.4037 180.018C107.014 180.018 118.859 168.174 118.859 153.563C118.859 138.952 107.014 127.108 92.4037 127.108C77.793 127.108 65.9487 138.952 65.9487 153.563C65.9487 168.174 77.793 180.018 92.4037 180.018Z" fill="#FFBF4D"/>
<path d="M92.6207 127.113C99.8157 131.841 104.57 139.98 104.57 149.232C104.57 163.843 92.7257 175.687 78.1147 175.687C78.0417 175.687 77.9697 175.682 77.8977 175.682C82.0637 178.42 87.0457 180.017 92.4037 180.017C107.015 180.017 118.859 168.173 118.859 153.562C118.859 139.025 107.131 127.231 92.6207 127.113Z" fill="#FF9F50"/>
<defs>
<linearGradient id="paint0_linear_127_5" x1="237.372" y1="361.343" x2="237.372" y2="337.288" gradientUnits="userSpaceOnUse">
<stop stop-color="white"/>
<stop offset="1" stop-color="white" stop-opacity="0"/>
</linearGradient>
</defs>
</svg>
